# MagicaVoxel @ Ephtracy

# group
o stove

# material
mtllib furniture.vox-1-stove.mtl
usemtl palette

# normals
vn -1 0 0
vn 1 0 0
vn 0 0 1
vn 0 0 -1
vn 0 -1 0
vn 0 1 0

# texcoords
vt 0.740234 0.5
vt 0.744141 0.5
vt 0.755859 0.5
vt 0.783203 0.5

# verts
v 4.6 0.1 0.8
v 4.6 0.1 -1.2
v 4.6 1.2 0.8
v 4.6 1.2 0.7
v 4.6 1.5 1.2
v 4.6 1.5 0.8
v 4.6 1.5 0.7
v 4.6 1.7 1.2
v 4.6 1.7 -1.2
v 4.8 0.5 0.9
v 4.8 0.5 0.8
v 4.8 1.1 0.9
v 4.8 1.1 0.8
v 5 1.7 0
v 5 1.7 -0.6
v 5 1.8 0
v 5 1.8 -0.6
v 5.1 1.7 0.2
v 5.1 1.7 0
v 5.1 1.7 -0.6
v 5.1 1.7 -0.8
v 5.1 1.8 0.2
v 5.1 1.8 0
v 5.1 1.8 -0.6
v 5.1 1.8 -0.8
v 5.2 1.7 0.4
v 5.2 1.7 0.2
v 5.2 1.7 -0.8
v 5.2 1.7 -1
v 5.2 1.8 0.4
v 5.2 1.8 0.2
v 5.2 1.8 -0.8
v 5.2 1.8 -1
v 5.4 1.7 0.5
v 5.4 1.7 0.4
v 5.4 1.7 -1
v 5.4 1.7 -1.1
v 5.4 1.8 0.5
v 5.4 1.8 0.4
v 5.4 1.8 -1
v 5.4 1.8 -1.1
v 5.5 1.7 0.6
v 5.5 1.7 0.5
v 5.5 1.7 -1.1
v 5.5 1.7 -1.2
v 5.5 1.8 0.6
v 5.5 1.8 0.5
v 5.5 1.8 -1.1
v 5.5 1.8 -1.2
v 6.1 1.7 0.6
v 6.1 1.7 0.5
v 6.1 1.7 -1.1
v 6.1 1.7 -1.2
v 6.1 1.8 0.6
v 6.1 1.8 0.5
v 6.1 1.8 -1.1
v 6.1 1.8 -1.2
v 6.2 1.7 0.5
v 6.2 1.7 0.4
v 6.2 1.7 -1
v 6.2 1.7 -1.1
v 6.2 1.8 0.5
v 6.2 1.8 0.4
v 6.2 1.8 -1
v 6.2 1.8 -1.1
v 6.4 1.7 0.4
v 6.4 1.7 0.2
v 6.4 1.7 -0.8
v 6.4 1.7 -1
v 6.4 1.8 0.4
v 6.4 1.8 0.2
v 6.4 1.8 -0.8
v 6.4 1.8 -1
v 6.5 1.7 0.2
v 6.5 1.7 0
v 6.5 1.7 -0.6
v 6.5 1.7 -0.8
v 6.5 1.8 0.2
v 6.5 1.8 0
v 6.5 1.8 -0.6
v 6.5 1.8 -0.8
v 6.6 1.7 0
v 6.6 1.7 -0.6
v 6.6 1.8 0
v 6.6 1.8 -0.6
v 6.8 0.5 0.9
v 6.8 0.5 0.8
v 6.8 1.1 0.9
v 6.8 1.1 0.8
v 7 0.1 0.8
v 7 0.1 -1.2
v 7 1.2 0.8
v 7 1.2 0.7
v 7 1.5 1.2
v 7 1.5 0.8
v 7 1.5 0.7
v 7 1.7 1.2
v 7 1.7 -1.2
v 4.6 1.5 1.2
v 4.6 1.7 1.2
v 7 1.5 1.2
v 7 1.7 1.2
v 4.8 0.5 0.9
v 4.8 1.1 0.9
v 6.8 0.5 0.9
v 6.8 1.1 0.9
v 4.6 0.1 0.8
v 4.6 1.2 0.8
v 4.6 1.5 0.8
v 4.8 0.4 0.8
v 4.8 0.5 0.8
v 4.8 1.1 0.8
v 6.8 0.4 0.8
v 6.8 0.5 0.8
v 6.8 1.1 0.8
v 7 0.1 0.8
v 7 1.2 0.8
v 7 1.5 0.8
v 5.5 1.7 0.6
v 5.5 1.8 0.6
v 6.1 1.7 0.6
v 6.1 1.8 0.6
v 5.4 1.7 0.5
v 5.4 1.8 0.5
v 5.5 1.7 0.5
v 5.5 1.8 0.5
v 6.1 1.7 0.5
v 6.1 1.8 0.5
v 6.2 1.7 0.5
v 6.2 1.8 0.5
v 5.2 1.7 0.4
v 5.2 1.8 0.4
v 5.4 1.7 0.4
v 5.4 1.8 0.4
v 6.2 1.7 0.4
v 6.2 1.8 0.4
v 6.4 1.7 0.4
v 6.4 1.8 0.4
v 5.1 1.7 0.2
v 5.1 1.8 0.2
v 5.2 1.7 0.2
v 5.2 1.8 0.2
v 6.4 1.7 0.2
v 6.4 1.8 0.2
v 6.5 1.7 0.2
v 6.5 1.8 0.2
v 5 1.7 0
v 5 1.8 0
v 5.1 1.7 0
v 5.1 1.8 0
v 6.5 1.7 0
v 6.5 1.8 0
v 6.6 1.7 0
v 6.6 1.8 0
v 5 1.7 -0.6
v 5 1.8 -0.6
v 5.1 1.7 -0.6
v 5.1 1.8 -0.6
v 6.5 1.7 -0.6
v 6.5 1.8 -0.6
v 6.6 1.7 -0.6
v 6.6 1.8 -0.6
v 5.1 1.7 -0.8
v 5.1 1.8 -0.8
v 5.2 1.7 -0.8
v 5.2 1.8 -0.8
v 6.4 1.7 -0.8
v 6.4 1.8 -0.8
v 6.5 1.7 -0.8
v 6.5 1.8 -0.8
v 5.2 1.7 -1
v 5.2 1.8 -1
v 5.4 1.7 -1
v 5.4 1.8 -1
v 6.2 1.7 -1
v 6.2 1.8 -1
v 6.4 1.7 -1
v 6.4 1.8 -1
v 5.4 1.7 -1.1
v 5.4 1.8 -1.1
v 5.5 1.7 -1.1
v 5.5 1.8 -1.1
v 6.1 1.7 -1.1
v 6.1 1.8 -1.1
v 6.2 1.7 -1.1
v 6.2 1.8 -1.1
v 4.6 0.1 -1.2
v 4.6 1.7 -1.2
v 5.5 1.7 -1.2
v 5.5 1.8 -1.2
v 6.1 1.7 -1.2
v 6.1 1.8 -1.2
v 7 0.1 -1.2
v 7 1.7 -1.2
v 4.6 0.1 0.8
v 7 0.1 0.8
v 4.6 0.1 -1.2
v 7 0.1 -1.2
v 4.8 0.5 0.9
v 6.8 0.5 0.9
v 4.8 0.5 0.8
v 6.8 0.5 0.8
v 4.6 1.5 1.2
v 7 1.5 1.2
v 4.6 1.5 0.8
v 7 1.5 0.8
v 4.8 1.1 0.9
v 6.8 1.1 0.9
v 4.8 1.1 0.8
v 6.8 1.1 0.8
v 4.6 1.7 1.2
v 7 1.7 1.2
v 5.5 1.7 0.6
v 6.1 1.7 0.6
v 5.4 1.7 0.5
v 5.5 1.7 0.5
v 6.1 1.7 0.5
v 6.2 1.7 0.5
v 5.2 1.7 0.4
v 5.4 1.7 0.4
v 6.2 1.7 0.4
v 6.4 1.7 0.4
v 5.1 1.7 0.2
v 5.2 1.7 0.2
v 6.4 1.7 0.2
v 6.5 1.7 0.2
v 5 1.7 0
v 5.1 1.7 0
v 6.5 1.7 0
v 6.6 1.7 0
v 5 1.7 -0.6
v 5.1 1.7 -0.6
v 6.5 1.7 -0.6
v 6.6 1.7 -0.6
v 5.1 1.7 -0.8
v 5.2 1.7 -0.8
v 6.4 1.7 -0.8
v 6.5 1.7 -0.8
v 5.2 1.7 -1
v 5.4 1.7 -1
v 6.2 1.7 -1
v 6.4 1.7 -1
v 5.4 1.7 -1.1
v 5.5 1.7 -1.1
v 6.1 1.7 -1.1
v 6.2 1.7 -1.1
v 4.6 1.7 -1.2
v 5.5 1.7 -1.2
v 6.1 1.7 -1.2
v 7 1.7 -1.2
v 5.5 1.8 0.6
v 6.1 1.8 0.6
v 5.4 1.8 0.5
v 5.5 1.8 0.5
v 6.1 1.8 0.5
v 6.2 1.8 0.5
v 5.2 1.8 0.4
v 5.4 1.8 0.4
v 6.2 1.8 0.4
v 6.4 1.8 0.4
v 5.1 1.8 0.2
v 5.2 1.8 0.2
v 6.4 1.8 0.2
v 6.5 1.8 0.2
v 5 1.8 0
v 5.1 1.8 0
v 6.5 1.8 0
v 6.6 1.8 0
v 5 1.8 -0.6
v 5.1 1.8 -0.6
v 6.5 1.8 -0.6
v 6.6 1.8 -0.6
v 5.1 1.8 -0.8
v 5.2 1.8 -0.8
v 6.4 1.8 -0.8
v 6.5 1.8 -0.8
v 5.2 1.8 -1
v 5.4 1.8 -1
v 6.2 1.8 -1
v 6.4 1.8 -1
v 5.4 1.8 -1.1
v 5.5 1.8 -1.1
v 6.1 1.8 -1.1
v 6.2 1.8 -1.1
v 5.5 1.8 -1.2
v 6.1 1.8 -1.2

# faces
f 3/1/1 2/1/1 1/1/1
f 4/1/1 2/1/1 3/1/1
f 6/3/1 4/3/1 3/3/1
f 7/1/1 2/1/1 4/1/1
f 7/3/1 4/3/1 6/3/1
f 8/1/1 6/1/1 5/1/1
f 8/1/1 7/1/1 6/1/1
f 9/1/1 2/1/1 7/1/1
f 9/1/1 7/1/1 8/1/1
f 12/4/1 11/4/1 10/4/1
f 13/4/1 11/4/1 12/4/1
f 16/2/1 15/2/1 14/2/1
f 17/2/1 15/2/1 16/2/1
f 22/2/1 19/2/1 18/2/1
f 23/2/1 19/2/1 22/2/1
f 24/2/1 21/2/1 20/2/1
f 25/2/1 21/2/1 24/2/1
f 30/2/1 27/2/1 26/2/1
f 31/2/1 27/2/1 30/2/1
f 32/2/1 29/2/1 28/2/1
f 33/2/1 29/2/1 32/2/1
f 38/2/1 35/2/1 34/2/1
f 39/2/1 35/2/1 38/2/1
f 40/2/1 37/2/1 36/2/1
f 41/2/1 37/2/1 40/2/1
f 46/2/1 43/2/1 42/2/1
f 47/2/1 43/2/1 46/2/1
f 48/2/1 45/2/1 44/2/1
f 49/2/1 45/2/1 48/2/1
f 50/2/2 51/2/2 54/2/2
f 54/2/2 51/2/2 55/2/2
f 52/2/2 53/2/2 56/2/2
f 56/2/2 53/2/2 57/2/2
f 58/2/2 59/2/2 62/2/2
f 62/2/2 59/2/2 63/2/2
f 60/2/2 61/2/2 64/2/2
f 64/2/2 61/2/2 65/2/2
f 66/2/2 67/2/2 70/2/2
f 70/2/2 67/2/2 71/2/2
f 68/2/2 69/2/2 72/2/2
f 72/2/2 69/2/2 73/2/2
f 74/2/2 75/2/2 78/2/2
f 78/2/2 75/2/2 79/2/2
f 76/2/2 77/2/2 80/2/2
f 80/2/2 77/2/2 81/2/2
f 82/2/2 83/2/2 84/2/2
f 84/2/2 83/2/2 85/2/2
f 86/4/2 87/4/2 88/4/2
f 88/4/2 87/4/2 89/4/2
f 90/1/2 91/1/2 92/1/2
f 92/1/2 91/1/2 93/1/2
f 92/3/2 93/3/2 95/3/2
f 93/1/2 91/1/2 96/1/2
f 95/3/2 93/3/2 96/3/2
f 94/1/2 95/1/2 97/1/2
f 95/1/2 96/1/2 97/1/2
f 96/1/2 91/1/2 98/1/2
f 97/1/2 96/1/2 98/1/2
f 101/1/3 100/1/3 99/1/3
f 102/1/3 100/1/3 101/1/3
f 105/4/3 104/4/3 103/4/3
f 106/4/3 104/4/3 105/4/3
f 110/1/3 108/1/3 107/1/3
f 111/1/3 108/1/3 110/1/3
f 112/1/3 108/1/3 111/1/3
f 113/1/3 110/1/3 107/1/3
f 113/3/3 111/3/3 110/3/3
f 114/3/3 111/3/3 113/3/3
f 115/1/3 108/1/3 112/1/3
f 116/1/3 114/1/3 113/1/3
f 116/1/3 115/1/3 114/1/3
f 116/1/3 113/1/3 107/1/3
f 117/3/3 109/3/3 108/3/3
f 117/1/3 115/1/3 116/1/3
f 117/1/3 108/1/3 115/1/3
f 118/3/3 109/3/3 117/3/3
f 121/2/3 120/2/3 119/2/3
f 122/2/3 120/2/3 121/2/3
f 125/2/3 124/2/3 123/2/3
f 126/2/3 124/2/3 125/2/3
f 129/2/3 128/2/3 127/2/3
f 130/2/3 128/2/3 129/2/3
f 133/2/3 132/2/3 131/2/3
f 134/2/3 132/2/3 133/2/3
f 137/2/3 136/2/3 135/2/3
f 138/2/3 136/2/3 137/2/3
f 141/2/3 140/2/3 139/2/3
f 142/2/3 140/2/3 141/2/3
f 145/2/3 144/2/3 143/2/3
f 146/2/3 144/2/3 145/2/3
f 149/2/3 148/2/3 147/2/3
f 150/2/3 148/2/3 149/2/3
f 153/2/3 152/2/3 151/2/3
f 154/2/3 152/2/3 153/2/3
f 155/2/4 156/2/4 157/2/4
f 157/2/4 156/2/4 158/2/4
f 159/2/4 160/2/4 161/2/4
f 161/2/4 160/2/4 162/2/4
f 163/2/4 164/2/4 165/2/4
f 165/2/4 164/2/4 166/2/4
f 167/2/4 168/2/4 169/2/4
f 169/2/4 168/2/4 170/2/4
f 171/2/4 172/2/4 173/2/4
f 173/2/4 172/2/4 174/2/4
f 175/2/4 176/2/4 177/2/4
f 177/2/4 176/2/4 178/2/4
f 179/2/4 180/2/4 181/2/4
f 181/2/4 180/2/4 182/2/4
f 183/2/4 184/2/4 185/2/4
f 185/2/4 184/2/4 186/2/4
f 187/1/4 188/1/4 189/1/4
f 187/1/4 189/1/4 191/1/4
f 189/2/4 190/2/4 191/2/4
f 191/2/4 190/2/4 192/2/4
f 187/1/4 191/1/4 193/1/4
f 193/1/4 191/1/4 194/1/4
f 197/1/5 196/1/5 195/1/5
f 198/1/5 196/1/5 197/1/5
f 201/4/5 200/4/5 199/4/5
f 202/4/5 200/4/5 201/4/5
f 205/1/5 204/1/5 203/1/5
f 206/1/5 204/1/5 205/1/5
f 207/4/6 208/4/6 209/4/6
f 209/4/6 208/4/6 210/4/6
f 211/1/6 212/1/6 213/1/6
f 213/1/6 212/1/6 214/1/6
f 211/1/6 213/1/6 215/1/6
f 215/1/6 213/1/6 216/1/6
f 214/1/6 212/1/6 217/1/6
f 217/1/6 212/1/6 218/1/6
f 211/1/6 215/1/6 219/1/6
f 219/1/6 215/1/6 220/1/6
f 218/1/6 212/1/6 221/1/6
f 221/1/6 212/1/6 222/1/6
f 211/1/6 219/1/6 223/1/6
f 223/1/6 219/1/6 224/1/6
f 222/1/6 212/1/6 225/1/6
f 225/1/6 212/1/6 226/1/6
f 211/1/6 223/1/6 227/1/6
f 227/1/6 223/1/6 228/1/6
f 226/1/6 212/1/6 229/1/6
f 229/1/6 212/1/6 230/1/6
f 211/1/6 227/1/6 231/1/6
f 230/1/6 212/1/6 234/1/6
f 231/1/6 232/1/6 235/1/6
f 233/1/6 234/1/6 238/1/6
f 235/1/6 236/1/6 239/1/6
f 237/1/6 238/1/6 242/1/6
f 239/1/6 240/1/6 243/1/6
f 241/1/6 242/1/6 246/1/6
f 243/1/6 244/1/6 247/1/6
f 211/1/6 231/1/6 247/1/6
f 231/1/6 235/1/6 247/1/6
f 235/1/6 239/1/6 247/1/6
f 239/1/6 243/1/6 247/1/6
f 247/1/6 244/1/6 248/1/6
f 245/1/6 246/1/6 249/1/6
f 246/1/6 242/1/6 250/1/6
f 249/1/6 246/1/6 250/1/6
f 234/1/6 212/1/6 250/1/6
f 238/1/6 234/1/6 250/1/6
f 242/1/6 238/1/6 250/1/6
f 251/2/6 252/2/6 254/2/6
f 254/2/6 252/2/6 255/2/6
f 253/2/6 254/2/6 258/2/6
f 255/2/6 256/2/6 258/2/6
f 254/2/6 255/2/6 258/2/6
f 258/2/6 256/2/6 259/2/6
f 257/2/6 258/2/6 262/2/6
f 259/2/6 260/2/6 262/2/6
f 258/2/6 259/2/6 262/2/6
f 262/2/6 260/2/6 263/2/6
f 261/2/6 262/2/6 266/2/6
f 263/2/6 264/2/6 266/2/6
f 262/2/6 263/2/6 266/2/6
f 266/2/6 264/2/6 267/2/6
f 265/2/6 266/2/6 269/2/6
f 267/2/6 268/2/6 269/2/6
f 266/2/6 267/2/6 269/2/6
f 269/2/6 268/2/6 270/2/6
f 270/2/6 268/2/6 271/2/6
f 271/2/6 268/2/6 272/2/6
f 270/2/6 271/2/6 273/2/6
f 273/2/6 271/2/6 274/2/6
f 274/2/6 271/2/6 275/2/6
f 275/2/6 271/2/6 276/2/6
f 274/2/6 275/2/6 277/2/6
f 277/2/6 275/2/6 278/2/6
f 278/2/6 275/2/6 279/2/6
f 279/2/6 275/2/6 280/2/6
f 278/2/6 279/2/6 281/2/6
f 281/2/6 279/2/6 282/2/6
f 282/2/6 279/2/6 283/2/6
f 283/2/6 279/2/6 284/2/6
f 282/2/6 283/2/6 285/2/6
f 285/2/6 283/2/6 286/2/6
