# MagicaVoxel @ Ephtracy

# group
o z-steamed-fish

# material
mtllib food.vox-3-z-steamed-fish.mtl
usemtl palette

# normals
vn -1 0 0
vn 1 0 0
vn 0 0 1
vn 0 0 -1
vn 0 -1 0
vn 0 1 0

# texcoords
vt 0.0332031 0.5
vt 0.0644531 0.5
vt 0.126953 0.5
vt 0.408203 0.5
vt 0.416016 0.5

# verts
v -10.5 0.1 -29
v -10.5 0.1 -29.8
v -10.5 0.2 -29
v -10.5 0.2 -29.8
v -10.4 0.2 -28.7
v -10.4 0.2 -29
v -10.4 0.3 -28.7
v -10.4 0.3 -29
v -10.3 0.1 -28.6
v -10.3 0.1 -29
v -10.3 0.1 -29.8
v -10.3 0.1 -30.2
v -10.3 0.2 -28.6
v -10.3 0.2 -28.7
v -10.3 0.2 -29
v -10.3 0.2 -29.1
v -10.3 0.2 -29.3
v -10.3 0.2 -29.4
v -10.3 0.2 -29.8
v -10.3 0.2 -30.2
v -10.3 0.3 -28.6
v -10.3 0.3 -28.7
v -10.3 0.3 -29
v -10.3 0.3 -29.1
v -10.3 0.3 -29.3
v -10.3 0.3 -29.4
v -10.2 0.2 -28.5
v -10.2 0.2 -28.6
v -10.2 0.2 -29.1
v -10.2 0.2 -29.3
v -10.2 0.2 -29.4
v -10.2 0.2 -29.5
v -10.2 0.3 -28.5
v -10.2 0.3 -28.6
v -10.2 0.3 -29.1
v -10.2 0.3 -29.3
v -10.2 0.3 -29.4
v -10.2 0.3 -29.5
v -10.1 0.2 -28.4
v -10.1 0.2 -28.5
v -10.1 0.3 -28.4
v -10.1 0.3 -28.5
v -9.9 0.1 -28.4
v -9.9 0.1 -28.6
v -9.9 0.1 -30.2
v -9.9 0.1 -30.4
v -9.9 0.2 -28.4
v -9.9 0.2 -28.5
v -9.9 0.2 -28.6
v -9.9 0.2 -30.2
v -9.9 0.2 -30.4
v -9.8 0.2 -29.4
v -9.8 0.2 -29.5
v -9.8 0.3 -29.4
v -9.8 0.3 -29.5
v -9.6 0.2 -29.7
v -9.6 0.2 -30
v -9.6 0.3 -29.7
v -9.6 0.3 -30
v -9.5 0.2 -29.6
v -9.5 0.2 -29.7
v -9.5 0.2 -30
v -9.5 0.2 -30.1
v -9.5 0.2 -30.3
v -9.5 0.2 -30.4
v -9.5 0.3 -29.6
v -9.5 0.3 -29.7
v -9.5 0.3 -30
v -9.5 0.3 -30.1
v -9.5 0.3 -30.3
v -9.5 0.3 -30.4
v -9.4 0.2 -29.5
v -9.4 0.2 -29.6
v -9.4 0.2 -30.1
v -9.4 0.2 -30.3
v -9.4 0.2 -30.4
v -9.4 0.2 -30.5
v -9.4 0.3 -29.5
v -9.4 0.3 -29.6
v -9.4 0.3 -30.1
v -9.4 0.3 -30.3
v -9.4 0.3 -30.4
v -9.4 0.3 -30.5
v -9.3 0.2 -29.4
v -9.3 0.2 -29.5
v -9.3 0.3 -29.4
v -9.3 0.3 -29.5
v -9 0.2 -30.4
v -9 0.2 -30.5
v -9 0.3 -30.4
v -9 0.3 -30.5
v -9.9 0.2 -29.4
v -9.9 0.2 -29.5
v -9.9 0.3 -29.4
v -9.9 0.3 -29.5
v -9.7 0.2 -28.4
v -9.7 0.2 -28.5
v -9.7 0.3 -28.4
v -9.7 0.3 -28.5
v -9.6 0.2 -28.5
v -9.6 0.2 -28.6
v -9.6 0.2 -29.1
v -9.6 0.2 -29.3
v -9.6 0.3 -28.5
v -9.6 0.3 -28.6
v -9.6 0.3 -29.1
v -9.6 0.3 -29.3
v -9.5 0.2 -28.6
v -9.5 0.2 -28.8
v -9.5 0.2 -29
v -9.5 0.2 -29.1
v -9.5 0.2 -29.4
v -9.5 0.2 -29.5
v -9.5 0.3 -28.6
v -9.5 0.3 -28.8
v -9.5 0.3 -29
v -9.5 0.3 -29.1
v -9.5 0.3 -29.4
v -9.5 0.3 -29.5
v -9.4 0.2 -28.8
v -9.4 0.2 -29
v -9.4 0.2 -29.3
v -9.4 0.2 -29.4
v -9.4 0.3 -28.8
v -9.4 0.3 -29
v -9.4 0.3 -29.3
v -9.4 0.3 -29.4
v -9.1 0.1 -28.4
v -9.1 0.1 -28.6
v -9.1 0.1 -30.2
v -9.1 0.1 -30.4
v -9.1 0.2 -28.4
v -9.1 0.2 -28.6
v -9.1 0.2 -30.2
v -9.1 0.2 -30.3
v -9.1 0.2 -30.4
v -9.1 0.2 -30.5
v -9.1 0.3 -30.4
v -9.1 0.3 -30.5
v -8.9 0.2 -29.4
v -8.9 0.2 -29.5
v -8.9 0.3 -29.4
v -8.9 0.3 -29.5
v -8.8 0.2 -29.5
v -8.8 0.2 -29.6
v -8.8 0.2 -30.1
v -8.8 0.2 -30.2
v -8.8 0.2 -30.3
v -8.8 0.3 -29.5
v -8.8 0.3 -29.6
v -8.8 0.3 -30.1
v -8.8 0.3 -30.3
v -8.7 0.1 -28.6
v -8.7 0.1 -29
v -8.7 0.1 -29.8
v -8.7 0.1 -30.2
v -8.7 0.2 -28.6
v -8.7 0.2 -29
v -8.7 0.2 -29.6
v -8.7 0.2 -29.8
v -8.7 0.2 -30
v -8.7 0.2 -30.1
v -8.7 0.2 -30.2
v -8.7 0.2 -30.4
v -8.7 0.2 -30.5
v -8.7 0.3 -29.6
v -8.7 0.3 -29.8
v -8.7 0.3 -30
v -8.7 0.3 -30.1
v -8.7 0.3 -30.4
v -8.7 0.3 -30.5
v -8.6 0.2 -29.8
v -8.6 0.2 -30
v -8.6 0.2 -30.3
v -8.6 0.2 -30.4
v -8.6 0.3 -29.8
v -8.6 0.3 -30
v -8.6 0.3 -30.3
v -8.6 0.3 -30.4
v -8.5 0.1 -29
v -8.5 0.1 -29.8
v -8.5 0.2 -29
v -8.5 0.2 -29.8
v -10.1 0.2 -28.4
v -10.1 0.3 -28.4
v -9.9 0.1 -28.4
v -9.9 0.2 -28.4
v -9.7 0.2 -28.4
v -9.7 0.3 -28.4
v -9.1 0.1 -28.4
v -9.1 0.2 -28.4
v -10.2 0.2 -28.5
v -10.2 0.3 -28.5
v -10.1 0.2 -28.5
v -10.1 0.3 -28.5
v -9.7 0.2 -28.5
v -9.7 0.3 -28.5
v -9.6 0.2 -28.5
v -9.6 0.3 -28.5
v -10.3 0.1 -28.6
v -10.3 0.2 -28.6
v -10.3 0.3 -28.6
v -10.2 0.2 -28.6
v -10.2 0.3 -28.6
v -10.1 0.2 -28.6
v -9.9 0.1 -28.6
v -9.9 0.2 -28.6
v -9.6 0.2 -28.6
v -9.6 0.3 -28.6
v -9.5 0.2 -28.6
v -9.5 0.3 -28.6
v -9.1 0.1 -28.6
v -9.1 0.2 -28.6
v -8.7 0.1 -28.6
v -8.7 0.2 -28.6
v -10.4 0.2 -28.7
v -10.4 0.3 -28.7
v -10.3 0.2 -28.7
v -10.3 0.3 -28.7
v -9.5 0.2 -28.8
v -9.5 0.3 -28.8
v -9.4 0.2 -28.8
v -9.4 0.3 -28.8
v -10.5 0.1 -29
v -10.5 0.2 -29
v -10.4 0.2 -29
v -10.3 0.1 -29
v -10.3 0.2 -29
v -8.7 0.1 -29
v -8.7 0.2 -29
v -8.5 0.1 -29
v -8.5 0.2 -29
v -10.3 0.2 -29.3
v -10.3 0.3 -29.3
v -10.2 0.2 -29.3
v -10.2 0.3 -29.3
v -9.6 0.2 -29.3
v -9.6 0.3 -29.3
v -9.5 0.2 -29.3
v -9.5 0.3 -29.3
v -9.4 0.2 -29.3
v -9.4 0.3 -29.3
v -9.3 0.2 -29.4
v -9.3 0.3 -29.4
v -8.9 0.2 -29.4
v -8.9 0.3 -29.4
v -9.4 0.2 -29.5
v -9.4 0.3 -29.5
v -9.3 0.2 -29.5
v -9.3 0.3 -29.5
v -8.9 0.2 -29.5
v -8.9 0.3 -29.5
v -8.8 0.2 -29.5
v -8.8 0.3 -29.5
v -9.5 0.2 -29.6
v -9.5 0.3 -29.6
v -9.4 0.2 -29.6
v -9.4 0.3 -29.6
v -8.8 0.2 -29.6
v -8.8 0.3 -29.6
v -8.7 0.2 -29.6
v -8.7 0.3 -29.6
v -9.6 0.2 -29.7
v -9.6 0.3 -29.7
v -9.5 0.2 -29.7
v -9.5 0.3 -29.7
v -8.7 0.2 -29.8
v -8.7 0.3 -29.8
v -8.6 0.2 -29.8
v -8.6 0.3 -29.8
v -9.5 0.2 -30.3
v -9.5 0.3 -30.3
v -9.4 0.2 -30.3
v -9.4 0.3 -30.3
v -8.8 0.2 -30.3
v -8.8 0.3 -30.3
v -8.7 0.2 -30.3
v -8.7 0.3 -30.3
v -8.6 0.2 -30.3
v -8.6 0.3 -30.3
v -10.4 0.2 -29
v -10.4 0.3 -29
v -10.3 0.2 -29
v -10.3 0.3 -29
v -9.5 0.2 -29
v -9.5 0.3 -29
v -9.4 0.2 -29
v -9.4 0.3 -29
v -10.3 0.2 -29.1
v -10.3 0.3 -29.1
v -10.2 0.2 -29.1
v -10.2 0.3 -29.1
v -9.6 0.2 -29.1
v -9.6 0.3 -29.1
v -9.5 0.2 -29.1
v -9.5 0.3 -29.1
v -10.3 0.2 -29.4
v -10.3 0.3 -29.4
v -10.2 0.2 -29.4
v -10.2 0.3 -29.4
v -9.9 0.2 -29.4
v -9.9 0.3 -29.4
v -9.8 0.2 -29.4
v -9.8 0.3 -29.4
v -9.5 0.2 -29.4
v -9.5 0.3 -29.4
v -9.4 0.2 -29.4
v -9.4 0.3 -29.4
v -10.2 0.2 -29.5
v -10.2 0.3 -29.5
v -9.9 0.2 -29.5
v -9.9 0.3 -29.5
v -9.8 0.2 -29.5
v -9.8 0.3 -29.5
v -9.5 0.2 -29.5
v -9.5 0.3 -29.5
v -10.5 0.1 -29.8
v -10.5 0.2 -29.8
v -10.3 0.1 -29.8
v -10.3 0.2 -29.8
v -8.7 0.1 -29.8
v -8.7 0.2 -29.8
v -8.6 0.2 -29.8
v -8.5 0.1 -29.8
v -8.5 0.2 -29.8
v -9.6 0.2 -30
v -9.6 0.3 -30
v -9.5 0.2 -30
v -9.5 0.3 -30
v -8.7 0.2 -30
v -8.7 0.3 -30
v -8.6 0.2 -30
v -8.6 0.3 -30
v -9.5 0.2 -30.1
v -9.5 0.3 -30.1
v -9.4 0.2 -30.1
v -9.4 0.3 -30.1
v -8.8 0.2 -30.1
v -8.8 0.3 -30.1
v -8.7 0.2 -30.1
v -8.7 0.3 -30.1
v -10.3 0.1 -30.2
v -10.3 0.2 -30.2
v -9.9 0.1 -30.2
v -9.9 0.2 -30.2
v -9.1 0.1 -30.2
v -9.1 0.2 -30.2
v -8.9 0.2 -30.2
v -8.8 0.2 -30.2
v -8.7 0.1 -30.2
v -8.7 0.2 -30.2
v -9.9 0.1 -30.4
v -9.9 0.2 -30.4
v -9.5 0.2 -30.4
v -9.5 0.3 -30.4
v -9.4 0.2 -30.4
v -9.4 0.3 -30.4
v -9.1 0.1 -30.4
v -9.1 0.2 -30.4
v -9.1 0.3 -30.4
v -9 0.2 -30.4
v -9 0.3 -30.4
v -8.7 0.2 -30.4
v -8.7 0.3 -30.4
v -8.6 0.2 -30.4
v -8.6 0.3 -30.4
v -9.4 0.2 -30.5
v -9.4 0.3 -30.5
v -9.1 0.2 -30.5
v -9.1 0.3 -30.5
v -9 0.2 -30.5
v -9 0.3 -30.5
v -8.7 0.2 -30.5
v -8.7 0.3 -30.5
v -9.9 0.1 -28.4
v -9.1 0.1 -28.4
v -9.8 0.1 -28.5
v -9.6 0.1 -28.5
v -10.3 0.1 -28.6
v -9.9 0.1 -28.6
v -9.5 0.1 -28.6
v -9.3 0.1 -28.6
v -9.1 0.1 -28.6
v -8.7 0.1 -28.6
v -9.1 0.1 -28.7
v -8.9 0.1 -28.7
v -10.5 0.1 -29
v -10.3 0.1 -29
v -9.8 0.1 -29
v -9.6 0.1 -29
v -8.7 0.1 -29
v -8.5 0.1 -29
v -9.5 0.1 -29.1
v -9.3 0.1 -29.1
v -9.1 0.1 -29.3
v -8.9 0.1 -29.3
v -10.5 0.1 -29.8
v -10.3 0.1 -29.8
v -9.9 0.1 -29.8
v -9.7 0.1 -29.8
v -8.7 0.1 -29.8
v -8.5 0.1 -29.8
v -10.3 0.1 -30.2
v -9.9 0.1 -30.2
v -9.7 0.1 -30.2
v -9.1 0.1 -30.2
v -8.7 0.1 -30.2
v -9.9 0.1 -30.4
v -9.1 0.1 -30.4
v -10.1 0.2 -28.4
v -9.9 0.2 -28.4
v -10.2 0.2 -28.5
v -10.1 0.2 -28.5
v -9.9 0.2 -28.5
v -10.2 0.2 -28.6
v -10.1 0.2 -28.6
v -9.9 0.2 -28.6
v -10.4 0.2 -28.7
v -10.3 0.2 -28.7
v -10.4 0.2 -29
v -10.3 0.2 -29
v -8.7 0.2 -29.8
v -8.6 0.2 -29.8
v -8.7 0.2 -30
v -8.6 0.2 -30
v -9.1 0.2 -30.2
v -8.9 0.2 -30.2
v -8.8 0.2 -30.2
v -9.1 0.2 -30.3
v -9 0.2 -30.3
v -8.9 0.2 -30.3
v -8.8 0.2 -30.3
v -8.7 0.2 -30.3
v -8.6 0.2 -30.3
v -9.4 0.2 -30.4
v -9.1 0.2 -30.4
v -9 0.2 -30.4
v -8.7 0.2 -30.4
v -8.6 0.2 -30.4
v -9.4 0.2 -30.5
v -9.1 0.2 -30.5
v -9 0.2 -30.5
v -8.7 0.2 -30.5
v -9.7 0.2 -28.4
v -9.1 0.2 -28.4
v -9.7 0.2 -28.5
v -9.6 0.2 -28.5
v -9.6 0.2 -28.6
v -9.5 0.2 -28.6
v -9.3 0.2 -28.6
v -9.1 0.2 -28.6
v -8.7 0.2 -28.6
v -9.1 0.2 -28.7
v -8.9 0.2 -28.7
v -9.5 0.2 -28.8
v -9.4 0.2 -28.8
v -10.5 0.2 -29
v -10.4 0.2 -29
v -10.3 0.2 -29
v -9.5 0.2 -29
v -9.4 0.2 -29
v -8.7 0.2 -29
v -8.5 0.2 -29
v -10.3 0.2 -29.1
v -10.2 0.2 -29.1
v -9.6 0.2 -29.1
v -9.5 0.2 -29.1
v -9.3 0.2 -29.1
v -10.3 0.2 -29.3
v -10.2 0.2 -29.3
v -9.6 0.2 -29.3
v -9.5 0.2 -29.3
v -9.4 0.2 -29.3
v -9.1 0.2 -29.3
v -8.9 0.2 -29.3
v -10.3 0.2 -29.4
v -10.2 0.2 -29.4
v -9.9 0.2 -29.4
v -9.8 0.2 -29.4
v -9.5 0.2 -29.4
v -9.4 0.2 -29.4
v -9.3 0.2 -29.4
v -8.9 0.2 -29.4
v -10.2 0.2 -29.5
v -9.9 0.2 -29.5
v -9.8 0.2 -29.5
v -9.5 0.2 -29.5
v -9.4 0.2 -29.5
v -9.3 0.2 -29.5
v -8.9 0.2 -29.5
v -8.8 0.2 -29.5
v -9.5 0.2 -29.6
v -9.4 0.2 -29.6
v -8.8 0.2 -29.6
v -8.7 0.2 -29.6
v -9.6 0.2 -29.7
v -9.5 0.2 -29.7
v -10.5 0.2 -29.8
v -10.3 0.2 -29.8
v -9.9 0.2 -29.8
v -9.7 0.2 -29.8
v -8.7 0.2 -29.8
v -8.6 0.2 -29.8
v -8.5 0.2 -29.8
v -9.6 0.2 -30
v -9.5 0.2 -30
v -9.5 0.2 -30.1
v -9.4 0.2 -30.1
v -8.8 0.2 -30.1
v -8.7 0.2 -30.1
v -10.3 0.2 -30.2
v -9.9 0.2 -30.2
v -9.7 0.2 -30.2
v -8.8 0.2 -30.2
v -8.7 0.2 -30.2
v -9.5 0.2 -30.3
v -9.4 0.2 -30.3
v -9.9 0.2 -30.4
v -9.5 0.2 -30.4
v -10.1 0.3 -28.4
v -9.7 0.3 -28.4
v -10.2 0.3 -28.5
v -10.1 0.3 -28.5
v -9.7 0.3 -28.5
v -9.6 0.3 -28.5
v -10.3 0.3 -28.6
v -10.2 0.3 -28.6
v -10.1 0.3 -28.6
v -9.7 0.3 -28.6
v -9.6 0.3 -28.6
v -9.5 0.3 -28.6
v -10.4 0.3 -28.7
v -10.3 0.3 -28.7
v -10.2 0.3 -28.7
v -10.1 0.3 -28.7
v -9.8 0.3 -28.7
v -9.7 0.3 -28.7
v -9.8 0.3 -28.8
v -9.7 0.3 -28.8
v -9.6 0.3 -28.8
v -9.5 0.3 -28.8
v -9.4 0.3 -28.8
v -10.4 0.3 -29
v -10.3 0.3 -29
v -10.2 0.3 -29
v -10.1 0.3 -29
v -9.6 0.3 -29
v -9.5 0.3 -29
v -9.4 0.3 -29
v -10.3 0.3 -29.1
v -10.2 0.3 -29.1
v -10.1 0.3 -29.1
v -10 0.3 -29.1
v -9.7 0.3 -29.1
v -9.6 0.3 -29.1
v -9.5 0.3 -29.1
v -10.3 0.3 -29.3
v -10.2 0.3 -29.3
v -10.1 0.3 -29.3
v -10 0.3 -29.3
v -9.9 0.3 -29.3
v -9.8 0.3 -29.3
v -9.7 0.3 -29.3
v -9.6 0.3 -29.3
v -9.5 0.3 -29.3
v -9.4 0.3 -29.3
v -10.3 0.3 -29.4
v -10.2 0.3 -29.4
v -10.1 0.3 -29.4
v -9.9 0.3 -29.4
v -9.8 0.3 -29.4
v -9.5 0.3 -29.4
v -9.4 0.3 -29.4
v -9.3 0.3 -29.4
v -8.9 0.3 -29.4
v -10.2 0.3 -29.5
v -9.9 0.3 -29.5
v -9.8 0.3 -29.5
v -9.5 0.3 -29.5
v -9.4 0.3 -29.5
v -9.3 0.3 -29.5
v -8.9 0.3 -29.5
v -8.8 0.3 -29.5
v -9.5 0.3 -29.6
v -9.4 0.3 -29.6
v -9.3 0.3 -29.6
v -8.9 0.3 -29.6
v -8.8 0.3 -29.6
v -8.7 0.3 -29.6
v -9.6 0.3 -29.7
v -9.5 0.3 -29.7
v -9.4 0.3 -29.7
v -9.3 0.3 -29.7
v -9 0.3 -29.7
v -8.9 0.3 -29.7
v -9 0.3 -29.8
v -8.9 0.3 -29.8
v -8.8 0.3 -29.8
v -8.7 0.3 -29.8
v -8.6 0.3 -29.8
v -9.6 0.3 -30
v -9.5 0.3 -30
v -9.4 0.3 -30
v -9.3 0.3 -30
v -8.8 0.3 -30
v -8.7 0.3 -30
v -8.6 0.3 -30
v -9.5 0.3 -30.1
v -9.4 0.3 -30.1
v -9.3 0.3 -30.1
v -9.2 0.3 -30.1
v -8.9 0.3 -30.1
v -8.8 0.3 -30.1
v -8.7 0.3 -30.1
v -9.5 0.3 -30.3
v -9.4 0.3 -30.3
v -9.3 0.3 -30.3
v -9.2 0.3 -30.3
v -9.1 0.3 -30.3
v -9 0.3 -30.3
v -8.9 0.3 -30.3
v -8.8 0.3 -30.3
v -8.7 0.3 -30.3
v -8.6 0.3 -30.3
v -9.5 0.3 -30.4
v -9.4 0.3 -30.4
v -9.3 0.3 -30.4
v -9.1 0.3 -30.4
v -9 0.3 -30.4
v -8.7 0.3 -30.4
v -8.6 0.3 -30.4
v -9.4 0.3 -30.5
v -9.1 0.3 -30.5
v -9 0.3 -30.5
v -8.7 0.3 -30.5

# faces
f 3/1/1 2/1/1 1/1/1
f 4/1/1 2/1/1 3/1/1
f 7/2/1 6/2/1 5/2/1
f 8/2/1 6/2/1 7/2/1
f 13/1/1 10/1/1 9/1/1
f 14/1/1 10/1/1 13/1/1
f 15/1/1 10/1/1 14/1/1
f 19/1/1 12/1/1 11/1/1
f 20/1/1 12/1/1 19/1/1
f 21/2/1 14/2/1 13/2/1
f 22/2/1 14/2/1 21/2/1
f 23/2/1 16/2/1 15/2/1
f 24/2/1 16/2/1 23/2/1
f 25/2/1 18/2/1 17/2/1
f 26/2/1 18/2/1 25/2/1
f 33/2/1 28/2/1 27/2/1
f 34/2/1 28/2/1 33/2/1
f 35/2/1 30/2/1 29/2/1
f 36/2/1 30/2/1 35/2/1
f 37/2/1 32/2/1 31/2/1
f 38/2/1 32/2/1 37/2/1
f 41/2/1 40/2/1 39/2/1
f 42/2/1 40/2/1 41/2/1
f 47/1/1 44/1/1 43/1/1
f 48/1/1 44/1/1 47/1/1
f 49/1/1 44/1/1 48/1/1
f 50/1/1 46/1/1 45/1/1
f 51/1/1 46/1/1 50/1/1
f 54/2/1 53/2/1 52/2/1
f 55/2/1 53/2/1 54/2/1
f 58/2/1 57/2/1 56/2/1
f 59/2/1 57/2/1 58/2/1
f 66/2/1 61/2/1 60/2/1
f 67/2/1 61/2/1 66/2/1
f 68/2/1 63/2/1 62/2/1
f 69/2/1 63/2/1 68/2/1
f 70/2/1 65/2/1 64/2/1
f 71/2/1 65/2/1 70/2/1
f 78/2/1 73/2/1 72/2/1
f 79/2/1 73/2/1 78/2/1
f 80/2/1 75/2/1 74/2/1
f 81/2/1 75/2/1 80/2/1
f 82/2/1 77/2/1 76/2/1
f 83/2/1 77/2/1 82/2/1
f 86/2/1 85/2/1 84/2/1
f 87/2/1 85/2/1 86/2/1
f 90/2/1 89/2/1 88/2/1
f 91/2/1 89/2/1 90/2/1
f 92/2/2 93/2/2 94/2/2
f 94/2/2 93/2/2 95/2/2
f 96/2/2 97/2/2 98/2/2
f 98/2/2 97/2/2 99/2/2
f 100/2/2 101/2/2 104/2/2
f 104/2/2 101/2/2 105/2/2
f 102/2/2 103/2/2 106/2/2
f 106/2/2 103/2/2 107/2/2
f 108/2/2 109/2/2 114/2/2
f 114/2/2 109/2/2 115/2/2
f 110/2/2 111/2/2 116/2/2
f 116/2/2 111/2/2 117/2/2
f 112/2/2 113/2/2 118/2/2
f 118/2/2 113/2/2 119/2/2
f 120/2/2 121/2/2 124/2/2
f 124/2/2 121/2/2 125/2/2
f 122/2/2 123/2/2 126/2/2
f 126/2/2 123/2/2 127/2/2
f 128/1/2 129/1/2 132/1/2
f 132/1/2 129/1/2 133/1/2
f 130/1/2 131/1/2 134/1/2
f 134/1/2 131/1/2 135/1/2
f 135/1/2 131/1/2 136/1/2
f 136/2/2 137/2/2 138/2/2
f 138/2/2 137/2/2 139/2/2
f 140/2/2 141/2/2 142/2/2
f 142/2/2 141/2/2 143/2/2
f 144/2/2 145/2/2 149/2/2
f 149/2/2 145/2/2 150/2/2
f 147/2/2 148/2/2 151/2/2
f 146/2/2 147/2/2 151/2/2
f 151/2/2 148/2/2 152/2/2
f 153/1/2 154/1/2 157/1/2
f 157/1/2 154/1/2 158/1/2
f 155/1/2 156/1/2 160/1/2
f 160/1/2 156/1/2 161/1/2
f 161/1/2 156/1/2 162/1/2
f 162/1/2 156/1/2 163/1/2
f 159/2/2 160/2/2 166/2/2
f 166/2/2 160/2/2 167/2/2
f 161/2/2 162/2/2 168/2/2
f 168/2/2 162/2/2 169/2/2
f 164/2/2 165/2/2 170/2/2
f 170/2/2 165/2/2 171/2/2
f 172/2/2 173/2/2 176/2/2
f 176/2/2 173/2/2 177/2/2
f 174/2/2 175/2/2 178/2/2
f 178/2/2 175/2/2 179/2/2
f 180/1/2 181/1/2 182/1/2
f 182/1/2 181/1/2 183/1/2
f 187/2/3 185/2/3 184/2/3
f 188/2/3 185/2/3 187/2/3
f 188/1/3 187/1/3 186/1/3
f 189/2/3 185/2/3 188/2/3
f 190/1/3 188/1/3 186/1/3
f 191/1/3 188/1/3 190/1/3
f 194/2/3 193/2/3 192/2/3
f 195/2/3 193/2/3 194/2/3
f 198/2/3 197/2/3 196/2/3
f 199/2/3 197/2/3 198/2/3
f 203/1/3 201/1/3 200/1/3
f 203/2/3 202/2/3 201/2/3
f 204/2/3 202/2/3 203/2/3
f 205/1/3 203/1/3 200/1/3
f 206/1/3 205/1/3 200/1/3
f 207/1/3 205/1/3 206/1/3
f 210/2/3 209/2/3 208/2/3
f 211/2/3 209/2/3 210/2/3
f 214/1/3 213/1/3 212/1/3
f 215/1/3 213/1/3 214/1/3
f 218/2/3 217/2/3 216/2/3
f 219/2/3 217/2/3 218/2/3
f 222/2/3 221/2/3 220/2/3
f 223/2/3 221/2/3 222/2/3
f 226/1/3 225/1/3 224/1/3
f 227/1/3 226/1/3 224/1/3
f 228/1/3 226/1/3 227/1/3
f 231/1/3 230/1/3 229/1/3
f 232/1/3 230/1/3 231/1/3
f 235/2/3 234/2/3 233/2/3
f 236/2/3 234/2/3 235/2/3
f 239/4/3 238/4/3 237/4/3
f 240/4/3 238/4/3 239/4/3
f 241/2/3 240/2/3 239/2/3
f 242/2/3 240/2/3 241/2/3
f 245/2/3 244/2/3 243/2/3
f 246/2/3 244/2/3 245/2/3
f 249/2/3 248/2/3 247/2/3
f 250/2/3 248/2/3 249/2/3
f 253/2/3 252/2/3 251/2/3
f 254/2/3 252/2/3 253/2/3
f 257/2/3 256/2/3 255/2/3
f 258/2/3 256/2/3 257/2/3
f 261/2/3 260/2/3 259/2/3
f 262/2/3 260/2/3 261/2/3
f 265/2/3 264/2/3 263/2/3
f 266/2/3 264/2/3 265/2/3
f 269/2/3 268/2/3 267/2/3
f 270/2/3 268/2/3 269/2/3
f 273/2/3 272/2/3 271/2/3
f 274/2/3 272/2/3 273/2/3
f 277/4/3 276/4/3 275/4/3
f 278/4/3 276/4/3 277/4/3
f 279/2/3 278/2/3 277/2/3
f 280/2/3 278/2/3 279/2/3
f 281/2/4 282/2/4 283/2/4
f 283/2/4 282/2/4 284/2/4
f 285/2/4 286/2/4 287/2/4
f 287/2/4 286/2/4 288/2/4
f 289/2/4 290/2/4 291/2/4
f 291/2/4 290/2/4 292/2/4
f 293/2/4 294/2/4 295/2/4
f 295/2/4 294/2/4 296/2/4
f 297/2/4 298/2/4 299/2/4
f 299/2/4 298/2/4 300/2/4
f 301/2/4 302/2/4 303/2/4
f 303/2/4 302/2/4 304/2/4
f 305/2/4 306/2/4 307/2/4
f 307/2/4 306/2/4 308/2/4
f 309/2/4 310/2/4 311/2/4
f 311/2/4 310/2/4 312/2/4
f 313/2/4 314/2/4 315/2/4
f 315/2/4 314/2/4 316/2/4
f 317/1/4 318/1/4 319/1/4
f 319/1/4 318/1/4 320/1/4
f 321/1/4 322/1/4 323/1/4
f 321/1/4 323/1/4 324/1/4
f 324/1/4 323/1/4 325/1/4
f 326/2/4 327/2/4 328/2/4
f 328/2/4 327/2/4 329/2/4
f 330/2/4 331/2/4 332/2/4
f 332/2/4 331/2/4 333/2/4
f 334/2/4 335/2/4 336/2/4
f 336/2/4 335/2/4 337/2/4
f 338/2/4 339/2/4 340/2/4
f 340/2/4 339/2/4 341/2/4
f 342/1/4 343/1/4 344/1/4
f 344/1/4 343/1/4 345/1/4
f 346/1/4 347/1/4 348/1/4
f 346/1/4 348/1/4 349/1/4
f 346/1/4 349/1/4 350/1/4
f 350/1/4 349/1/4 351/1/4
f 352/1/4 353/1/4 354/1/4
f 352/1/4 354/1/4 356/1/4
f 354/2/4 355/2/4 356/2/4
f 356/2/4 355/2/4 357/2/4
f 352/1/4 356/1/4 358/1/4
f 358/1/4 356/1/4 359/1/4
f 359/2/4 360/2/4 361/2/4
f 361/2/4 360/2/4 362/2/4
f 363/2/4 364/2/4 365/2/4
f 365/2/4 364/2/4 366/2/4
f 367/2/4 368/2/4 369/2/4
f 369/2/4 368/2/4 370/2/4
f 371/2/4 372/2/4 373/2/4
f 373/2/4 372/2/4 374/2/4
f 377/1/5 376/1/5 375/1/5
f 378/1/5 376/1/5 377/1/5
f 380/1/5 377/1/5 375/1/5
f 381/1/5 376/1/5 378/1/5
f 382/1/5 376/1/5 381/1/5
f 383/1/5 376/1/5 382/1/5
f 385/1/5 383/1/5 382/1/5
f 385/1/5 384/1/5 383/1/5
f 386/1/5 384/1/5 385/1/5
f 388/1/5 380/1/5 379/1/5
f 389/3/5 378/3/5 377/3/5
f 389/1/5 377/1/5 380/1/5
f 389/1/5 380/1/5 388/1/5
f 390/1/5 381/1/5 378/1/5
f 390/3/5 378/3/5 389/3/5
f 391/1/5 384/1/5 386/1/5
f 393/1/5 381/1/5 390/1/5
f 393/1/5 388/1/5 387/1/5
f 393/1/5 389/1/5 388/1/5
f 393/1/5 390/1/5 389/1/5
f 393/3/5 382/3/5 381/3/5
f 394/1/5 385/1/5 382/1/5
f 394/3/5 382/3/5 393/3/5
f 395/3/5 386/3/5 385/3/5
f 395/1/5 385/1/5 394/1/5
f 395/1/5 394/1/5 393/1/5
f 396/1/5 392/1/5 391/1/5
f 396/3/5 386/3/5 395/3/5
f 396/1/5 391/1/5 386/1/5
f 397/1/5 395/1/5 393/1/5
f 397/1/5 393/1/5 387/1/5
f 397/1/5 396/1/5 395/1/5
f 398/1/5 396/1/5 397/1/5
f 399/1/5 396/1/5 398/1/5
f 400/1/5 396/1/5 399/1/5
f 401/1/5 392/1/5 396/1/5
f 401/1/5 396/1/5 400/1/5
f 402/1/5 392/1/5 401/1/5
f 403/1/5 399/1/5 398/1/5
f 404/3/5 400/3/5 399/3/5
f 404/1/5 399/1/5 403/1/5
f 405/1/5 401/1/5 400/1/5
f 405/3/5 400/3/5 404/3/5
f 406/1/5 401/1/5 405/1/5
f 407/1/5 401/1/5 406/1/5
f 408/1/5 405/1/5 404/1/5
f 408/1/5 406/1/5 405/1/5
f 409/1/5 406/1/5 408/1/5
f 413/2/5 411/2/5 410/2/5
f 414/2/5 411/2/5 413/2/5
f 415/2/5 413/2/5 412/2/5
f 416/4/5 414/4/5 413/4/5
f 416/2/5 413/2/5 415/2/5
f 417/4/5 414/4/5 416/4/5
f 420/2/5 419/2/5 418/2/5
f 421/2/5 419/2/5 420/2/5
f 424/2/5 423/2/5 422/2/5
f 425/2/5 423/2/5 424/2/5
f 429/4/5 427/4/5 426/4/5
f 430/4/5 427/4/5 429/4/5
f 431/2/5 428/2/5 427/2/5
f 431/4/5 427/4/5 430/4/5
f 432/2/5 428/2/5 431/2/5
f 436/2/5 430/2/5 429/2/5
f 437/4/5 431/4/5 430/4/5
f 437/4/5 432/4/5 431/4/5
f 437/2/5 430/2/5 436/2/5
f 437/4/5 433/4/5 432/4/5
f 438/2/5 434/2/5 433/2/5
f 438/4/5 433/4/5 437/4/5
f 439/2/5 434/2/5 438/2/5
f 440/2/5 436/2/5 435/2/5
f 441/2/5 436/2/5 440/2/5
f 442/2/5 438/2/5 437/2/5
f 443/2/5 438/2/5 442/2/5
f 444/1/6 445/1/6 446/1/6
f 446/1/6 445/1/6 447/1/6
f 447/1/6 445/1/6 448/1/6
f 448/1/6 445/1/6 449/1/6
f 449/1/6 445/1/6 450/1/6
f 450/1/6 445/1/6 451/1/6
f 451/1/6 452/1/6 453/1/6
f 450/1/6 451/1/6 453/1/6
f 453/1/6 452/1/6 454/1/6
f 449/3/6 450/3/6 455/3/6
f 455/3/6 450/3/6 456/3/6
f 456/3/6 450/3/6 461/3/6
f 454/1/6 452/1/6 462/1/6
f 458/1/6 459/1/6 464/1/6
f 457/1/6 458/1/6 464/1/6
f 460/3/6 461/3/6 467/3/6
f 450/1/6 453/1/6 468/1/6
f 461/3/6 450/3/6 468/3/6
f 467/3/6 461/3/6 468/3/6
f 464/1/6 465/1/6 469/1/6
f 457/1/6 464/1/6 469/1/6
f 469/1/6 465/1/6 470/1/6
f 466/1/6 467/1/6 471/1/6
f 467/1/6 468/1/6 471/1/6
f 471/1/6 468/1/6 472/1/6
f 472/1/6 468/1/6 473/1/6
f 468/1/6 453/1/6 474/1/6
f 473/1/6 468/1/6 474/1/6
f 453/3/6 454/3/6 474/3/6
f 462/1/6 463/1/6 475/1/6
f 474/3/6 454/3/6 475/3/6
f 454/1/6 462/1/6 475/1/6
f 457/1/6 469/1/6 476/1/6
f 474/1/6 475/1/6 481/1/6
f 473/1/6 474/1/6 481/1/6
f 481/1/6 475/1/6 482/1/6
f 475/1/6 463/1/6 483/1/6
f 482/1/6 475/1/6 483/1/6
f 476/1/6 477/1/6 484/1/6
f 478/1/6 479/1/6 485/1/6
f 485/1/6 479/1/6 486/1/6
f 481/1/6 482/1/6 487/1/6
f 480/1/6 481/1/6 487/1/6
f 487/1/6 482/1/6 488/1/6
f 488/1/6 482/1/6 489/1/6
f 483/1/6 463/1/6 490/1/6
f 490/1/6 463/1/6 491/1/6
f 485/1/6 486/1/6 492/1/6
f 484/1/6 485/1/6 492/1/6
f 487/1/6 488/1/6 492/1/6
f 486/1/6 487/1/6 492/1/6
f 492/1/6 488/1/6 493/1/6
f 491/1/6 463/1/6 494/1/6
f 494/1/6 463/1/6 495/1/6
f 484/1/6 492/1/6 496/1/6
f 496/1/6 492/1/6 497/1/6
f 476/1/6 484/1/6 498/1/6
f 457/1/6 476/1/6 498/1/6
f 484/1/6 496/1/6 498/1/6
f 498/1/6 496/1/6 499/1/6
f 499/1/6 496/1/6 500/1/6
f 500/1/6 496/1/6 501/1/6
f 495/1/6 463/1/6 502/1/6
f 502/1/6 463/1/6 503/1/6
f 503/1/6 463/1/6 504/1/6
f 501/1/6 496/1/6 505/1/6
f 505/1/6 506/1/6 507/1/6
f 499/1/6 500/1/6 511/1/6
f 500/3/6 501/3/6 512/3/6
f 511/1/6 500/1/6 512/1/6
f 501/1/6 505/1/6 513/1/6
f 512/3/6 501/3/6 513/3/6
f 505/1/6 507/1/6 513/1/6
f 507/1/6 508/1/6 513/1/6
f 509/1/6 510/1/6 514/1/6
f 514/1/6 510/1/6 515/1/6
f 513/1/6 508/1/6 516/1/6
f 512/1/6 513/1/6 516/1/6
f 516/1/6 508/1/6 517/1/6
f 512/1/6 516/1/6 518/1/6
f 518/1/6 516/1/6 519/1/6
f 520/2/6 521/2/6 523/2/6
f 523/2/6 521/2/6 524/2/6
f 522/2/6 523/2/6 527/2/6
f 523/4/6 524/4/6 528/4/6
f 527/2/6 523/2/6 528/2/6
f 524/2/6 525/2/6 529/2/6
f 528/4/6 524/4/6 529/4/6
f 529/2/6 525/2/6 530/2/6
f 526/2/6 527/2/6 533/2/6
f 527/5/6 528/5/6 534/5/6
f 533/2/6 527/2/6 534/2/6
f 528/4/6 529/4/6 535/4/6
f 534/5/6 528/5/6 535/5/6
f 529/4/6 530/4/6 535/4/6
f 535/4/6 530/4/6 536/4/6
f 536/4/6 530/4/6 537/4/6
f 534/4/6 535/4/6 538/4/6
f 535/4/6 536/4/6 538/4/6
f 536/5/6 537/5/6 538/5/6
f 537/4/6 530/4/6 539/4/6
f 538/5/6 537/5/6 539/5/6
f 530/2/6 531/2/6 540/2/6
f 539/4/6 530/4/6 540/4/6
f 540/2/6 531/2/6 541/2/6
f 532/2/6 533/2/6 543/2/6
f 533/5/6 534/5/6 544/5/6
f 543/2/6 533/2/6 544/2/6
f 538/4/6 539/4/6 545/4/6
f 544/5/6 534/5/6 545/5/6
f 534/4/6 538/4/6 545/4/6
f 540/4/6 541/4/6 545/4/6
f 539/4/6 540/4/6 545/4/6
f 545/4/6 541/4/6 546/4/6
f 546/4/6 541/4/6 547/4/6
f 541/2/6 542/2/6 548/2/6
f 547/4/6 541/4/6 548/4/6
f 548/2/6 542/2/6 549/2/6
f 544/2/6 545/2/6 550/2/6
f 545/5/6 546/5/6 551/5/6
f 550/2/6 545/2/6 551/2/6
f 546/4/6 547/4/6 552/4/6
f 551/5/6 546/5/6 552/5/6
f 552/4/6 547/4/6 553/4/6
f 553/4/6 547/4/6 554/4/6
f 547/2/6 548/2/6 555/2/6
f 554/4/6 547/4/6 555/4/6
f 555/2/6 548/2/6 556/2/6
f 551/2/6 552/2/6 558/2/6
f 552/5/6 553/5/6 559/5/6
f 558/2/6 552/2/6 559/2/6
f 553/4/6 554/4/6 560/4/6
f 559/5/6 553/5/6 560/5/6
f 560/4/6 554/4/6 561/4/6
f 561/4/6 554/4/6 562/4/6
f 554/2/6 555/2/6 563/2/6
f 562/4/6 554/4/6 563/4/6
f 563/2/6 555/2/6 564/2/6
f 557/2/6 558/2/6 567/2/6
f 558/5/6 559/5/6 568/5/6
f 567/2/6 558/2/6 568/2/6
f 559/4/6 560/4/6 569/4/6
f 568/5/6 559/5/6 569/5/6
f 560/4/6 561/4/6 569/4/6
f 561/2/6 562/2/6 570/2/6
f 569/4/6 561/4/6 570/4/6
f 564/4/6 565/4/6 571/4/6
f 570/2/6 562/2/6 571/2/6
f 563/4/6 564/4/6 571/4/6
f 562/4/6 563/4/6 571/4/6
f 565/2/6 566/2/6 572/2/6
f 571/4/6 565/4/6 572/4/6
f 572/2/6 566/2/6 573/2/6
f 569/2/6 570/2/6 576/2/6
f 568/2/6 569/2/6 576/2/6
f 576/2/6 570/2/6 577/2/6
f 571/2/6 572/2/6 578/2/6
f 578/2/6 572/2/6 579/2/6
f 574/2/6 575/2/6 581/2/6
f 581/2/6 575/2/6 582/2/6
f 580/2/6 581/2/6 585/2/6
f 581/4/6 582/4/6 586/4/6
f 585/2/6 581/2/6 586/2/6
f 582/2/6 583/2/6 587/2/6
f 586/4/6 582/4/6 587/4/6
f 587/2/6 583/2/6 588/2/6
f 584/2/6 585/2/6 591/2/6
f 585/5/6 586/5/6 592/5/6
f 591/2/6 585/2/6 592/2/6
f 586/4/6 587/4/6 593/4/6
f 592/5/6 586/5/6 593/5/6
f 587/4/6 588/4/6 593/4/6
f 593/4/6 588/4/6 594/4/6
f 594/4/6 588/4/6 595/4/6
f 592/4/6 593/4/6 596/4/6
f 593/4/6 594/4/6 596/4/6
f 594/5/6 595/5/6 596/5/6
f 595/4/6 588/4/6 597/4/6
f 596/5/6 595/5/6 597/5/6
f 588/2/6 589/2/6 598/2/6
f 597/4/6 588/4/6 598/4/6
f 598/2/6 589/2/6 599/2/6
f 590/2/6 591/2/6 601/2/6
f 591/5/6 592/5/6 602/5/6
f 601/2/6 591/2/6 602/2/6
f 596/4/6 597/4/6 603/4/6
f 602/5/6 592/5/6 603/5/6
f 592/4/6 596/4/6 603/4/6
f 598/4/6 599/4/6 603/4/6
f 597/4/6 598/4/6 603/4/6
f 603/4/6 599/4/6 604/4/6
f 604/4/6 599/4/6 605/4/6
f 599/2/6 600/2/6 606/2/6
f 605/4/6 599/4/6 606/4/6
f 606/2/6 600/2/6 607/2/6
f 602/2/6 603/2/6 608/2/6
f 603/5/6 604/5/6 609/5/6
f 608/2/6 603/2/6 609/2/6
f 604/4/6 605/4/6 610/4/6
f 609/5/6 604/5/6 610/5/6
f 610/4/6 605/4/6 611/4/6
f 611/4/6 605/4/6 612/4/6
f 605/2/6 606/2/6 613/2/6
f 612/4/6 605/4/6 613/4/6
f 613/2/6 606/2/6 614/2/6
f 609/2/6 610/2/6 616/2/6
f 610/5/6 611/5/6 617/5/6
f 616/2/6 610/2/6 617/2/6
f 611/4/6 612/4/6 618/4/6
f 617/5/6 611/5/6 618/5/6
f 618/4/6 612/4/6 619/4/6
f 619/4/6 612/4/6 620/4/6
f 612/2/6 613/2/6 621/2/6
f 620/4/6 612/4/6 621/4/6
f 621/2/6 613/2/6 622/2/6
f 615/2/6 616/2/6 625/2/6
f 616/5/6 617/5/6 626/5/6
f 625/2/6 616/2/6 626/2/6
f 617/4/6 618/4/6 627/4/6
f 626/5/6 617/5/6 627/5/6
f 618/4/6 619/4/6 627/4/6
f 619/2/6 620/2/6 628/2/6
f 627/4/6 619/4/6 628/4/6
f 622/4/6 623/4/6 629/4/6
f 628/2/6 620/2/6 629/2/6
f 621/4/6 622/4/6 629/4/6
f 620/4/6 621/4/6 629/4/6
f 623/2/6 624/2/6 630/2/6
f 629/4/6 623/4/6 630/4/6
f 630/2/6 624/2/6 631/2/6
f 627/2/6 628/2/6 632/2/6
f 626/2/6 627/2/6 632/2/6
f 632/2/6 628/2/6 633/2/6
f 629/2/6 630/2/6 634/2/6
f 634/2/6 630/2/6 635/2/6
