# MagicaVoxel @ Ephtracy

# group
o flour

# material
mtllib m.vox-0-flour.mtl
usemtl palette

# normals
vn -1 0 0
vn 1 0 0
vn 0 0 1
vn 0 0 -1
vn 0 -1 0
vn 0 1 0

# texcoords
vt 0.283203 0.5
vt 0.287109 0.5
vt 0.291016 0.5
vt 0.318359 0.5
vt 0.333984 0.5

# verts
v -26.4 0.4 12.6
v -26.4 0.4 11.1
v -26.4 1 12.7
v -26.4 1 12.6
v -26.4 1 11.1
v -26.4 1 11
v -26.4 2.8 12.7
v -26.4 2.8 11
v -26 0 12.5
v -26 0 11.2
v -26 0.4 12.7
v -26 0.4 12.6
v -26 0.4 12.5
v -26 0.4 11.2
v -26 0.4 11.1
v -26 0.4 11
v -26 1 12.7
v -26 1 12.6
v -26 1 11.1
v -26 1 11
v -26 2.8 12.2
v -26 2.8 11.5
v -26 3.1 12.2
v -26 3.1 11.5
v -25.6 0 12.7
v -25.6 0 12.5
v -25.6 0 11.2
v -25.6 0 11
v -25.6 0.4 13
v -25.6 0.4 12.7
v -25.6 0.4 12.5
v -25.6 0.4 11.2
v -25.6 0.4 11
v -25.6 0.4 10.7
v -25.6 1 13
v -25.6 1 12.7
v -25.6 1 11
v -25.6 1 10.7
v -25.6 2.8 13
v -25.6 2.8 12.7
v -25.6 2.8 12.5
v -25.6 2.8 12.2
v -25.6 2.8 11.5
v -25.6 2.8 11.2
v -25.6 2.8 11
v -25.6 2.8 10.7
v -25.6 3.1 12.5
v -25.6 3.1 12.2
v -25.6 3.1 11.5
v -25.6 3.1 11.2
v -25.2 2.8 12.7
v -25.2 2.8 12.5
v -25.2 2.8 11.2
v -25.2 2.8 11
v -25.2 3.1 12.7
v -25.2 3.1 12.5
v -25.2 3.1 11.2
v -25.2 3.1 11
v -24 2.8 12.7
v -24 2.8 12.5
v -24 2.8 11.2
v -24 2.8 11.1
v -24 2.8 11
v -24 2.9 12.7
v -24 2.9 12.6
v -24 3.1 12.7
v -24 3.1 12.6
v -24 3.1 12.5
v -24 3.1 11.2
v -24 3.1 11.1
v -24 3.1 11
v -23.6 0 12.7
v -23.6 0 12.5
v -23.6 0 11.2
v -23.6 0 11
v -23.6 0.4 13
v -23.6 0.4 12.7
v -23.6 0.4 12.5
v -23.6 0.4 11.2
v -23.6 0.4 11
v -23.6 0.4 10.7
v -23.6 1 13
v -23.6 1 12.7
v -23.6 1 11
v -23.6 1 10.7
v -23.6 2.8 13
v -23.6 2.8 12.7
v -23.6 2.8 12.5
v -23.6 2.8 12.2
v -23.6 2.8 11.5
v -23.6 2.8 11.2
v -23.6 2.8 11
v -23.6 2.8 10.7
v -23.6 3 12.2
v -23.6 3.1 12.5
v -23.6 3.1 12.2
v -23.6 3.1 11.5
v -23.6 3.1 11.2
v -23.2 0 12.5
v -23.2 0 11.2
v -23.2 0.4 12.7
v -23.2 0.4 12.6
v -23.2 0.4 12.5
v -23.2 0.4 11.2
v -23.2 0.4 11
v -23.2 1 12.7
v -23.2 1 12.6
v -23.2 1 11.2
v -23.2 1 11
v -23.2 2.8 12.2
v -23.2 2.8 11.5
v -23.2 3.1 12.2
v -23.2 3.1 11.5
v -22.8 0.4 12.6
v -22.8 0.4 11.2
v -22.8 1 12.7
v -22.8 1 12.6
v -22.8 1 11.2
v -22.8 1 11
v -22.8 2.8 12.7
v -22.8 2.8 11
v -25.6 0.4 13
v -25.6 1 13
v -25.6 2.8 13
v -25.5 1.8 13
v -25.5 1.9 13
v -25.5 2.1 13
v -25.5 2.2 13
v -25.4 1.6 13
v -25.4 1.8 13
v -25.4 1.9 13
v -25.4 2.1 13
v -25.4 2.2 13
v -25.4 2.3 13
v -25.3 1.7 13
v -25.3 1.8 13
v -25.3 1.9 13
v -25.3 2.1 13
v -25.3 2.2 13
v -25.3 2.3 13
v -25.2 1.4 13
v -25.2 1.6 13
v -25.2 1.7 13
v -25.2 1.9 13
v -25.2 2.1 13
v -25.2 2.2 13
v -25.1 1.3 13
v -25.1 1.4 13
v -25.1 1.6 13
v -25.1 1.7 13
v -25.1 1.9 13
v -25.1 2.1 13
v -25.1 2.2 13
v -25 1.2 13
v -25 1.3 13
v -25 1.4 13
v -25 1.5 13
v -25 1.6 13
v -25 1.7 13
v -25 1.8 13
v -25 1.9 13
v -25 2 13
v -25 2.1 13
v -25 2.2 13
v -24.9 1.7 13
v -24.9 1.8 13
v -24.9 1.9 13
v -24.9 2 13
v -24.9 2.1 13
v -24.8 1.4 13
v -24.8 1.5 13
v -24.8 1.6 13
v -24.8 1.9 13
v -24.7 1.1 13
v -24.7 1.2 13
v -24.7 1.3 13
v -24.7 1.5 13
v -24.7 1.6 13
v -24.7 1.8 13
v -24.7 1.9 13
v -24.7 2 13
v -24.6 1.1 13
v -24.6 1.2 13
v -24.6 1.4 13
v -24.6 1.6 13
v -24.6 1.8 13
v -24.6 1.9 13
v -24.5 1.6 13
v -24.5 1.8 13
v -24.4 1.1 13
v -24.4 1.2 13
v -24.4 1.4 13
v -24.3 1 13
v -24.3 1.1 13
v -24.3 1.2 13
v -24.2 0.9 13
v -24.2 1 13
v -24.2 1.1 13
v -24.1 0.8 13
v -24.1 0.9 13
v -24.1 1 13
v -24 0.8 13
v -24 0.9 13
v -23.6 0.4 13
v -23.6 1 13
v -23.6 2.8 13
v -26.4 1 12.7
v -26.4 2.8 12.7
v -26 0.4 12.7
v -26 1 12.7
v -25.6 0 12.7
v -25.6 0.4 12.7
v -25.6 1 12.7
v -25.6 2.8 12.7
v -25.2 2.8 12.7
v -25.2 3.1 12.7
v -25.1 2.8 12.7
v -25.1 3.1 12.7
v -24.3 2.9 12.7
v -24.3 3.1 12.7
v -24 2.8 12.7
v -24 2.9 12.7
v -24 3.1 12.7
v -23.6 0 12.7
v -23.6 0.4 12.7
v -23.6 1 12.7
v -23.6 2.8 12.7
v -23.2 0.4 12.7
v -23.2 1 12.7
v -22.8 1 12.7
v -22.8 2.8 12.7
v -26.4 0.4 12.6
v -26.4 1 12.6
v -26 0.4 12.6
v -26 1 12.6
v -23.2 0.4 12.6
v -23.2 1 12.6
v -22.8 0.4 12.6
v -22.8 1 12.6
v -26 0 12.5
v -26 0.4 12.5
v -25.6 0 12.5
v -25.6 0.4 12.5
v -25.6 2.8 12.5
v -25.6 3.1 12.5
v -25.5 2.8 12.5
v -25.5 3.1 12.5
v -25.2 2.8 12.5
v -25.2 3.1 12.5
v -24 2.8 12.5
v -24 3.1 12.5
v -23.6 0 12.5
v -23.6 0.4 12.5
v -23.6 2.8 12.5
v -23.6 3.1 12.5
v -23.2 0 12.5
v -23.2 0.4 12.5
v -26 2.8 12.2
v -26 3.1 12.2
v -25.6 2.8 12.2
v -25.6 3.1 12.2
v -23.6 2.8 12.2
v -23.6 3 12.2
v -23.6 3.1 12.2
v -23.4 2.8 12.2
v -23.4 3 12.2
v -23.2 2.8 12.2
v -23.2 3.1 12.2
v -26 2.8 11.5
v -26 3.1 11.5
v -25.6 2.8 11.5
v -25.6 3.1 11.5
v -23.6 2.8 11.5
v -23.6 3.1 11.5
v -23.2 2.8 11.5
v -23.2 3.1 11.5
v -26 0 11.2
v -26 0.4 11.2
v -25.6 0 11.2
v -25.6 0.4 11.2
v -25.6 2.8 11.2
v -25.6 3.1 11.2
v -25.2 2.8 11.2
v -25.2 3.1 11.2
v -24 2.8 11.2
v -24 3.1 11.2
v -23.6 0 11.2
v -23.6 0.4 11.2
v -23.6 2.8 11.2
v -23.6 3.1 11.2
v -23.2 0 11.2
v -23.2 0.4 11.2
v -23.2 1 11.2
v -22.8 0.4 11.2
v -22.8 1 11.2
v -26.4 0.4 11.1
v -26.4 1 11.1
v -26 0.4 11.1
v -26 1 11.1
v -26.4 1 11
v -26.4 2.8 11
v -26 0.4 11
v -26 1 11
v -25.6 0 11
v -25.6 0.4 11
v -25.6 1 11
v -25.6 2.8 11
v -25.2 2.8 11
v -25.2 3.1 11
v -24.1 2.8 11
v -24.1 3.1 11
v -24 2.8 11
v -24 3.1 11
v -23.6 0 11
v -23.6 0.4 11
v -23.6 1 11
v -23.6 2.8 11
v -23.2 0.4 11
v -23.2 1 11
v -22.8 1 11
v -22.8 2.8 11
v -25.6 0.4 10.7
v -25.6 1 10.7
v -25.6 2.8 10.7
v -25.5 1.8 10.7
v -25.5 1.9 10.7
v -25.5 2.1 10.7
v -25.5 2.2 10.7
v -25.4 1.6 10.7
v -25.4 1.8 10.7
v -25.4 1.9 10.7
v -25.4 2.1 10.7
v -25.4 2.2 10.7
v -25.4 2.3 10.7
v -25.3 1.7 10.7
v -25.3 1.8 10.7
v -25.3 1.9 10.7
v -25.3 2.1 10.7
v -25.3 2.2 10.7
v -25.3 2.3 10.7
v -25.2 1.4 10.7
v -25.2 1.6 10.7
v -25.2 1.7 10.7
v -25.2 1.9 10.7
v -25.2 2.1 10.7
v -25.2 2.2 10.7
v -25.1 1.3 10.7
v -25.1 1.4 10.7
v -25.1 1.6 10.7
v -25.1 1.7 10.7
v -25.1 1.9 10.7
v -25.1 2.1 10.7
v -25.1 2.2 10.7
v -25 1.2 10.7
v -25 1.3 10.7
v -25 1.4 10.7
v -25 1.5 10.7
v -25 1.6 10.7
v -25 1.7 10.7
v -25 1.8 10.7
v -25 1.9 10.7
v -25 2 10.7
v -25 2.1 10.7
v -25 2.2 10.7
v -24.9 1.7 10.7
v -24.9 1.8 10.7
v -24.9 1.9 10.7
v -24.9 2 10.7
v -24.9 2.1 10.7
v -24.8 1.4 10.7
v -24.8 1.5 10.7
v -24.8 1.6 10.7
v -24.8 1.9 10.7
v -24.7 1.1 10.7
v -24.7 1.2 10.7
v -24.7 1.3 10.7
v -24.7 1.5 10.7
v -24.7 1.6 10.7
v -24.7 1.8 10.7
v -24.7 1.9 10.7
v -24.7 2 10.7
v -24.6 1.1 10.7
v -24.6 1.2 10.7
v -24.6 1.4 10.7
v -24.6 1.6 10.7
v -24.6 1.8 10.7
v -24.6 1.9 10.7
v -24.5 1.6 10.7
v -24.5 1.8 10.7
v -24.4 1.1 10.7
v -24.4 1.2 10.7
v -24.4 1.4 10.7
v -24.3 1 10.7
v -24.3 1.1 10.7
v -24.3 1.2 10.7
v -24.2 0.9 10.7
v -24.2 1 10.7
v -24.2 1.1 10.7
v -24.1 0.8 10.7
v -24.1 0.9 10.7
v -24.1 1 10.7
v -24 0.8 10.7
v -24 0.9 10.7
v -23.6 0.4 10.7
v -23.6 1 10.7
v -23.6 2.8 10.7
v -25.6 0 12.7
v -23.6 0 12.7
v -26 0 12.5
v -25.6 0 12.5
v -23.6 0 12.5
v -23.2 0 12.5
v -26 0 11.2
v -25.6 0 11.2
v -23.6 0 11.2
v -23.2 0 11.2
v -25.6 0 11
v -23.6 0 11
v -25.6 0.4 13
v -23.6 0.4 13
v -26 0.4 12.7
v -25.6 0.4 12.7
v -23.6 0.4 12.7
v -23.2 0.4 12.7
v -26.4 0.4 12.6
v -26 0.4 12.6
v -23.2 0.4 12.6
v -22.8 0.4 12.6
v -26 0.4 12.5
v -25.6 0.4 12.5
v -23.6 0.4 12.5
v -23.2 0.4 12.5
v -26 0.4 11.2
v -25.6 0.4 11.2
v -23.6 0.4 11.2
v -23.2 0.4 11.2
v -22.8 0.4 11.2
v -26.4 0.4 11.1
v -26 0.4 11.1
v -26 0.4 11
v -25.6 0.4 11
v -23.6 0.4 11
v -23.2 0.4 11
v -25.6 0.4 10.7
v -23.6 0.4 10.7
v -26.4 1 12.7
v -26 1 12.7
v -23.2 1 12.7
v -22.8 1 12.7
v -26.4 1 12.6
v -26 1 12.6
v -23.2 1 12.6
v -22.8 1 12.6
v -23.2 1 11.2
v -22.8 1 11.2
v -26.4 1 11.1
v -26 1 11.1
v -26.4 1 11
v -26 1 11
v -23.2 1 11
v -22.8 1 11
v -25.6 2.8 13
v -23.6 2.8 13
v -26.4 2.8 12.7
v -25.6 2.8 12.7
v -25.2 2.8 12.7
v -25.1 2.8 12.7
v -24 2.8 12.7
v -23.6 2.8 12.7
v -22.8 2.8 12.7
v -25.6 2.8 12.5
v -25.5 2.8 12.5
v -25.2 2.8 12.5
v -24 2.8 12.5
v -23.6 2.8 12.5
v -26 2.8 12.2
v -25.6 2.8 12.2
v -23.6 2.8 12.2
v -23.4 2.8 12.2
v -23.2 2.8 12.2
v -26 2.8 11.5
v -25.6 2.8 11.5
v -23.6 2.8 11.5
v -23.2 2.8 11.5
v -25.6 2.8 11.2
v -25.2 2.8 11.2
v -24 2.8 11.2
v -23.6 2.8 11.2
v -24 2.8 11.1
v -26.4 2.8 11
v -25.6 2.8 11
v -25.2 2.8 11
v -24.1 2.8 11
v -24 2.8 11
v -23.6 2.8 11
v -22.8 2.8 11
v -25.6 2.8 10.7
v -23.6 2.8 10.7
v -25.2 3.1 12.7
v -25.1 3.1 12.7
v -24.3 3.1 12.7
v -24 3.1 12.7
v -24.3 3.1 12.6
v -24 3.1 12.6
v -25.6 3.1 12.5
v -25.5 3.1 12.5
v -25.2 3.1 12.5
v -25.1 3.1 12.5
v -24 3.1 12.5
v -23.6 3.1 12.5
v -26 3.1 12.2
v -25.6 3.1 12.2
v -25.5 3.1 12.2
v -23.6 3.1 12.2
v -23.2 3.1 12.2
v -25.1 3.1 12.1
v -24.9 3.1 12.1
v -24.1 3.1 12
v -23.7 3.1 12
v -25.7 3.1 11.9
v -25.5 3.1 11.9
v -25.1 3.1 11.8
v -24.9 3.1 11.8
v -24.1 3.1 11.7
v -23.7 3.1 11.7
v -25.7 3.1 11.6
v -25.5 3.1 11.6
v -26 3.1 11.5
v -25.6 3.1 11.5
v -23.6 3.1 11.5
v -23.2 3.1 11.5
v -24.9 3.1 11.4
v -24.7 3.1 11.4
v -25.6 3.1 11.2
v -25.2 3.1 11.2
v -24.9 3.1 11.2
v -24.7 3.1 11.2
v -24 3.1 11.2
v -23.6 3.1 11.2
v -24.1 3.1 11.1
v -24 3.1 11.1
v -25.2 3.1 11
v -24.1 3.1 11
v -24 3.1 11

# faces
f 4/5/1 2/5/1 1/5/1
f 5/5/1 2/5/1 4/5/1
f 7/4/1 4/4/1 3/4/1
f 7/4/1 6/4/1 5/4/1
f 7/4/1 5/4/1 4/4/1
f 8/4/1 6/4/1 7/4/1
f 13/5/1 10/5/1 9/5/1
f 14/5/1 10/5/1 13/5/1
f 17/5/1 12/5/1 11/5/1
f 18/5/1 12/5/1 17/5/1
f 19/5/1 16/5/1 15/5/1
f 20/5/1 16/5/1 19/5/1
f 23/1/1 22/1/1 21/1/1
f 24/1/1 22/1/1 23/1/1
f 30/5/1 26/5/1 25/5/1
f 31/5/1 26/5/1 30/5/1
f 32/5/1 28/5/1 27/5/1
f 33/5/1 28/5/1 32/5/1
f 35/5/1 30/5/1 29/5/1
f 36/5/1 30/5/1 35/5/1
f 37/5/1 34/5/1 33/5/1
f 38/5/1 34/5/1 37/5/1
f 39/4/1 36/4/1 35/4/1
f 40/4/1 36/4/1 39/4/1
f 45/4/1 38/4/1 37/4/1
f 46/4/1 38/4/1 45/4/1
f 47/3/1 42/3/1 41/3/1
f 48/3/1 42/3/1 47/3/1
f 49/1/1 44/1/1 43/1/1
f 50/1/1 44/1/1 49/1/1
f 55/3/1 52/3/1 51/3/1
f 56/3/1 52/3/1 55/3/1
f 57/1/1 54/1/1 53/1/1
f 58/1/1 54/1/1 57/1/1
f 59/1/2 60/1/2 64/1/2
f 64/1/2 60/1/2 65/1/2
f 64/3/2 65/3/2 66/3/2
f 65/1/2 60/1/2 67/1/2
f 66/3/2 65/3/2 67/3/2
f 67/1/2 60/1/2 68/1/2
f 61/1/2 62/1/2 69/1/2
f 62/3/2 63/3/2 70/3/2
f 69/1/2 62/1/2 70/1/2
f 70/3/2 63/3/2 71/3/2
f 72/5/2 73/5/2 77/5/2
f 77/5/2 73/5/2 78/5/2
f 74/5/2 75/5/2 79/5/2
f 79/5/2 75/5/2 80/5/2
f 76/5/2 77/5/2 82/5/2
f 82/5/2 77/5/2 83/5/2
f 80/5/2 81/5/2 84/5/2
f 84/5/2 81/5/2 85/5/2
f 82/4/2 83/4/2 86/4/2
f 86/4/2 83/4/2 87/4/2
f 84/4/2 85/4/2 92/4/2
f 92/4/2 85/4/2 93/4/2
f 88/1/2 89/1/2 94/1/2
f 88/1/2 94/1/2 95/1/2
f 95/1/2 94/1/2 96/1/2
f 90/1/2 91/1/2 97/1/2
f 97/1/2 91/1/2 98/1/2
f 99/5/2 100/5/2 103/5/2
f 103/5/2 100/5/2 104/5/2
f 101/5/2 102/5/2 106/5/2
f 106/5/2 102/5/2 107/5/2
f 104/5/2 105/5/2 108/5/2
f 108/5/2 105/5/2 109/5/2
f 110/1/2 111/1/2 112/1/2
f 112/1/2 111/1/2 113/1/2
f 114/5/2 115/5/2 117/5/2
f 117/5/2 115/5/2 118/5/2
f 116/4/2 117/4/2 120/4/2
f 118/4/2 119/4/2 120/4/2
f 117/4/2 118/4/2 120/4/2
f 120/4/2 119/4/2 121/4/2
f 125/4/3 124/4/3 123/4/3
f 126/4/3 124/4/3 125/4/3
f 127/4/3 124/4/3 126/4/3
f 128/4/3 124/4/3 127/4/3
f 129/4/3 125/4/3 123/4/3
f 130/2/3 126/2/3 125/2/3
f 130/4/3 125/4/3 129/4/3
f 131/4/3 127/4/3 126/4/3
f 131/2/3 126/2/3 130/2/3
f 132/2/3 128/2/3 127/2/3
f 132/4/3 127/4/3 131/4/3
f 133/4/3 124/4/3 128/4/3
f 133/2/3 128/2/3 132/2/3
f 134/4/3 124/4/3 133/4/3
f 135/2/3 130/2/3 129/2/3
f 136/4/3 131/4/3 130/4/3
f 136/2/3 130/2/3 135/2/3
f 137/2/3 132/2/3 131/2/3
f 137/4/3 131/4/3 136/4/3
f 138/4/3 133/4/3 132/4/3
f 138/2/3 132/2/3 137/2/3
f 139/2/3 134/2/3 133/2/3
f 139/4/3 133/4/3 138/4/3
f 140/4/3 124/4/3 134/4/3
f 140/2/3 134/2/3 139/2/3
f 141/4/3 129/4/3 123/4/3
f 142/2/3 135/2/3 129/2/3
f 142/4/3 129/4/3 141/4/3
f 143/4/3 136/4/3 135/4/3
f 143/2/3 135/2/3 142/2/3
f 144/2/3 137/2/3 136/2/3
f 144/4/3 138/4/3 137/4/3
f 145/2/3 139/2/3 138/2/3
f 145/4/3 138/4/3 144/4/3
f 146/4/3 140/4/3 139/4/3
f 146/2/3 139/2/3 145/2/3
f 147/4/3 141/4/3 123/4/3
f 148/2/3 142/2/3 141/2/3
f 148/4/3 141/4/3 147/4/3
f 149/4/3 143/4/3 142/4/3
f 149/2/3 142/2/3 148/2/3
f 150/4/3 136/4/3 143/4/3
f 150/4/3 143/4/3 149/4/3
f 151/2/3 144/2/3 136/2/3
f 151/2/3 145/2/3 144/2/3
f 152/4/3 146/4/3 145/4/3
f 152/2/3 145/2/3 151/2/3
f 153/4/3 140/4/3 146/4/3
f 153/4/3 146/4/3 152/4/3
f 154/4/3 147/4/3 123/4/3
f 155/2/3 148/2/3 147/2/3
f 155/4/3 147/4/3 154/4/3
f 156/4/3 149/4/3 148/4/3
f 156/2/3 148/2/3 155/2/3
f 157/4/3 149/4/3 156/4/3
f 158/2/3 150/2/3 149/2/3
f 158/4/3 149/4/3 157/4/3
f 159/4/3 136/4/3 150/4/3
f 159/2/3 150/2/3 158/2/3
f 160/2/3 151/2/3 136/2/3
f 160/4/3 136/4/3 159/4/3
f 161/4/3 152/4/3 151/4/3
f 161/2/3 151/2/3 160/2/3
f 162/4/3 152/4/3 161/4/3
f 163/2/3 153/2/3 152/2/3
f 163/4/3 152/4/3 162/4/3
f 164/4/3 140/4/3 153/4/3
f 164/2/3 153/2/3 163/2/3
f 165/2/3 160/2/3 159/2/3
f 165/4/3 159/4/3 158/4/3
f 166/4/3 162/4/3 161/4/3
f 166/2/3 160/2/3 165/2/3
f 166/4/3 161/4/3 160/4/3
f 167/4/3 162/4/3 166/4/3
f 168/2/3 163/2/3 162/2/3
f 168/4/3 162/4/3 167/4/3
f 169/4/3 164/4/3 163/4/3
f 169/2/3 163/2/3 168/2/3
f 170/4/3 157/4/3 156/4/3
f 170/4/3 156/4/3 155/4/3
f 171/2/3 158/2/3 157/2/3
f 171/4/3 157/4/3 170/4/3
f 172/4/3 167/4/3 166/4/3
f 172/2/3 158/2/3 171/2/3
f 172/4/3 165/4/3 158/4/3
f 172/4/3 166/4/3 165/4/3
f 173/2/3 168/2/3 167/2/3
f 173/4/3 167/4/3 172/4/3
f 174/4/3 154/4/3 123/4/3
f 175/2/3 155/2/3 154/2/3
f 175/4/3 154/4/3 174/4/3
f 176/4/3 170/4/3 155/4/3
f 176/2/3 155/2/3 175/2/3
f 177/2/3 171/2/3 170/2/3
f 177/4/3 172/4/3 171/4/3
f 178/2/3 173/2/3 172/2/3
f 178/4/3 172/4/3 177/4/3
f 179/2/3 173/2/3 178/2/3
f 180/2/3 168/2/3 173/2/3
f 180/2/3 173/2/3 179/2/3
f 181/4/3 169/4/3 168/4/3
f 181/2/3 168/2/3 180/2/3
f 182/2/3 175/2/3 174/2/3
f 182/4/3 174/4/3 123/4/3
f 183/4/3 176/4/3 175/4/3
f 183/2/3 175/2/3 182/2/3
f 184/4/3 170/4/3 176/4/3
f 184/4/3 176/4/3 183/4/3
f 184/2/3 177/2/3 170/2/3
f 184/2/3 178/2/3 177/2/3
f 185/4/3 179/4/3 178/4/3
f 185/2/3 178/2/3 184/2/3
f 186/2/3 180/2/3 179/2/3
f 186/4/3 179/4/3 185/4/3
f 187/4/3 181/4/3 180/4/3
f 187/2/3 180/2/3 186/2/3
f 188/2/3 186/2/3 185/2/3
f 188/4/3 185/4/3 184/4/3
f 189/4/3 187/4/3 186/4/3
f 189/2/3 186/2/3 188/2/3
f 190/4/3 183/4/3 182/4/3
f 190/4/3 182/4/3 123/4/3
f 191/2/3 184/2/3 183/2/3
f 191/4/3 183/4/3 190/4/3
f 192/4/3 189/4/3 188/4/3
f 192/2/3 184/2/3 191/2/3
f 192/4/3 188/4/3 184/4/3
f 193/5/3 123/5/3 122/5/3
f 193/4/3 190/4/3 123/4/3
f 194/2/3 191/2/3 190/2/3
f 194/4/3 190/4/3 193/4/3
f 195/4/3 192/4/3 191/4/3
f 195/2/3 191/2/3 194/2/3
f 196/5/3 193/5/3 122/5/3
f 197/2/3 194/2/3 193/2/3
f 197/5/3 193/5/3 196/5/3
f 198/4/3 195/4/3 194/4/3
f 198/2/3 194/2/3 197/2/3
f 199/5/3 196/5/3 122/5/3
f 200/2/3 197/2/3 196/2/3
f 200/5/3 196/5/3 199/5/3
f 201/4/3 198/4/3 197/4/3
f 201/2/3 197/2/3 200/2/3
f 202/5/3 199/5/3 122/5/3
f 202/2/3 200/2/3 199/2/3
f 203/5/3 201/5/3 200/5/3
f 203/2/3 200/2/3 202/2/3
f 204/5/3 202/5/3 122/5/3
f 204/5/3 203/5/3 202/5/3
f 205/4/3 198/4/3 201/4/3
f 205/5/3 203/5/3 204/5/3
f 205/5/3 201/5/3 203/5/3
f 206/4/3 189/4/3 192/4/3
f 206/4/3 198/4/3 205/4/3
f 206/4/3 187/4/3 189/4/3
f 206/4/3 124/4/3 140/4/3
f 206/4/3 192/4/3 195/4/3
f 206/4/3 164/4/3 169/4/3
f 206/4/3 195/4/3 198/4/3
f 206/4/3 181/4/3 187/4/3
f 206/4/3 140/4/3 164/4/3
f 206/4/3 169/4/3 181/4/3
f 210/4/3 208/4/3 207/4/3
f 212/5/3 210/5/3 209/5/3
f 213/4/3 208/4/3 210/4/3
f 213/5/3 210/5/3 212/5/3
f 214/4/3 208/4/3 213/4/3
f 217/3/3 216/3/3 215/3/3
f 218/3/3 216/3/3 217/3/3
f 219/1/3 218/1/3 217/1/3
f 220/1/3 218/1/3 219/1/3
f 221/1/3 219/1/3 217/1/3
f 222/3/3 220/3/3 219/3/3
f 222/1/3 219/1/3 221/1/3
f 223/3/3 220/3/3 222/3/3
f 224/5/3 212/5/3 211/5/3
f 225/5/3 212/5/3 224/5/3
f 228/5/3 226/5/3 225/5/3
f 229/4/3 227/4/3 226/4/3
f 229/5/3 226/5/3 228/5/3
f 230/4/3 227/4/3 229/4/3
f 231/4/3 227/4/3 230/4/3
f 234/5/3 233/5/3 232/5/3
f 235/5/3 233/5/3 234/5/3
f 238/5/3 237/5/3 236/5/3
f 239/5/3 237/5/3 238/5/3
f 242/5/3 241/5/3 240/5/3
f 243/5/3 241/5/3 242/5/3
f 246/3/3 245/3/3 244/3/3
f 247/3/3 245/3/3 246/3/3
f 248/1/3 247/1/3 246/1/3
f 249/1/3 247/1/3 248/1/3
f 254/1/3 251/1/3 250/1/3
f 255/1/3 251/1/3 254/1/3
f 256/5/3 253/5/3 252/5/3
f 257/5/3 253/5/3 256/5/3
f 260/1/3 259/1/3 258/1/3
f 261/1/3 259/1/3 260/1/3
f 265/3/3 263/3/3 262/3/3
f 266/1/3 264/1/3 263/1/3
f 266/3/3 263/3/3 265/3/3
f 267/1/3 266/1/3 265/1/3
f 268/1/3 264/1/3 266/1/3
f 268/1/3 266/1/3 267/1/3
f 269/1/4 270/1/4 271/1/4
f 271/1/4 270/1/4 272/1/4
f 273/1/4 274/1/4 275/1/4
f 275/1/4 274/1/4 276/1/4
f 277/5/4 278/5/4 279/5/4
f 279/5/4 278/5/4 280/5/4
f 281/1/4 282/1/4 283/1/4
f 283/1/4 282/1/4 284/1/4
f 285/1/4 286/1/4 289/1/4
f 289/1/4 286/1/4 290/1/4
f 287/5/4 288/5/4 291/5/4
f 291/5/4 288/5/4 292/5/4
f 292/5/4 293/5/4 294/5/4
f 294/5/4 293/5/4 295/5/4
f 296/5/4 297/5/4 298/5/4
f 298/5/4 297/5/4 299/5/4
f 300/4/4 301/4/4 303/4/4
f 302/5/4 303/5/4 305/5/4
f 303/4/4 301/4/4 306/4/4
f 305/5/4 303/5/4 306/5/4
f 306/4/4 301/4/4 307/4/4
f 308/1/4 309/1/4 310/1/4
f 310/1/4 309/1/4 311/1/4
f 310/3/4 311/3/4 312/3/4
f 312/3/4 311/3/4 313/3/4
f 304/5/4 305/5/4 314/5/4
f 314/5/4 305/5/4 315/5/4
f 315/5/4 316/5/4 318/5/4
f 316/4/4 317/4/4 319/4/4
f 318/5/4 316/5/4 319/5/4
f 319/4/4 317/4/4 320/4/4
f 320/4/4 317/4/4 321/4/4
f 323/4/4 324/4/4 325/4/4
f 325/4/4 324/4/4 326/4/4
f 326/4/4 324/4/4 327/4/4
f 327/4/4 324/4/4 328/4/4
f 323/4/4 325/4/4 329/4/4
f 325/2/4 326/2/4 330/2/4
f 329/4/4 325/4/4 330/4/4
f 326/4/4 327/4/4 331/4/4
f 330/2/4 326/2/4 331/2/4
f 327/2/4 328/2/4 332/2/4
f 331/4/4 327/4/4 332/4/4
f 328/4/4 324/4/4 333/4/4
f 332/2/4 328/2/4 333/2/4
f 333/4/4 324/4/4 334/4/4
f 329/2/4 330/2/4 335/2/4
f 330/4/4 331/4/4 336/4/4
f 335/2/4 330/2/4 336/2/4
f 331/2/4 332/2/4 337/2/4
f 336/4/4 331/4/4 337/4/4
f 332/4/4 333/4/4 338/4/4
f 337/2/4 332/2/4 338/2/4
f 333/2/4 334/2/4 339/2/4
f 338/4/4 333/4/4 339/4/4
f 334/4/4 324/4/4 340/4/4
f 339/2/4 334/2/4 340/2/4
f 323/4/4 329/4/4 341/4/4
f 329/2/4 335/2/4 342/2/4
f 341/4/4 329/4/4 342/4/4
f 335/4/4 336/4/4 343/4/4
f 342/2/4 335/2/4 343/2/4
f 336/2/4 337/2/4 344/2/4
f 337/4/4 338/4/4 344/4/4
f 338/2/4 339/2/4 345/2/4
f 344/4/4 338/4/4 345/4/4
f 339/4/4 340/4/4 346/4/4
f 345/2/4 339/2/4 346/2/4
f 323/4/4 341/4/4 347/4/4
f 341/2/4 342/2/4 348/2/4
f 347/4/4 341/4/4 348/4/4
f 342/4/4 343/4/4 349/4/4
f 348/2/4 342/2/4 349/2/4
f 343/4/4 336/4/4 350/4/4
f 349/4/4 343/4/4 350/4/4
f 336/2/4 344/2/4 351/2/4
f 344/2/4 345/2/4 351/2/4
f 345/4/4 346/4/4 352/4/4
f 351/2/4 345/2/4 352/2/4
f 346/4/4 340/4/4 353/4/4
f 352/4/4 346/4/4 353/4/4
f 323/4/4 347/4/4 354/4/4
f 347/2/4 348/2/4 355/2/4
f 354/4/4 347/4/4 355/4/4
f 348/4/4 349/4/4 356/4/4
f 355/2/4 348/2/4 356/2/4
f 356/4/4 349/4/4 357/4/4
f 349/2/4 350/2/4 358/2/4
f 357/4/4 349/4/4 358/4/4
f 350/4/4 336/4/4 359/4/4
f 358/2/4 350/2/4 359/2/4
f 336/2/4 351/2/4 360/2/4
f 359/4/4 336/4/4 360/4/4
f 351/4/4 352/4/4 361/4/4
f 360/2/4 351/2/4 361/2/4
f 361/4/4 352/4/4 362/4/4
f 352/2/4 353/2/4 363/2/4
f 362/4/4 352/4/4 363/4/4
f 353/4/4 340/4/4 364/4/4
f 363/2/4 353/2/4 364/2/4
f 359/2/4 360/2/4 365/2/4
f 358/4/4 359/4/4 365/4/4
f 361/4/4 362/4/4 366/4/4
f 365/2/4 360/2/4 366/2/4
f 360/4/4 361/4/4 366/4/4
f 366/4/4 362/4/4 367/4/4
f 362/2/4 363/2/4 368/2/4
f 367/4/4 362/4/4 368/4/4
f 363/4/4 364/4/4 369/4/4
f 368/2/4 363/2/4 369/2/4
f 356/4/4 357/4/4 370/4/4
f 355/4/4 356/4/4 370/4/4
f 357/2/4 358/2/4 371/2/4
f 370/4/4 357/4/4 371/4/4
f 366/4/4 367/4/4 372/4/4
f 371/2/4 358/2/4 372/2/4
f 358/4/4 365/4/4 372/4/4
f 365/4/4 366/4/4 372/4/4
f 367/2/4 368/2/4 373/2/4
f 372/4/4 367/4/4 373/4/4
f 323/4/4 354/4/4 374/4/4
f 354/2/4 355/2/4 375/2/4
f 374/4/4 354/4/4 375/4/4
f 355/4/4 370/4/4 376/4/4
f 375/2/4 355/2/4 376/2/4
f 370/2/4 371/2/4 377/2/4
f 371/4/4 372/4/4 377/4/4
f 372/2/4 373/2/4 378/2/4
f 377/4/4 372/4/4 378/4/4
f 378/2/4 373/2/4 379/2/4
f 373/2/4 368/2/4 380/2/4
f 379/2/4 373/2/4 380/2/4
f 368/4/4 369/4/4 381/4/4
f 380/2/4 368/2/4 381/2/4
f 374/2/4 375/2/4 382/2/4
f 323/4/4 374/4/4 382/4/4
f 375/4/4 376/4/4 383/4/4
f 382/2/4 375/2/4 383/2/4
f 376/4/4 370/4/4 384/4/4
f 383/4/4 376/4/4 384/4/4
f 370/2/4 377/2/4 384/2/4
f 377/2/4 378/2/4 384/2/4
f 378/4/4 379/4/4 385/4/4
f 384/2/4 378/2/4 385/2/4
f 379/2/4 380/2/4 386/2/4
f 385/4/4 379/4/4 386/4/4
f 380/4/4 381/4/4 387/4/4
f 386/2/4 380/2/4 387/2/4
f 385/2/4 386/2/4 388/2/4
f 384/4/4 385/4/4 388/4/4
f 386/4/4 387/4/4 389/4/4
f 388/2/4 386/2/4 389/2/4
f 382/4/4 383/4/4 390/4/4
f 323/4/4 382/4/4 390/4/4
f 383/2/4 384/2/4 391/2/4
f 390/4/4 383/4/4 391/4/4
f 388/4/4 389/4/4 392/4/4
f 391/2/4 384/2/4 392/2/4
f 384/4/4 388/4/4 392/4/4
f 322/5/4 323/5/4 393/5/4
f 323/4/4 390/4/4 393/4/4
f 390/2/4 391/2/4 394/2/4
f 393/4/4 390/4/4 394/4/4
f 391/4/4 392/4/4 395/4/4
f 394/2/4 391/2/4 395/2/4
f 322/5/4 393/5/4 396/5/4
f 393/2/4 394/2/4 397/2/4
f 396/5/4 393/5/4 397/5/4
f 394/4/4 395/4/4 398/4/4
f 397/2/4 394/2/4 398/2/4
f 322/5/4 396/5/4 399/5/4
f 396/2/4 397/2/4 400/2/4
f 399/5/4 396/5/4 400/5/4
f 397/4/4 398/4/4 401/4/4
f 400/2/4 397/2/4 401/2/4
f 322/5/4 399/5/4 402/5/4
f 399/2/4 400/2/4 402/2/4
f 400/5/4 401/5/4 403/5/4
f 402/2/4 400/2/4 403/2/4
f 322/5/4 402/5/4 404/5/4
f 402/5/4 403/5/4 404/5/4
f 401/4/4 398/4/4 405/4/4
f 404/5/4 403/5/4 405/5/4
f 403/5/4 401/5/4 405/5/4
f 392/4/4 389/4/4 406/4/4
f 405/4/4 398/4/4 406/4/4
f 389/4/4 387/4/4 406/4/4
f 340/4/4 324/4/4 406/4/4
f 395/4/4 392/4/4 406/4/4
f 369/4/4 364/4/4 406/4/4
f 398/4/4 395/4/4 406/4/4
f 387/4/4 381/4/4 406/4/4
f 364/4/4 340/4/4 406/4/4
f 381/4/4 369/4/4 406/4/4
f 410/5/5 408/5/5 407/5/5
f 411/5/5 408/5/5 410/5/5
f 413/5/5 410/5/5 409/5/5
f 413/5/5 412/5/5 411/5/5
f 413/5/5 411/5/5 410/5/5
f 414/5/5 412/5/5 413/5/5
f 415/5/5 412/5/5 414/5/5
f 416/5/5 412/5/5 415/5/5
f 417/5/5 415/5/5 414/5/5
f 418/5/5 415/5/5 417/5/5
f 422/5/5 420/5/5 419/5/5
f 423/5/5 420/5/5 422/5/5
f 426/5/5 422/5/5 421/5/5
f 427/5/5 424/5/5 423/5/5
f 429/5/5 426/5/5 425/5/5
f 429/5/5 422/5/5 426/5/5
f 430/5/5 422/5/5 429/5/5
f 431/5/5 428/5/5 427/5/5
f 431/5/5 427/5/5 423/5/5
f 432/5/5 428/5/5 431/5/5
f 433/5/5 429/5/5 425/5/5
f 436/5/5 428/5/5 432/5/5
f 437/5/5 428/5/5 436/5/5
f 438/5/5 434/5/5 433/5/5
f 438/5/5 433/5/5 425/5/5
f 439/5/5 434/5/5 438/5/5
f 440/5/5 434/5/5 439/5/5
f 441/5/5 434/5/5 440/5/5
f 442/5/5 436/5/5 435/5/5
f 443/5/5 436/5/5 442/5/5
f 444/5/5 442/5/5 441/5/5
f 445/5/5 442/5/5 444/5/5
f 450/4/5 447/4/5 446/4/5
f 451/4/5 447/4/5 450/4/5
f 452/4/5 449/4/5 448/4/5
f 453/4/5 449/4/5 452/4/5
f 458/4/5 457/4/5 456/4/5
f 459/4/5 457/4/5 458/4/5
f 460/4/5 455/4/5 454/4/5
f 461/4/5 455/4/5 460/4/5
f 462/4/6 463/4/6 465/4/6
f 465/4/6 463/4/6 466/4/6
f 466/4/6 463/4/6 467/4/6
f 467/4/6 463/4/6 468/4/6
f 468/4/6 463/4/6 469/4/6
f 464/4/6 465/4/6 471/4/6
f 465/4/6 466/4/6 471/4/6
f 471/4/6 466/4/6 472/4/6
f 472/4/6 466/4/6 473/4/6
f 469/4/6 470/4/6 474/4/6
f 468/4/6 469/4/6 474/4/6
f 474/4/6 470/4/6 475/4/6
f 464/4/6 471/4/6 476/4/6
f 476/4/6 471/4/6 477/4/6
f 475/4/6 470/4/6 478/4/6
f 478/4/6 470/4/6 479/4/6
f 479/4/6 470/4/6 480/4/6
f 464/4/6 476/4/6 481/4/6
f 480/4/6 470/4/6 484/4/6
f 481/4/6 482/4/6 485/4/6
f 483/4/6 484/4/6 488/4/6
f 487/4/6 488/4/6 489/4/6
f 485/4/6 486/4/6 490/4/6
f 464/4/6 481/4/6 490/4/6
f 481/4/6 485/4/6 490/4/6
f 490/4/6 486/4/6 491/4/6
f 491/4/6 486/4/6 492/4/6
f 489/4/6 488/4/6 494/4/6
f 488/4/6 484/4/6 495/4/6
f 494/4/6 488/4/6 495/4/6
f 484/4/6 470/4/6 496/4/6
f 495/4/6 484/4/6 496/4/6
f 492/4/6 493/4/6 497/4/6
f 494/4/6 495/4/6 497/4/6
f 493/4/6 494/4/6 497/4/6
f 491/4/6 492/4/6 497/4/6
f 497/4/6 495/4/6 498/4/6
f 500/1/6 501/1/6 503/1/6
f 501/3/6 502/3/6 503/3/6
f 503/3/6 502/3/6 504/3/6
f 499/3/6 500/3/6 507/3/6
f 500/1/6 503/1/6 508/1/6
f 503/1/6 504/1/6 508/1/6
f 507/3/6 500/3/6 508/3/6
f 508/1/6 504/1/6 509/1/6
f 505/3/6 506/3/6 512/3/6
f 509/1/6 510/1/6 513/1/6
f 506/1/6 507/1/6 513/1/6
f 512/3/6 506/3/6 513/3/6
f 508/1/6 509/1/6 513/1/6
f 507/1/6 508/1/6 513/1/6
f 513/1/6 510/1/6 514/1/6
f 511/1/6 512/1/6 516/1/6
f 514/1/6 515/1/6 516/1/6
f 513/1/6 514/1/6 516/1/6
f 512/1/6 513/1/6 516/1/6
f 516/1/6 515/1/6 517/1/6
f 517/1/6 515/1/6 518/1/6
f 518/1/6 515/1/6 519/1/6
f 511/1/6 516/1/6 520/1/6
f 520/1/6 516/1/6 521/1/6
f 516/3/6 517/3/6 522/3/6
f 521/1/6 516/1/6 522/1/6
f 517/1/6 518/1/6 523/1/6
f 522/3/6 517/3/6 523/3/6
f 518/3/6 519/3/6 524/3/6
f 523/1/6 518/1/6 524/1/6
f 522/1/6 523/1/6 524/1/6
f 519/1/6 515/1/6 525/1/6
f 524/3/6 519/3/6 525/3/6
f 520/3/6 521/3/6 526/3/6
f 511/1/6 520/1/6 526/1/6
f 522/1/6 524/1/6 527/1/6
f 526/3/6 521/3/6 527/3/6
f 521/1/6 522/1/6 527/1/6
f 524/1/6 525/1/6 527/1/6
f 511/1/6 526/1/6 528/1/6
f 526/1/6 527/1/6 528/1/6
f 528/1/6 527/1/6 529/1/6
f 527/1/6 525/1/6 530/1/6
f 529/1/6 527/1/6 530/1/6
f 525/1/6 515/1/6 530/1/6
f 530/1/6 515/1/6 531/1/6
f 529/1/6 530/1/6 532/1/6
f 532/1/6 530/1/6 533/1/6
f 529/1/6 532/1/6 534/1/6
f 534/1/6 532/1/6 535/1/6
f 532/3/6 533/3/6 536/3/6
f 535/1/6 532/1/6 536/1/6
f 533/1/6 530/1/6 537/1/6
f 536/3/6 533/3/6 537/3/6
f 537/1/6 530/1/6 538/1/6
f 538/1/6 530/1/6 539/1/6
f 535/1/6 536/1/6 540/1/6
f 537/1/6 538/1/6 540/1/6
f 536/1/6 537/1/6 540/1/6
f 540/1/6 538/1/6 541/1/6
f 535/1/6 540/1/6 542/1/6
f 540/3/6 541/3/6 543/3/6
f 542/1/6 540/1/6 543/1/6
f 543/3/6 541/3/6 544/3/6
