# MagicaVoxel @ Ephtracy

# group
o z-donggeurangttaeng

# material
mtllib food.vox-7-z-donggeurangttaeng.mtl
usemtl palette

# normals
vn -1 0 0
vn 1 0 0
vn 0 0 1
vn 0 0 -1
vn 0 -1 0
vn 0 1 0

# texcoords
vt 0.189453 0.5
vt 0.193359 0.5

# verts
v -10.2 0.1 -11.4
v -10.2 0.1 -11.9
v -10.2 0.1 -12
v -10.2 0.1 -12.5
v -10.2 0.2 -11.5
v -10.2 0.2 -11.8
v -10.2 0.2 -12.1
v -10.2 0.2 -12.4
v -10.2 0.3 -11.4
v -10.2 0.3 -11.5
v -10.2 0.3 -11.8
v -10.2 0.3 -11.9
v -10.2 0.3 -12
v -10.2 0.3 -12.1
v -10.2 0.3 -12.4
v -10.2 0.3 -12.5
v -10.2 0.4 -11.5
v -10.2 0.4 -11.8
v -10.2 0.4 -12.1
v -10.2 0.4 -12.4
v -10.1 0.3 -11.4
v -10.1 0.3 -11.5
v -10.1 0.3 -11.8
v -10.1 0.3 -11.9
v -10.1 0.3 -12
v -10.1 0.3 -12.1
v -10.1 0.3 -12.4
v -10.1 0.3 -12.5
v -10.1 0.4 -11.5
v -10.1 0.4 -11.8
v -10.1 0.4 -12.1
v -10.1 0.4 -12.4
v -10.1 0.5 -11.4
v -10.1 0.5 -11.9
v -10.1 0.5 -12
v -10.1 0.5 -12.5
v -9.8 0.1 -11.4
v -9.8 0.1 -11.9
v -9.8 0.1 -12
v -9.8 0.1 -12.5
v -9.8 0.2 -11.5
v -9.8 0.2 -11.8
v -9.8 0.2 -12.1
v -9.8 0.2 -12.4
v -9.8 0.3 -11.4
v -9.8 0.3 -11.5
v -9.8 0.3 -11.8
v -9.8 0.3 -11.9
v -9.8 0.3 -12
v -9.8 0.3 -12.1
v -9.8 0.3 -12.4
v -9.8 0.3 -12.5
v -9.8 0.4 -11.5
v -9.8 0.4 -11.8
v -9.8 0.4 -12.1
v -9.8 0.4 -12.4
v -9.7 0.3 -11.4
v -9.7 0.3 -11.5
v -9.7 0.3 -11.8
v -9.7 0.3 -11.9
v -9.7 0.3 -12
v -9.7 0.3 -12.1
v -9.7 0.3 -12.4
v -9.7 0.3 -12.5
v -9.7 0.4 -11.5
v -9.7 0.4 -11.8
v -9.7 0.4 -12.1
v -9.7 0.4 -12.4
v -9.7 0.5 -11.4
v -9.7 0.5 -11.9
v -9.7 0.5 -12
v -9.7 0.5 -12.5
v -9.4 0.1 -11.4
v -9.4 0.1 -11.9
v -9.4 0.1 -12
v -9.4 0.1 -12.5
v -9.4 0.2 -11.5
v -9.4 0.2 -11.8
v -9.4 0.2 -12.1
v -9.4 0.2 -12.4
v -9.4 0.3 -11.4
v -9.4 0.3 -11.5
v -9.4 0.3 -11.8
v -9.4 0.3 -11.9
v -9.4 0.3 -12
v -9.4 0.3 -12.1
v -9.4 0.3 -12.4
v -9.4 0.3 -12.5
v -9.4 0.4 -11.5
v -9.4 0.4 -11.8
v -9.4 0.4 -12.1
v -9.4 0.4 -12.4
v -9.3 0.3 -11.4
v -9.3 0.3 -11.5
v -9.3 0.3 -11.8
v -9.3 0.3 -11.9
v -9.3 0.3 -12
v -9.3 0.3 -12.1
v -9.3 0.3 -12.4
v -9.3 0.3 -12.5
v -9.3 0.4 -11.5
v -9.3 0.4 -11.8
v -9.3 0.4 -12.1
v -9.3 0.4 -12.4
v -9.3 0.5 -11.4
v -9.3 0.5 -11.9
v -9.3 0.5 -12
v -9.3 0.5 -12.5
v -9 0.1 -11.4
v -9 0.1 -11.9
v -9 0.1 -12
v -9 0.1 -12.5
v -9 0.2 -11.5
v -9 0.2 -11.8
v -9 0.2 -12.1
v -9 0.2 -12.4
v -9 0.3 -11.4
v -9 0.3 -11.5
v -9 0.3 -11.8
v -9 0.3 -11.9
v -9 0.3 -12
v -9 0.3 -12.1
v -9 0.3 -12.4
v -9 0.3 -12.5
v -9 0.4 -11.5
v -9 0.4 -11.8
v -9 0.4 -12.1
v -9 0.4 -12.4
v -8.9 0.3 -11.4
v -8.9 0.3 -11.5
v -8.9 0.3 -11.8
v -8.9 0.3 -11.9
v -8.9 0.3 -12
v -8.9 0.3 -12.1
v -8.9 0.3 -12.4
v -8.9 0.3 -12.5
v -8.9 0.4 -11.5
v -8.9 0.4 -11.8
v -8.9 0.4 -12.1
v -8.9 0.4 -12.4
v -8.9 0.5 -11.4
v -8.9 0.5 -11.9
v -8.9 0.5 -12
v -8.9 0.5 -12.5
v -10 0.1 -11.4
v -10 0.1 -11.9
v -10 0.1 -12
v -10 0.1 -12.5
v -10 0.3 -11.5
v -10 0.3 -11.8
v -10 0.3 -12.1
v -10 0.3 -12.4
v -10 0.4 -11.5
v -10 0.4 -11.8
v -10 0.4 -12.1
v -10 0.4 -12.4
v -10 0.5 -11.4
v -10 0.5 -11.9
v -10 0.5 -12
v -10 0.5 -12.5
v -9.6 0.1 -11.4
v -9.6 0.1 -11.9
v -9.6 0.1 -12
v -9.6 0.1 -12.5
v -9.6 0.3 -11.5
v -9.6 0.3 -11.8
v -9.6 0.3 -12.1
v -9.6 0.3 -12.4
v -9.6 0.4 -11.5
v -9.6 0.4 -11.8
v -9.6 0.4 -12.1
v -9.6 0.4 -12.4
v -9.6 0.5 -11.4
v -9.6 0.5 -11.9
v -9.6 0.5 -12
v -9.6 0.5 -12.5
v -9.2 0.1 -11.4
v -9.2 0.1 -11.9
v -9.2 0.1 -12
v -9.2 0.1 -12.5
v -9.2 0.3 -11.5
v -9.2 0.3 -11.8
v -9.2 0.3 -12.1
v -9.2 0.3 -12.4
v -9.2 0.4 -11.5
v -9.2 0.4 -11.8
v -9.2 0.4 -12.1
v -9.2 0.4 -12.4
v -9.2 0.5 -11.4
v -9.2 0.5 -11.9
v -9.2 0.5 -12
v -9.2 0.5 -12.5
v -8.8 0.1 -11.4
v -8.8 0.1 -11.9
v -8.8 0.1 -12
v -8.8 0.1 -12.5
v -8.8 0.3 -11.5
v -8.8 0.3 -11.8
v -8.8 0.3 -12.1
v -8.8 0.3 -12.4
v -8.8 0.4 -11.5
v -8.8 0.4 -11.8
v -8.8 0.4 -12.1
v -8.8 0.4 -12.4
v -8.8 0.5 -11.4
v -8.8 0.5 -11.9
v -8.8 0.5 -12
v -8.8 0.5 -12.5
v -10.2 0.1 -11.4
v -10.2 0.3 -11.4
v -10.1 0.3 -11.4
v -10.1 0.5 -11.4
v -10 0.1 -11.4
v -10 0.5 -11.4
v -9.8 0.1 -11.4
v -9.8 0.3 -11.4
v -9.7 0.3 -11.4
v -9.7 0.5 -11.4
v -9.6 0.1 -11.4
v -9.6 0.5 -11.4
v -9.4 0.1 -11.4
v -9.4 0.3 -11.4
v -9.3 0.3 -11.4
v -9.3 0.5 -11.4
v -9.2 0.1 -11.4
v -9.2 0.5 -11.4
v -9 0.1 -11.4
v -9 0.3 -11.4
v -8.9 0.3 -11.4
v -8.9 0.5 -11.4
v -8.8 0.1 -11.4
v -8.8 0.5 -11.4
v -10.2 0.3 -11.5
v -10.2 0.4 -11.5
v -10.1 0.3 -11.5
v -10.1 0.4 -11.5
v -9.8 0.3 -11.5
v -9.8 0.4 -11.5
v -9.7 0.3 -11.5
v -9.7 0.4 -11.5
v -9.4 0.3 -11.5
v -9.4 0.4 -11.5
v -9.3 0.3 -11.5
v -9.3 0.4 -11.5
v -9 0.3 -11.5
v -9 0.4 -11.5
v -8.9 0.3 -11.5
v -8.9 0.4 -11.5
v -10.2 0.1 -12
v -10.2 0.3 -12
v -10.1 0.3 -12
v -10.1 0.5 -12
v -10 0.1 -12
v -10 0.5 -12
v -9.8 0.1 -12
v -9.8 0.3 -12
v -9.7 0.3 -12
v -9.7 0.5 -12
v -9.6 0.1 -12
v -9.6 0.5 -12
v -9.4 0.1 -12
v -9.4 0.3 -12
v -9.3 0.3 -12
v -9.3 0.5 -12
v -9.2 0.1 -12
v -9.2 0.5 -12
v -9 0.1 -12
v -9 0.3 -12
v -8.9 0.3 -12
v -8.9 0.5 -12
v -8.8 0.1 -12
v -8.8 0.5 -12
v -10.2 0.3 -12.1
v -10.2 0.4 -12.1
v -10.1 0.3 -12.1
v -10.1 0.4 -12.1
v -9.8 0.3 -12.1
v -9.8 0.4 -12.1
v -9.7 0.3 -12.1
v -9.7 0.4 -12.1
v -9.4 0.3 -12.1
v -9.4 0.4 -12.1
v -9.3 0.3 -12.1
v -9.3 0.4 -12.1
v -9 0.3 -12.1
v -9 0.4 -12.1
v -8.9 0.3 -12.1
v -8.9 0.4 -12.1
v -10.2 0.3 -11.8
v -10.2 0.4 -11.8
v -10.1 0.3 -11.8
v -10.1 0.4 -11.8
v -9.8 0.3 -11.8
v -9.8 0.4 -11.8
v -9.7 0.3 -11.8
v -9.7 0.4 -11.8
v -9.4 0.3 -11.8
v -9.4 0.4 -11.8
v -9.3 0.3 -11.8
v -9.3 0.4 -11.8
v -9 0.3 -11.8
v -9 0.4 -11.8
v -8.9 0.3 -11.8
v -8.9 0.4 -11.8
v -10.2 0.1 -11.9
v -10.2 0.3 -11.9
v -10.1 0.3 -11.9
v -10.1 0.5 -11.9
v -10 0.1 -11.9
v -10 0.5 -11.9
v -9.8 0.1 -11.9
v -9.8 0.3 -11.9
v -9.7 0.3 -11.9
v -9.7 0.5 -11.9
v -9.6 0.1 -11.9
v -9.6 0.5 -11.9
v -9.4 0.1 -11.9
v -9.4 0.3 -11.9
v -9.3 0.3 -11.9
v -9.3 0.5 -11.9
v -9.2 0.1 -11.9
v -9.2 0.5 -11.9
v -9 0.1 -11.9
v -9 0.3 -11.9
v -8.9 0.3 -11.9
v -8.9 0.5 -11.9
v -8.8 0.1 -11.9
v -8.8 0.5 -11.9
v -10.2 0.3 -12.4
v -10.2 0.4 -12.4
v -10.1 0.3 -12.4
v -10.1 0.4 -12.4
v -9.8 0.3 -12.4
v -9.8 0.4 -12.4
v -9.7 0.3 -12.4
v -9.7 0.4 -12.4
v -9.4 0.3 -12.4
v -9.4 0.4 -12.4
v -9.3 0.3 -12.4
v -9.3 0.4 -12.4
v -9 0.3 -12.4
v -9 0.4 -12.4
v -8.9 0.3 -12.4
v -8.9 0.4 -12.4
v -10.2 0.1 -12.5
v -10.2 0.3 -12.5
v -10.1 0.3 -12.5
v -10.1 0.5 -12.5
v -10 0.1 -12.5
v -10 0.5 -12.5
v -9.8 0.1 -12.5
v -9.8 0.3 -12.5
v -9.7 0.3 -12.5
v -9.7 0.5 -12.5
v -9.6 0.1 -12.5
v -9.6 0.5 -12.5
v -9.4 0.1 -12.5
v -9.4 0.3 -12.5
v -9.3 0.3 -12.5
v -9.3 0.5 -12.5
v -9.2 0.1 -12.5
v -9.2 0.5 -12.5
v -9 0.1 -12.5
v -9 0.3 -12.5
v -8.9 0.3 -12.5
v -8.9 0.5 -12.5
v -8.8 0.1 -12.5
v -8.8 0.5 -12.5
v -10.2 0.1 -11.4
v -10 0.1 -11.4
v -9.8 0.1 -11.4
v -9.6 0.1 -11.4
v -9.4 0.1 -11.4
v -9.2 0.1 -11.4
v -9 0.1 -11.4
v -8.8 0.1 -11.4
v -10.2 0.1 -11.9
v -10 0.1 -11.9
v -9.8 0.1 -11.9
v -9.6 0.1 -11.9
v -9.4 0.1 -11.9
v -9.2 0.1 -11.9
v -9 0.1 -11.9
v -8.8 0.1 -11.9
v -10.2 0.1 -12
v -10 0.1 -12
v -9.8 0.1 -12
v -9.6 0.1 -12
v -9.4 0.1 -12
v -9.2 0.1 -12
v -9 0.1 -12
v -8.8 0.1 -12
v -10.2 0.1 -12.5
v -10 0.1 -12.5
v -9.8 0.1 -12.5
v -9.6 0.1 -12.5
v -9.4 0.1 -12.5
v -9.2 0.1 -12.5
v -9 0.1 -12.5
v -8.8 0.1 -12.5
v -10.2 0.3 -11.4
v -10.1 0.3 -11.4
v -9.8 0.3 -11.4
v -9.7 0.3 -11.4
v -9.4 0.3 -11.4
v -9.3 0.3 -11.4
v -9 0.3 -11.4
v -8.9 0.3 -11.4
v -10.2 0.3 -11.5
v -10.1 0.3 -11.5
v -9.8 0.3 -11.5
v -9.7 0.3 -11.5
v -9.4 0.3 -11.5
v -9.3 0.3 -11.5
v -9 0.3 -11.5
v -8.9 0.3 -11.5
v -10.2 0.3 -11.8
v -10.1 0.3 -11.8
v -9.8 0.3 -11.8
v -9.7 0.3 -11.8
v -9.4 0.3 -11.8
v -9.3 0.3 -11.8
v -9 0.3 -11.8
v -8.9 0.3 -11.8
v -10.2 0.3 -11.9
v -10.1 0.3 -11.9
v -9.8 0.3 -11.9
v -9.7 0.3 -11.9
v -9.4 0.3 -11.9
v -9.3 0.3 -11.9
v -9 0.3 -11.9
v -8.9 0.3 -11.9
v -10.2 0.3 -12
v -10.1 0.3 -12
v -9.8 0.3 -12
v -9.7 0.3 -12
v -9.4 0.3 -12
v -9.3 0.3 -12
v -9 0.3 -12
v -8.9 0.3 -12
v -10.2 0.3 -12.1
v -10.1 0.3 -12.1
v -9.8 0.3 -12.1
v -9.7 0.3 -12.1
v -9.4 0.3 -12.1
v -9.3 0.3 -12.1
v -9 0.3 -12.1
v -8.9 0.3 -12.1
v -10.2 0.3 -12.4
v -10.1 0.3 -12.4
v -9.8 0.3 -12.4
v -9.7 0.3 -12.4
v -9.4 0.3 -12.4
v -9.3 0.3 -12.4
v -9 0.3 -12.4
v -8.9 0.3 -12.4
v -10.2 0.3 -12.5
v -10.1 0.3 -12.5
v -9.8 0.3 -12.5
v -9.7 0.3 -12.5
v -9.4 0.3 -12.5
v -9.3 0.3 -12.5
v -9 0.3 -12.5
v -8.9 0.3 -12.5
v -10.2 0.4 -11.5
v -10.1 0.4 -11.5
v -9.8 0.4 -11.5
v -9.7 0.4 -11.5
v -9.4 0.4 -11.5
v -9.3 0.4 -11.5
v -9 0.4 -11.5
v -8.9 0.4 -11.5
v -10.2 0.4 -11.8
v -10.1 0.4 -11.8
v -9.8 0.4 -11.8
v -9.7 0.4 -11.8
v -9.4 0.4 -11.8
v -9.3 0.4 -11.8
v -9 0.4 -11.8
v -8.9 0.4 -11.8
v -10.2 0.4 -12.1
v -10.1 0.4 -12.1
v -9.8 0.4 -12.1
v -9.7 0.4 -12.1
v -9.4 0.4 -12.1
v -9.3 0.4 -12.1
v -9 0.4 -12.1
v -8.9 0.4 -12.1
v -10.2 0.4 -12.4
v -10.1 0.4 -12.4
v -9.8 0.4 -12.4
v -9.7 0.4 -12.4
v -9.4 0.4 -12.4
v -9.3 0.4 -12.4
v -9 0.4 -12.4
v -8.9 0.4 -12.4
v -10.1 0.5 -11.4
v -10 0.5 -11.4
v -9.7 0.5 -11.4
v -9.6 0.5 -11.4
v -9.3 0.5 -11.4
v -9.2 0.5 -11.4
v -8.9 0.5 -11.4
v -8.8 0.5 -11.4
v -10.1 0.5 -11.9
v -10 0.5 -11.9
v -9.7 0.5 -11.9
v -9.6 0.5 -11.9
v -9.3 0.5 -11.9
v -9.2 0.5 -11.9
v -8.9 0.5 -11.9
v -8.8 0.5 -11.9
v -10.1 0.5 -12
v -10 0.5 -12
v -9.7 0.5 -12
v -9.6 0.5 -12
v -9.3 0.5 -12
v -9.2 0.5 -12
v -8.9 0.5 -12
v -8.8 0.5 -12
v -10.1 0.5 -12.5
v -10 0.5 -12.5
v -9.7 0.5 -12.5
v -9.6 0.5 -12.5
v -9.3 0.5 -12.5
v -9.2 0.5 -12.5
v -8.9 0.5 -12.5
v -8.8 0.5 -12.5

# faces
f 5/1/1 2/1/1 1/1/1
f 6/1/1 2/1/1 5/1/1
f 7/1/1 4/1/1 3/1/1
f 8/1/1 4/1/1 7/1/1
f 9/1/1 5/1/1 1/1/1
f 10/2/1 6/2/1 5/2/1
f 10/1/1 5/1/1 9/1/1
f 11/1/1 2/1/1 6/1/1
f 11/2/1 6/2/1 10/2/1
f 12/1/1 2/1/1 11/1/1
f 13/1/1 7/1/1 3/1/1
f 14/2/1 8/2/1 7/2/1
f 14/1/1 7/1/1 13/1/1
f 15/1/1 4/1/1 8/1/1
f 15/2/1 8/2/1 14/2/1
f 16/1/1 4/1/1 15/1/1
f 17/2/1 11/2/1 10/2/1
f 18/2/1 11/2/1 17/2/1
f 19/2/1 15/2/1 14/2/1
f 20/2/1 15/2/1 19/2/1
f 29/1/1 22/1/1 21/1/1
f 30/1/1 24/1/1 23/1/1
f 31/1/1 26/1/1 25/1/1
f 32/1/1 28/1/1 27/1/1
f 33/1/1 29/1/1 21/1/1
f 33/1/1 30/1/1 29/1/1
f 34/1/1 24/1/1 30/1/1
f 34/1/1 30/1/1 33/1/1
f 35/1/1 31/1/1 25/1/1
f 35/1/1 32/1/1 31/1/1
f 36/1/1 28/1/1 32/1/1
f 36/1/1 32/1/1 35/1/1
f 41/1/1 38/1/1 37/1/1
f 42/1/1 38/1/1 41/1/1
f 43/1/1 40/1/1 39/1/1
f 44/1/1 40/1/1 43/1/1
f 45/1/1 41/1/1 37/1/1
f 46/2/1 42/2/1 41/2/1
f 46/1/1 41/1/1 45/1/1
f 47/1/1 38/1/1 42/1/1
f 47/2/1 42/2/1 46/2/1
f 48/1/1 38/1/1 47/1/1
f 49/1/1 43/1/1 39/1/1
f 50/2/1 44/2/1 43/2/1
f 50/1/1 43/1/1 49/1/1
f 51/1/1 40/1/1 44/1/1
f 51/2/1 44/2/1 50/2/1
f 52/1/1 40/1/1 51/1/1
f 53/2/1 47/2/1 46/2/1
f 54/2/1 47/2/1 53/2/1
f 55/2/1 51/2/1 50/2/1
f 56/2/1 51/2/1 55/2/1
f 65/1/1 58/1/1 57/1/1
f 66/1/1 60/1/1 59/1/1
f 67/1/1 62/1/1 61/1/1
f 68/1/1 64/1/1 63/1/1
f 69/1/1 65/1/1 57/1/1
f 69/1/1 66/1/1 65/1/1
f 70/1/1 60/1/1 66/1/1
f 70/1/1 66/1/1 69/1/1
f 71/1/1 67/1/1 61/1/1
f 71/1/1 68/1/1 67/1/1
f 72/1/1 64/1/1 68/1/1
f 72/1/1 68/1/1 71/1/1
f 77/1/1 74/1/1 73/1/1
f 78/1/1 74/1/1 77/1/1
f 79/1/1 76/1/1 75/1/1
f 80/1/1 76/1/1 79/1/1
f 81/1/1 77/1/1 73/1/1
f 82/2/1 78/2/1 77/2/1
f 82/1/1 77/1/1 81/1/1
f 83/1/1 74/1/1 78/1/1
f 83/2/1 78/2/1 82/2/1
f 84/1/1 74/1/1 83/1/1
f 85/1/1 79/1/1 75/1/1
f 86/2/1 80/2/1 79/2/1
f 86/1/1 79/1/1 85/1/1
f 87/1/1 76/1/1 80/1/1
f 87/2/1 80/2/1 86/2/1
f 88/1/1 76/1/1 87/1/1
f 89/2/1 83/2/1 82/2/1
f 90/2/1 83/2/1 89/2/1
f 91/2/1 87/2/1 86/2/1
f 92/2/1 87/2/1 91/2/1
f 101/1/1 94/1/1 93/1/1
f 102/1/1 96/1/1 95/1/1
f 103/1/1 98/1/1 97/1/1
f 104/1/1 100/1/1 99/1/1
f 105/1/1 101/1/1 93/1/1
f 105/1/1 102/1/1 101/1/1
f 106/1/1 96/1/1 102/1/1
f 106/1/1 102/1/1 105/1/1
f 107/1/1 103/1/1 97/1/1
f 107/1/1 104/1/1 103/1/1
f 108/1/1 100/1/1 104/1/1
f 108/1/1 104/1/1 107/1/1
f 113/1/1 110/1/1 109/1/1
f 114/1/1 110/1/1 113/1/1
f 115/1/1 112/1/1 111/1/1
f 116/1/1 112/1/1 115/1/1
f 117/1/1 113/1/1 109/1/1
f 118/2/1 114/2/1 113/2/1
f 118/1/1 113/1/1 117/1/1
f 119/1/1 110/1/1 114/1/1
f 119/2/1 114/2/1 118/2/1
f 120/1/1 110/1/1 119/1/1
f 121/1/1 115/1/1 111/1/1
f 122/2/1 116/2/1 115/2/1
f 122/1/1 115/1/1 121/1/1
f 123/1/1 112/1/1 116/1/1
f 123/2/1 116/2/1 122/2/1
f 124/1/1 112/1/1 123/1/1
f 125/2/1 119/2/1 118/2/1
f 126/2/1 119/2/1 125/2/1
f 127/2/1 123/2/1 122/2/1
f 128/2/1 123/2/1 127/2/1
f 137/1/1 130/1/1 129/1/1
f 138/1/1 132/1/1 131/1/1
f 139/1/1 134/1/1 133/1/1
f 140/1/1 136/1/1 135/1/1
f 141/1/1 137/1/1 129/1/1
f 141/1/1 138/1/1 137/1/1
f 142/1/1 132/1/1 138/1/1
f 142/1/1 138/1/1 141/1/1
f 143/1/1 139/1/1 133/1/1
f 143/1/1 140/1/1 139/1/1
f 144/1/1 136/1/1 140/1/1
f 144/1/1 140/1/1 143/1/1
f 145/1/2 146/1/2 149/1/2
f 149/1/2 146/1/2 150/1/2
f 147/1/2 148/1/2 151/1/2
f 151/1/2 148/1/2 152/1/2
f 145/1/2 149/1/2 153/1/2
f 149/2/2 150/2/2 153/2/2
f 150/1/2 146/1/2 154/1/2
f 153/2/2 150/2/2 154/2/2
f 151/2/2 152/2/2 155/2/2
f 147/1/2 151/1/2 155/1/2
f 152/1/2 148/1/2 156/1/2
f 155/2/2 152/2/2 156/2/2
f 145/1/2 153/1/2 157/1/2
f 153/1/2 154/1/2 157/1/2
f 154/1/2 146/1/2 158/1/2
f 157/1/2 154/1/2 158/1/2
f 147/1/2 155/1/2 159/1/2
f 155/1/2 156/1/2 159/1/2
f 156/1/2 148/1/2 160/1/2
f 159/1/2 156/1/2 160/1/2
f 161/1/2 162/1/2 165/1/2
f 165/1/2 162/1/2 166/1/2
f 163/1/2 164/1/2 167/1/2
f 167/1/2 164/1/2 168/1/2
f 161/1/2 165/1/2 169/1/2
f 165/2/2 166/2/2 169/2/2
f 166/1/2 162/1/2 170/1/2
f 169/2/2 166/2/2 170/2/2
f 167/2/2 168/2/2 171/2/2
f 163/1/2 167/1/2 171/1/2
f 168/1/2 164/1/2 172/1/2
f 171/2/2 168/2/2 172/2/2
f 161/1/2 169/1/2 173/1/2
f 169/1/2 170/1/2 173/1/2
f 170/1/2 162/1/2 174/1/2
f 173/1/2 170/1/2 174/1/2
f 163/1/2 171/1/2 175/1/2
f 171/1/2 172/1/2 175/1/2
f 172/1/2 164/1/2 176/1/2
f 175/1/2 172/1/2 176/1/2
f 177/1/2 178/1/2 181/1/2
f 181/1/2 178/1/2 182/1/2
f 179/1/2 180/1/2 183/1/2
f 183/1/2 180/1/2 184/1/2
f 177/1/2 181/1/2 185/1/2
f 181/2/2 182/2/2 185/2/2
f 182/1/2 178/1/2 186/1/2
f 185/2/2 182/2/2 186/2/2
f 183/2/2 184/2/2 187/2/2
f 179/1/2 183/1/2 187/1/2
f 184/1/2 180/1/2 188/1/2
f 187/2/2 184/2/2 188/2/2
f 177/1/2 185/1/2 189/1/2
f 185/1/2 186/1/2 189/1/2
f 186/1/2 178/1/2 190/1/2
f 189/1/2 186/1/2 190/1/2
f 179/1/2 187/1/2 191/1/2
f 187/1/2 188/1/2 191/1/2
f 188/1/2 180/1/2 192/1/2
f 191/1/2 188/1/2 192/1/2
f 193/1/2 194/1/2 197/1/2
f 197/1/2 194/1/2 198/1/2
f 195/1/2 196/1/2 199/1/2
f 199/1/2 196/1/2 200/1/2
f 193/1/2 197/1/2 201/1/2
f 197/2/2 198/2/2 201/2/2
f 198/1/2 194/1/2 202/1/2
f 201/2/2 198/2/2 202/2/2
f 199/2/2 200/2/2 203/2/2
f 195/1/2 199/1/2 203/1/2
f 200/1/2 196/1/2 204/1/2
f 203/2/2 200/2/2 204/2/2
f 193/1/2 201/1/2 205/1/2
f 201/1/2 202/1/2 205/1/2
f 202/1/2 194/1/2 206/1/2
f 205/1/2 202/1/2 206/1/2
f 195/1/2 203/1/2 207/1/2
f 203/1/2 204/1/2 207/1/2
f 204/1/2 196/1/2 208/1/2
f 207/1/2 204/1/2 208/1/2
f 211/1/3 210/1/3 209/1/3
f 213/1/3 211/1/3 209/1/3
f 213/1/3 212/1/3 211/1/3
f 214/1/3 212/1/3 213/1/3
f 217/1/3 216/1/3 215/1/3
f 219/1/3 217/1/3 215/1/3
f 219/1/3 218/1/3 217/1/3
f 220/1/3 218/1/3 219/1/3
f 223/1/3 222/1/3 221/1/3
f 225/1/3 223/1/3 221/1/3
f 225/1/3 224/1/3 223/1/3
f 226/1/3 224/1/3 225/1/3
f 229/1/3 228/1/3 227/1/3
f 231/1/3 229/1/3 227/1/3
f 231/1/3 230/1/3 229/1/3
f 232/1/3 230/1/3 231/1/3
f 235/2/3 234/2/3 233/2/3
f 236/2/3 234/2/3 235/2/3
f 239/2/3 238/2/3 237/2/3
f 240/2/3 238/2/3 239/2/3
f 243/2/3 242/2/3 241/2/3
f 244/2/3 242/2/3 243/2/3
f 247/2/3 246/2/3 245/2/3
f 248/2/3 246/2/3 247/2/3
f 251/1/3 250/1/3 249/1/3
f 253/1/3 251/1/3 249/1/3
f 253/1/3 252/1/3 251/1/3
f 254/1/3 252/1/3 253/1/3
f 257/1/3 256/1/3 255/1/3
f 259/1/3 257/1/3 255/1/3
f 259/1/3 258/1/3 257/1/3
f 260/1/3 258/1/3 259/1/3
f 263/1/3 262/1/3 261/1/3
f 265/1/3 263/1/3 261/1/3
f 265/1/3 264/1/3 263/1/3
f 266/1/3 264/1/3 265/1/3
f 269/1/3 268/1/3 267/1/3
f 271/1/3 269/1/3 267/1/3
f 271/1/3 270/1/3 269/1/3
f 272/1/3 270/1/3 271/1/3
f 275/2/3 274/2/3 273/2/3
f 276/2/3 274/2/3 275/2/3
f 279/2/3 278/2/3 277/2/3
f 280/2/3 278/2/3 279/2/3
f 283/2/3 282/2/3 281/2/3
f 284/2/3 282/2/3 283/2/3
f 287/2/3 286/2/3 285/2/3
f 288/2/3 286/2/3 287/2/3
f 289/2/4 290/2/4 291/2/4
f 291/2/4 290/2/4 292/2/4
f 293/2/4 294/2/4 295/2/4
f 295/2/4 294/2/4 296/2/4
f 297/2/4 298/2/4 299/2/4
f 299/2/4 298/2/4 300/2/4
f 301/2/4 302/2/4 303/2/4
f 303/2/4 302/2/4 304/2/4
f 305/1/4 306/1/4 307/1/4
f 305/1/4 307/1/4 309/1/4
f 307/1/4 308/1/4 309/1/4
f 309/1/4 308/1/4 310/1/4
f 311/1/4 312/1/4 313/1/4
f 311/1/4 313/1/4 315/1/4
f 313/1/4 314/1/4 315/1/4
f 315/1/4 314/1/4 316/1/4
f 317/1/4 318/1/4 319/1/4
f 317/1/4 319/1/4 321/1/4
f 319/1/4 320/1/4 321/1/4
f 321/1/4 320/1/4 322/1/4
f 323/1/4 324/1/4 325/1/4
f 323/1/4 325/1/4 327/1/4
f 325/1/4 326/1/4 327/1/4
f 327/1/4 326/1/4 328/1/4
f 329/2/4 330/2/4 331/2/4
f 331/2/4 330/2/4 332/2/4
f 333/2/4 334/2/4 335/2/4
f 335/2/4 334/2/4 336/2/4
f 337/2/4 338/2/4 339/2/4
f 339/2/4 338/2/4 340/2/4
f 341/2/4 342/2/4 343/2/4
f 343/2/4 342/2/4 344/2/4
f 345/1/4 346/1/4 347/1/4
f 345/1/4 347/1/4 349/1/4
f 347/1/4 348/1/4 349/1/4
f 349/1/4 348/1/4 350/1/4
f 351/1/4 352/1/4 353/1/4
f 351/1/4 353/1/4 355/1/4
f 353/1/4 354/1/4 355/1/4
f 355/1/4 354/1/4 356/1/4
f 357/1/4 358/1/4 359/1/4
f 357/1/4 359/1/4 361/1/4
f 359/1/4 360/1/4 361/1/4
f 361/1/4 360/1/4 362/1/4
f 363/1/4 364/1/4 365/1/4
f 363/1/4 365/1/4 367/1/4
f 365/1/4 366/1/4 367/1/4
f 367/1/4 366/1/4 368/1/4
f 377/1/5 370/1/5 369/1/5
f 378/1/5 370/1/5 377/1/5
f 379/1/5 372/1/5 371/1/5
f 380/1/5 372/1/5 379/1/5
f 381/1/5 374/1/5 373/1/5
f 382/1/5 374/1/5 381/1/5
f 383/1/5 376/1/5 375/1/5
f 384/1/5 376/1/5 383/1/5
f 393/1/5 386/1/5 385/1/5
f 394/1/5 386/1/5 393/1/5
f 395/1/5 388/1/5 387/1/5
f 396/1/5 388/1/5 395/1/5
f 397/1/5 390/1/5 389/1/5
f 398/1/5 390/1/5 397/1/5
f 399/1/5 392/1/5 391/1/5
f 400/1/5 392/1/5 399/1/5
f 401/1/6 402/1/6 409/1/6
f 409/1/6 402/1/6 410/1/6
f 403/1/6 404/1/6 411/1/6
f 411/1/6 404/1/6 412/1/6
f 405/1/6 406/1/6 413/1/6
f 413/1/6 406/1/6 414/1/6
f 407/1/6 408/1/6 415/1/6
f 415/1/6 408/1/6 416/1/6
f 417/1/6 418/1/6 425/1/6
f 425/1/6 418/1/6 426/1/6
f 419/1/6 420/1/6 427/1/6
f 427/1/6 420/1/6 428/1/6
f 421/1/6 422/1/6 429/1/6
f 429/1/6 422/1/6 430/1/6
f 423/1/6 424/1/6 431/1/6
f 431/1/6 424/1/6 432/1/6
f 433/1/6 434/1/6 441/1/6
f 441/1/6 434/1/6 442/1/6
f 435/1/6 436/1/6 443/1/6
f 443/1/6 436/1/6 444/1/6
f 437/1/6 438/1/6 445/1/6
f 445/1/6 438/1/6 446/1/6
f 439/1/6 440/1/6 447/1/6
f 447/1/6 440/1/6 448/1/6
f 449/1/6 450/1/6 457/1/6
f 457/1/6 450/1/6 458/1/6
f 451/1/6 452/1/6 459/1/6
f 459/1/6 452/1/6 460/1/6
f 453/1/6 454/1/6 461/1/6
f 461/1/6 454/1/6 462/1/6
f 455/1/6 456/1/6 463/1/6
f 463/1/6 456/1/6 464/1/6
f 465/2/6 466/2/6 473/2/6
f 473/2/6 466/2/6 474/2/6
f 467/2/6 468/2/6 475/2/6
f 475/2/6 468/2/6 476/2/6
f 469/2/6 470/2/6 477/2/6
f 477/2/6 470/2/6 478/2/6
f 471/2/6 472/2/6 479/2/6
f 479/2/6 472/2/6 480/2/6
f 481/2/6 482/2/6 489/2/6
f 489/2/6 482/2/6 490/2/6
f 483/2/6 484/2/6 491/2/6
f 491/2/6 484/2/6 492/2/6
f 485/2/6 486/2/6 493/2/6
f 493/2/6 486/2/6 494/2/6
f 487/2/6 488/2/6 495/2/6
f 495/2/6 488/2/6 496/2/6
f 497/1/6 498/1/6 505/1/6
f 505/1/6 498/1/6 506/1/6
f 499/1/6 500/1/6 507/1/6
f 507/1/6 500/1/6 508/1/6
f 501/1/6 502/1/6 509/1/6
f 509/1/6 502/1/6 510/1/6
f 503/1/6 504/1/6 511/1/6
f 511/1/6 504/1/6 512/1/6
f 513/1/6 514/1/6 521/1/6
f 521/1/6 514/1/6 522/1/6
f 515/1/6 516/1/6 523/1/6
f 523/1/6 516/1/6 524/1/6
f 517/1/6 518/1/6 525/1/6
f 525/1/6 518/1/6 526/1/6
f 519/1/6 520/1/6 527/1/6
f 527/1/6 520/1/6 528/1/6
