# MagicaVoxel @ Ephtracy

# group
o z-burnt-food

# material
mtllib food.vox-0-z-burnt-food.mtl
usemtl palette

# normals
vn -1 0 0
vn 1 0 0
vn 0 0 1
vn 0 0 -1
vn 0 -1 0
vn 0 1 0

# texcoords
vt 0.220703 0.5
vt 0.224609 0.5
vt 0.251953 0.5
vt 0.298828 0.5
vt 0.302734 0.5

# verts
v -10.5 0.1 1
v -10.5 0.1 0.2
v -10.5 0.2 1
v -10.5 0.2 0.9
v -10.5 0.2 0.4
v -10.5 0.2 0.2
v -10.5 0.5 0.9
v -10.5 0.5 0.4
v -10.3 0.1 1.4
v -10.3 0.1 1
v -10.3 0.1 0.2
v -10.3 0.1 -0.2
v -10.3 0.2 1.4
v -10.3 0.2 1
v -10.3 0.2 0.3
v -10.3 0.2 0.2
v -10.3 0.2 -0.2
v -10.3 0.6 0.3
v -10.3 0.6 -0.2
v -10.2 0.2 1.3
v -10.2 0.2 0.9
v -10.2 0.5 1.3
v -10.2 0.5 0.9
v -10.1 0.2 0.9
v -10.1 0.2 0.6
v -10.1 0.2 0.4
v -10.1 0.2 0.3
v -10.1 0.3 0.9
v -10.1 0.3 0.6
v -10.1 0.3 0.3
v -10.1 0.6 0.3
v -10.1 0.7 0.6
v -10.1 0.7 0.3
v -9.9 0.1 1.6
v -9.9 0.1 1.4
v -9.9 0.1 -0.2
v -9.9 0.1 -0.4
v -9.9 0.2 1.6
v -9.9 0.2 1.5
v -9.9 0.2 1.4
v -9.9 0.2 0.3
v -9.9 0.2 0.2
v -9.9 0.2 0
v -9.9 0.2 -0.1
v -9.9 0.2 -0.2
v -9.9 0.2 -0.4
v -9.9 0.3 1.6
v -9.9 0.3 1.5
v -9.9 0.3 0.3
v -9.9 0.3 -0.1
v -9.8 0.2 -0.1
v -9.8 0.2 -0.3
v -9.8 0.3 -0.1
v -9.8 0.5 -0.1
v -9.8 0.5 -0.3
v -9.7 0.3 0.9
v -9.7 0.3 0.6
v -9.7 0.6 0.6
v -9.7 0.6 0.3
v -9.7 0.8 0.9
v -9.7 0.8 0.5
v -9.7 0.9 0.5
v -9.7 0.9 0.3
v -9.6 0.2 1.4
v -9.6 0.2 1.1
v -9.6 0.6 1.4
v -9.6 0.6 1.1
v -9.5 0.2 1.1
v -9.5 0.2 1
v -9.5 0.2 0.9
v -9.5 0.3 1
v -9.5 0.3 0.9
v -9.5 0.6 1.1
v -9.5 0.6 1
v -9.4 0.2 0.5
v -9.4 0.2 0.3
v -9.4 0.3 0.5
v -9.4 0.3 0.3
v -9.4 0.3 0.1
v -9.4 0.4 0.5
v -9.4 0.4 0.1
v -8.9 0.2 1.1
v -8.9 0.2 0.9
v -8.9 0.2 0.7
v -8.9 0.2 0.3
v -8.9 0.4 1.1
v -8.9 0.4 0.3
v -10.2 0.2 0.9
v -10.2 0.2 0.6
v -10.2 0.2 0.4
v -10.2 0.5 0.9
v -10.2 0.5 0.4
v -10 0.2 0.3
v -10 0.2 0.2
v -10 0.2 0
v -10 0.2 -0.2
v -10 0.3 0.3
v -10 0.6 0.3
v -10 0.6 -0.2
v -9.9 0.6 0.6
v -9.9 0.6 0.3
v -9.9 0.7 0.6
v -9.9 0.7 0.3
v -9.8 0.2 1.3
v -9.8 0.2 1.1
v -9.8 0.2 0.9
v -9.8 0.3 0.9
v -9.8 0.5 1.3
v -9.8 0.5 0.9
v -9.5 0.2 0.6
v -9.5 0.2 0.3
v -9.5 0.3 0.6
v -9.5 0.3 0.3
v -9.5 0.6 0.9
v -9.5 0.6 0.6
v -9.5 0.8 0.9
v -9.5 0.8 0.5
v -9.5 0.9 0.5
v -9.5 0.9 0.3
v -9.4 0.2 1.6
v -9.4 0.2 1.5
v -9.4 0.2 0.1
v -9.4 0.2 0
v -9.4 0.3 1.6
v -9.4 0.3 1.5
v -9.4 0.3 0.1
v -9.4 0.3 0
v -9.3 0.2 -0.2
v -9.3 0.2 -0.3
v -9.3 0.3 -0.1
v -9.3 0.3 -0.2
v -9.3 0.5 -0.1
v -9.3 0.5 -0.3
v -9.1 0.1 1.6
v -9.1 0.1 1.4
v -9.1 0.1 -0.2
v -9.1 0.1 -0.4
v -9.1 0.2 1.6
v -9.1 0.2 1.4
v -9.1 0.2 -0.2
v -9.1 0.2 -0.4
v -9 0.2 1.4
v -9 0.2 1.2
v -9 0.2 1
v -9 0.2 0.9
v -9 0.2 0.7
v -9 0.2 0.6
v -9 0.2 0.5
v -9 0.2 0.2
v -9 0.2 0.1
v -9 0.3 1
v -9 0.3 0.9
v -9 0.3 0.6
v -9 0.3 0.5
v -9 0.3 0.1
v -9 0.4 0.5
v -9 0.4 0.1
v -9 0.6 1.4
v -9 0.6 1
v -9 0.6 0.9
v -9 0.6 0.6
v -8.7 0.1 1.4
v -8.7 0.1 1.1
v -8.7 0.1 0.2
v -8.7 0.1 -0.2
v -8.7 0.2 1.4
v -8.7 0.2 1.1
v -8.7 0.2 0.2
v -8.7 0.2 0
v -8.7 0.2 -0.2
v -8.7 0.3 0
v -8.7 0.3 -0.2
v -8.6 0.1 1.1
v -8.6 0.1 1
v -8.6 0.2 1
v -8.6 0.2 0.3
v -8.6 0.4 1.1
v -8.6 0.4 0.3
v -8.5 0.1 1
v -8.5 0.1 0.2
v -8.5 0.2 1
v -8.5 0.2 0.2
v -9.9 0.1 1.6
v -9.9 0.2 1.6
v -9.9 0.3 1.6
v -9.4 0.2 1.6
v -9.4 0.3 1.6
v -9.1 0.1 1.6
v -9.1 0.2 1.6
v -10.3 0.1 1.4
v -10.3 0.2 1.4
v -10.1 0.1 1.4
v -10.1 0.2 1.4
v -9.9 0.1 1.4
v -9.9 0.2 1.4
v -9.6 0.2 1.4
v -9.6 0.6 1.4
v -9.1 0.1 1.4
v -9.1 0.2 1.4
v -9 0.2 1.4
v -9 0.6 1.4
v -8.7 0.1 1.4
v -8.7 0.2 1.4
v -10.2 0.2 1.3
v -10.2 0.5 1.3
v -10.1 0.2 1.3
v -9.8 0.2 1.3
v -9.8 0.5 1.3
v -8.9 0.2 1.1
v -8.9 0.4 1.1
v -8.8 0.2 1.1
v -8.7 0.1 1.1
v -8.7 0.2 1.1
v -8.6 0.1 1.1
v -8.6 0.4 1.1
v -10.5 0.1 1
v -10.5 0.2 1
v -10.3 0.1 1
v -10.3 0.2 1
v -8.6 0.1 1
v -8.6 0.2 1
v -8.5 0.1 1
v -8.5 0.2 1
v -10.5 0.2 0.9
v -10.5 0.5 0.9
v -10.2 0.2 0.9
v -10.2 0.5 0.9
v -9.8 0.2 0.9
v -9.8 0.3 0.9
v -9.7 0.2 0.9
v -9.7 0.3 0.9
v -9.7 0.8 0.9
v -9.5 0.2 0.9
v -9.5 0.3 0.9
v -9.5 0.6 0.9
v -9.5 0.8 0.9
v -9 0.3 0.9
v -9 0.6 0.9
v -10.1 0.3 0.6
v -10.1 0.7 0.6
v -9.9 0.6 0.6
v -9.9 0.7 0.6
v -9.7 0.3 0.6
v -9.7 0.6 0.6
v -9.7 0.8 0.5
v -9.7 0.9 0.5
v -9.5 0.8 0.5
v -9.5 0.9 0.5
v -9.4 0.2 0.5
v -9.4 0.3 0.5
v -9.4 0.4 0.5
v -9 0.2 0.5
v -9 0.3 0.5
v -9 0.4 0.5
v -10.3 0.2 0.3
v -10.3 0.6 0.3
v -10.1 0.2 0.3
v -10.1 0.3 0.3
v -10.1 0.6 0.3
v -9.5 0.2 0.3
v -9.5 0.3 0.3
v -9.4 0.2 0.3
v -9.4 0.3 0.3
v -9.4 0.2 0
v -9.4 0.3 0
v -8.7 0.2 0
v -8.7 0.3 0
v -9.8 0.3 -0.1
v -9.8 0.5 -0.1
v -9.3 0.3 -0.1
v -9.3 0.5 -0.1
v -9.9 0.2 1.5
v -9.9 0.3 1.5
v -9.4 0.2 1.5
v -9.4 0.3 1.5
v -9.6 0.2 1.1
v -9.6 0.6 1.1
v -9.5 0.2 1.1
v -9.5 0.6 1.1
v -9.5 0.3 1
v -9.5 0.6 1
v -9 0.3 1
v -9 0.6 1
v -10.2 0.2 0.9
v -10.2 0.5 0.9
v -10.1 0.2 0.9
v -10.1 0.3 0.9
v -9.8 0.3 0.9
v -9.8 0.5 0.9
v -9.5 0.2 0.6
v -9.5 0.3 0.6
v -9.5 0.6 0.6
v -9 0.2 0.6
v -9 0.3 0.6
v -9 0.6 0.6
v -10.5 0.2 0.4
v -10.5 0.5 0.4
v -10.2 0.2 0.4
v -10.2 0.5 0.4
v -10.1 0.6 0.3
v -10.1 0.7 0.3
v -10 0.2 0.3
v -10 0.3 0.3
v -10 0.6 0.3
v -9.9 0.2 0.3
v -9.9 0.3 0.3
v -9.9 0.6 0.3
v -9.9 0.7 0.3
v -9.7 0.6 0.3
v -9.7 0.9 0.3
v -9.5 0.3 0.3
v -9.5 0.9 0.3
v -8.9 0.2 0.3
v -8.9 0.4 0.3
v -8.8 0.2 0.3
v -8.6 0.2 0.3
v -8.6 0.4 0.3
v -10.5 0.1 0.2
v -10.5 0.2 0.2
v -10.3 0.1 0.2
v -10.3 0.2 0.2
v -8.7 0.1 0.2
v -8.7 0.2 0.2
v -8.5 0.1 0.2
v -8.5 0.2 0.2
v -9.4 0.2 0.1
v -9.4 0.3 0.1
v -9.4 0.4 0.1
v -9 0.2 0.1
v -9 0.3 0.1
v -9 0.4 0.1
v -9.9 0.2 -0.1
v -9.9 0.3 -0.1
v -9.8 0.2 -0.1
v -9.8 0.3 -0.1
v -10.3 0.1 -0.2
v -10.3 0.2 -0.2
v -10.3 0.6 -0.2
v -10 0.2 -0.2
v -10 0.6 -0.2
v -9.9 0.1 -0.2
v -9.9 0.2 -0.2
v -9.3 0.2 -0.2
v -9.3 0.3 -0.2
v -9.2 0.2 -0.2
v -9.1 0.1 -0.2
v -9.1 0.2 -0.2
v -8.7 0.1 -0.2
v -8.7 0.2 -0.2
v -8.7 0.3 -0.2
v -9.8 0.2 -0.3
v -9.8 0.5 -0.3
v -9.3 0.2 -0.3
v -9.3 0.5 -0.3
v -9.9 0.1 -0.4
v -9.9 0.2 -0.4
v -9.1 0.1 -0.4
v -9.1 0.2 -0.4
v -9.9 0.1 1.6
v -9.1 0.1 1.6
v -10.3 0.1 1.4
v -10.1 0.1 1.4
v -9.9 0.1 1.4
v -9.5 0.1 1.4
v -9.1 0.1 1.4
v -8.7 0.1 1.4
v -9.2 0.1 1.2
v -8.8 0.1 1.2
v -10.1 0.1 1.1
v -9.5 0.1 1.1
v -8.7 0.1 1.1
v -8.6 0.1 1.1
v -10.5 0.1 1
v -10.3 0.1 1
v -8.7 0.1 1
v -8.6 0.1 1
v -8.5 0.1 1
v -9.2 0.1 0.9
v -8.8 0.1 0.9
v -9.5 0.1 0.7
v -8.8 0.1 0.7
v -10.3 0.1 0.6
v -9.7 0.1 0.6
v -10.3 0.1 0.4
v -9.7 0.1 0.4
v -10.5 0.1 0.2
v -10.3 0.1 0.2
v -10.2 0.1 0.2
v -9.8 0.1 0.2
v -9.5 0.1 0.2
v -8.8 0.1 0.2
v -8.7 0.1 0.2
v -8.5 0.1 0.2
v -10.2 0.1 0
v -9.8 0.1 0
v -9.6 0.1 0
v -9.2 0.1 0
v -10.3 0.1 -0.2
v -9.9 0.1 -0.2
v -9.1 0.1 -0.2
v -8.7 0.1 -0.2
v -9.6 0.1 -0.3
v -9.2 0.1 -0.3
v -9.9 0.1 -0.4
v -9.1 0.1 -0.4
v -9.4 0.2 1.6
v -9.1 0.2 1.6
v -9.9 0.2 1.5
v -9.4 0.2 1.5
v -10.3 0.2 1.4
v -10.1 0.2 1.4
v -9.9 0.2 1.4
v -9.6 0.2 1.4
v -9.1 0.2 1.4
v -9 0.2 1.4
v -8.7 0.2 1.4
v -10.2 0.2 1.3
v -10.1 0.2 1.3
v -9.8 0.2 1.3
v -9 0.2 1.2
v -8.8 0.2 1.2
v -9.8 0.2 1.1
v -9.6 0.2 1.1
v -9.5 0.2 1.1
v -8.9 0.2 1.1
v -8.8 0.2 1.1
v -8.7 0.2 1.1
v -10.5 0.2 1
v -10.3 0.2 1
v -9.5 0.2 1
v -9 0.2 1
v -8.6 0.2 1
v -8.5 0.2 1
v -10.5 0.2 0.9
v -10.2 0.2 0.9
v -10.1 0.2 0.9
v -9.8 0.2 0.9
v -9.7 0.2 0.9
v -9.5 0.2 0.9
v -9 0.2 0.9
v -8.9 0.2 0.9
v -9 0.2 0.7
v -8.9 0.2 0.7
v -10.2 0.2 0.6
v -10.1 0.2 0.6
v -9.5 0.2 0.6
v -9 0.2 0.6
v -9.4 0.2 0.5
v -9 0.2 0.5
v -10.5 0.2 0.4
v -10.2 0.2 0.4
v -10.1 0.2 0.4
v -10.3 0.2 0.3
v -10.1 0.2 0.3
v -10 0.2 0.3
v -9.9 0.2 0.3
v -9.5 0.2 0.3
v -9.4 0.2 0.3
v -8.9 0.2 0.3
v -8.8 0.2 0.3
v -8.6 0.2 0.3
v -10.5 0.2 0.2
v -10.3 0.2 0.2
v -10 0.2 0.2
v -9.9 0.2 0.2
v -9 0.2 0.2
v -8.8 0.2 0.2
v -8.7 0.2 0.2
v -8.5 0.2 0.2
v -9.4 0.2 0.1
v -9 0.2 0.1
v -10 0.2 0
v -9.9 0.2 0
v -9.4 0.2 0
v -8.7 0.2 0
v -9.9 0.2 -0.1
v -9.8 0.2 -0.1
v -10 0.2 -0.2
v -9.9 0.2 -0.2
v -9.3 0.2 -0.2
v -9.2 0.2 -0.2
v -9.1 0.2 -0.2
v -9.8 0.2 -0.3
v -9.3 0.2 -0.3
v -9.2 0.2 -0.3
v -9.9 0.2 -0.4
v -9.1 0.2 -0.4
v -9.9 0.3 1.6
v -9.4 0.3 1.6
v -9.9 0.3 1.5
v -9.4 0.3 1.5
v -9.5 0.3 1
v -9 0.3 1
v -10.1 0.3 0.9
v -9.8 0.3 0.9
v -9.7 0.3 0.9
v -9.5 0.3 0.9
v -9 0.3 0.9
v -10.1 0.3 0.6
v -9.7 0.3 0.6
v -9.9 0.3 0.3
v -9.5 0.3 0.3
v -9.4 0.3 0.3
v -9.4 0.3 0.1
v -9.4 0.3 0
v -8.7 0.3 0
v -9.9 0.3 -0.1
v -9.8 0.3 -0.1
v -9.3 0.3 -0.1
v -9.3 0.3 -0.2
v -8.7 0.3 -0.2
v -8.9 0.4 1.1
v -8.6 0.4 1.1
v -9.4 0.4 0.5
v -9 0.4 0.5
v -8.9 0.4 0.3
v -8.6 0.4 0.3
v -9.4 0.4 0.1
v -9 0.4 0.1
v -10.2 0.5 1.3
v -9.8 0.5 1.3
v -10.5 0.5 0.9
v -10.2 0.5 0.9
v -9.8 0.5 0.9
v -10.5 0.5 0.4
v -10.2 0.5 0.4
v -9.8 0.5 -0.1
v -9.3 0.5 -0.1
v -9.8 0.5 -0.3
v -9.3 0.5 -0.3
v -9.6 0.6 1.4
v -9 0.6 1.4
v -9.6 0.6 1.1
v -9.5 0.6 1.1
v -9.5 0.6 1
v -9 0.6 1
v -9.5 0.6 0.9
v -9 0.6 0.9
v -9.9 0.6 0.6
v -9.7 0.6 0.6
v -9.5 0.6 0.6
v -9 0.6 0.6
v -10.3 0.6 0.3
v -10.1 0.6 0.3
v -10 0.6 0.3
v -9.9 0.6 0.3
v -9.7 0.6 0.3
v -10.3 0.6 -0.2
v -10 0.6 -0.2
v -10.1 0.7 0.6
v -9.9 0.7 0.6
v -10.1 0.7 0.3
v -9.9 0.7 0.3
v -9.7 0.8 0.9
v -9.5 0.8 0.9
v -9.7 0.8 0.5
v -9.5 0.8 0.5
v -9.7 0.9 0.5
v -9.5 0.9 0.5
v -9.7 0.9 0.3
v -9.5 0.9 0.3

# faces
f 3/3/1 2/3/1 1/3/1
f 4/3/1 2/3/1 3/3/1
f 5/3/1 2/3/1 4/3/1
f 6/3/1 2/3/1 5/3/1
f 7/5/1 5/5/1 4/5/1
f 8/5/1 5/5/1 7/5/1
f 13/3/1 10/3/1 9/3/1
f 14/3/1 10/3/1 13/3/1
f 16/3/1 12/3/1 11/3/1
f 17/3/1 12/3/1 16/3/1
f 18/5/1 16/5/1 15/5/1
f 18/5/1 17/5/1 16/5/1
f 19/5/1 17/5/1 18/5/1
f 22/5/1 21/5/1 20/5/1
f 23/5/1 21/5/1 22/5/1
f 28/5/1 25/5/1 24/5/1
f 29/1/1 27/1/1 26/1/1
f 29/5/1 25/5/1 28/5/1
f 29/1/1 26/1/1 25/1/1
f 30/1/1 27/1/1 29/1/1
f 31/5/1 30/5/1 29/5/1
f 32/5/1 31/5/1 29/5/1
f 33/5/1 31/5/1 32/5/1
f 38/3/1 35/3/1 34/3/1
f 39/3/1 35/3/1 38/3/1
f 40/3/1 35/3/1 39/3/1
f 45/3/1 37/3/1 36/3/1
f 46/3/1 37/3/1 45/3/1
f 47/5/1 39/5/1 38/5/1
f 48/5/1 39/5/1 47/5/1
f 49/5/1 44/5/1 43/5/1
f 49/5/1 42/5/1 41/5/1
f 49/5/1 43/5/1 42/5/1
f 50/5/1 44/5/1 49/5/1
f 53/5/1 52/5/1 51/5/1
f 54/5/1 52/5/1 53/5/1
f 55/5/1 52/5/1 54/5/1
f 58/5/1 57/5/1 56/5/1
f 60/5/1 58/5/1 56/5/1
f 60/5/1 59/5/1 58/5/1
f 61/5/1 59/5/1 60/5/1
f 62/5/1 59/5/1 61/5/1
f 63/5/1 59/5/1 62/5/1
f 66/5/1 65/5/1 64/5/1
f 67/5/1 65/5/1 66/5/1
f 71/5/1 69/5/1 68/5/1
f 71/2/1 70/2/1 69/2/1
f 72/2/1 70/2/1 71/2/1
f 73/5/1 71/5/1 68/5/1
f 74/5/1 71/5/1 73/5/1
f 77/1/1 76/1/1 75/1/1
f 78/1/1 76/1/1 77/1/1
f 80/5/1 78/5/1 77/5/1
f 80/5/1 79/5/1 78/5/1
f 81/5/1 79/5/1 80/5/1
f 86/5/1 83/5/1 82/5/1
f 86/5/1 85/5/1 84/5/1
f 86/5/1 84/5/1 83/5/1
f 87/5/1 85/5/1 86/5/1
f 88/5/2 89/5/2 91/5/2
f 89/5/2 90/5/2 91/5/2
f 91/5/2 90/5/2 92/5/2
f 93/5/2 94/5/2 97/5/2
f 95/5/2 96/5/2 97/5/2
f 94/5/2 95/5/2 97/5/2
f 97/5/2 96/5/2 98/5/2
f 98/5/2 96/5/2 99/5/2
f 100/5/2 101/5/2 102/5/2
f 102/5/2 101/5/2 103/5/2
f 104/5/2 105/5/2 107/5/2
f 105/5/2 106/5/2 107/5/2
f 104/5/2 107/5/2 108/5/2
f 108/5/2 107/5/2 109/5/2
f 110/1/2 111/1/2 112/1/2
f 112/1/2 111/1/2 113/1/2
f 112/5/2 113/5/2 115/5/2
f 114/5/2 115/5/2 116/5/2
f 115/5/2 113/5/2 117/5/2
f 116/5/2 115/5/2 117/5/2
f 117/5/2 113/5/2 118/5/2
f 118/5/2 113/5/2 119/5/2
f 120/5/2 121/5/2 124/5/2
f 124/5/2 121/5/2 125/5/2
f 122/5/2 123/5/2 126/5/2
f 126/5/2 123/5/2 127/5/2
f 128/5/2 129/5/2 131/5/2
f 130/5/2 131/5/2 132/5/2
f 131/5/2 129/5/2 133/5/2
f 132/5/2 131/5/2 133/5/2
f 134/3/2 135/3/2 138/3/2
f 138/3/2 135/3/2 139/3/2
f 136/3/2 137/3/2 140/3/2
f 140/3/2 137/3/2 141/3/2
f 142/5/2 143/5/2 151/5/2
f 143/5/2 144/5/2 151/5/2
f 144/2/2 145/2/2 151/2/2
f 146/2/2 147/2/2 151/2/2
f 145/2/2 146/2/2 151/2/2
f 151/2/2 147/2/2 152/2/2
f 152/2/2 147/2/2 153/2/2
f 149/1/2 150/1/2 154/1/2
f 148/1/2 149/1/2 154/1/2
f 154/1/2 150/1/2 155/1/2
f 154/5/2 155/5/2 156/5/2
f 156/5/2 155/5/2 157/5/2
f 142/5/2 151/5/2 158/5/2
f 158/5/2 151/5/2 159/5/2
f 152/5/2 153/5/2 160/5/2
f 160/5/2 153/5/2 161/5/2
f 162/3/2 163/3/2 166/3/2
f 166/3/2 163/3/2 167/3/2
f 164/3/2 165/3/2 168/3/2
f 168/3/2 165/3/2 169/3/2
f 169/3/2 165/3/2 170/3/2
f 169/5/2 170/5/2 171/5/2
f 171/5/2 170/5/2 172/5/2
f 173/5/2 174/5/2 175/5/2
f 173/5/2 175/5/2 177/5/2
f 175/5/2 176/5/2 177/5/2
f 177/5/2 176/5/2 178/5/2
f 179/3/2 180/3/2 181/3/2
f 181/3/2 180/3/2 182/3/2
f 186/3/3 184/3/3 183/3/3
f 186/5/3 185/5/3 184/5/3
f 187/5/3 185/5/3 186/5/3
f 188/3/3 186/3/3 183/3/3
f 189/3/3 186/3/3 188/3/3
f 192/3/3 191/3/3 190/3/3
f 193/3/3 191/3/3 192/3/3
f 194/4/3 193/4/3 192/4/3
f 195/4/3 193/4/3 194/4/3
f 199/5/3 197/5/3 196/5/3
f 200/5/3 197/5/3 199/5/3
f 200/3/3 199/3/3 198/3/3
f 201/5/3 197/5/3 200/5/3
f 202/3/3 200/3/3 198/3/3
f 203/3/3 200/3/3 202/3/3
f 206/5/3 205/5/3 204/5/3
f 207/5/3 205/5/3 206/5/3
f 208/5/3 205/5/3 207/5/3
f 211/5/3 210/5/3 209/5/3
f 213/5/3 210/5/3 211/5/3
f 214/5/3 213/5/3 212/5/3
f 215/5/3 210/5/3 213/5/3
f 215/5/3 213/5/3 214/5/3
f 218/3/3 217/3/3 216/3/3
f 219/3/3 217/3/3 218/3/3
f 222/3/3 221/3/3 220/3/3
f 223/3/3 221/3/3 222/3/3
f 226/5/3 225/5/3 224/5/3
f 227/5/3 225/5/3 226/5/3
f 230/5/3 229/5/3 228/5/3
f 231/5/3 229/5/3 230/5/3
f 233/2/3 231/2/3 230/2/3
f 234/5/3 232/5/3 231/5/3
f 234/2/3 231/2/3 233/2/3
f 235/5/3 232/5/3 234/5/3
f 236/5/3 232/5/3 235/5/3
f 237/5/3 235/5/3 234/5/3
f 238/5/3 235/5/3 237/5/3
f 241/5/3 240/5/3 239/5/3
f 242/5/3 240/5/3 241/5/3
f 243/5/3 241/5/3 239/5/3
f 244/5/3 241/5/3 243/5/3
f 247/5/3 246/5/3 245/5/3
f 248/5/3 246/5/3 247/5/3
f 252/1/3 250/1/3 249/1/3
f 253/5/3 251/5/3 250/5/3
f 253/1/3 250/1/3 252/1/3
f 254/5/3 251/5/3 253/5/3
f 257/5/3 256/5/3 255/5/3
f 258/5/3 256/5/3 257/5/3
f 259/5/3 256/5/3 258/5/3
f 262/5/3 261/5/3 260/5/3
f 263/5/3 261/5/3 262/5/3
f 266/5/3 265/5/3 264/5/3
f 267/5/3 265/5/3 266/5/3
f 270/5/3 269/5/3 268/5/3
f 271/5/3 269/5/3 270/5/3
f 272/5/4 273/5/4 274/5/4
f 274/5/4 273/5/4 275/5/4
f 276/5/4 277/5/4 278/5/4
f 278/5/4 277/5/4 279/5/4
f 280/5/4 281/5/4 282/5/4
f 282/5/4 281/5/4 283/5/4
f 284/5/4 285/5/4 286/5/4
f 286/5/4 285/5/4 287/5/4
f 287/5/4 285/5/4 288/5/4
f 288/5/4 285/5/4 289/5/4
f 290/2/4 291/2/4 293/2/4
f 291/5/4 292/5/4 294/5/4
f 293/2/4 291/2/4 294/2/4
f 294/5/4 292/5/4 295/5/4
f 296/5/4 297/5/4 298/5/4
f 298/5/4 297/5/4 299/5/4
f 300/5/4 301/5/4 304/5/4
f 302/1/4 303/1/4 305/1/4
f 303/5/4 304/5/4 306/5/4
f 305/1/4 303/1/4 306/1/4
f 304/5/4 301/5/4 307/5/4
f 306/5/4 304/5/4 307/5/4
f 307/5/4 301/5/4 308/5/4
f 306/5/4 307/5/4 309/5/4
f 306/5/4 309/5/4 311/5/4
f 309/5/4 310/5/4 311/5/4
f 311/5/4 310/5/4 312/5/4
f 313/5/4 314/5/4 315/5/4
f 315/5/4 314/5/4 316/5/4
f 316/5/4 314/5/4 317/5/4
f 318/3/4 319/3/4 320/3/4
f 320/3/4 319/3/4 321/3/4
f 322/3/4 323/3/4 324/3/4
f 324/3/4 323/3/4 325/3/4
f 326/1/4 327/1/4 329/1/4
f 327/5/4 328/5/4 330/5/4
f 329/1/4 327/1/4 330/1/4
f 330/5/4 328/5/4 331/5/4
f 332/5/4 333/5/4 334/5/4
f 334/5/4 333/5/4 335/5/4
f 336/3/4 337/3/4 339/3/4
f 337/5/4 338/5/4 339/5/4
f 339/5/4 338/5/4 340/5/4
f 336/3/4 339/3/4 341/3/4
f 341/3/4 339/3/4 342/3/4
f 343/5/4 344/5/4 345/5/4
f 345/5/4 344/5/4 347/5/4
f 346/3/4 347/3/4 348/3/4
f 347/5/4 344/5/4 349/5/4
f 348/3/4 347/3/4 349/3/4
f 349/5/4 344/5/4 350/5/4
f 351/5/4 352/5/4 353/5/4
f 353/5/4 352/5/4 354/5/4
f 355/3/4 356/3/4 357/3/4
f 357/3/4 356/3/4 358/3/4
f 363/3/5 360/3/5 359/3/5
f 364/3/5 360/3/5 363/3/5
f 365/3/5 360/3/5 364/3/5
f 367/3/5 365/3/5 364/3/5
f 367/3/5 366/3/5 365/3/5
f 368/3/5 366/3/5 367/3/5
f 369/3/5 362/3/5 361/3/5
f 369/4/5 363/4/5 362/4/5
f 369/4/5 364/4/5 363/4/5
f 370/3/5 367/3/5 364/3/5
f 370/4/5 364/4/5 369/4/5
f 371/3/5 366/3/5 368/3/5
f 374/3/5 369/3/5 361/3/5
f 374/3/5 370/3/5 369/3/5
f 375/5/5 372/5/5 371/5/5
f 375/3/5 371/3/5 368/3/5
f 376/5/5 372/5/5 375/5/5
f 378/3/5 367/3/5 370/3/5
f 378/4/5 368/4/5 367/4/5
f 378/3/5 374/3/5 373/3/5
f 378/3/5 370/3/5 374/3/5
f 379/3/5 377/3/5 376/3/5
f 379/4/5 368/4/5 378/4/5
f 379/3/5 376/3/5 375/3/5
f 379/3/5 375/3/5 368/3/5
f 380/3/5 378/3/5 373/3/5
f 380/3/5 379/3/5 378/3/5
f 381/3/5 377/3/5 379/3/5
f 381/3/5 379/3/5 380/3/5
f 382/3/5 380/3/5 373/3/5
f 383/3/5 380/3/5 382/3/5
f 384/3/5 382/3/5 373/3/5
f 384/4/5 383/4/5 382/4/5
f 385/3/5 380/3/5 383/3/5
f 385/4/5 383/4/5 384/4/5
f 386/3/5 384/3/5 373/3/5
f 386/3/5 385/3/5 384/3/5
f 387/3/5 385/3/5 386/3/5
f 388/3/5 385/3/5 387/3/5
f 389/3/5 385/3/5 388/3/5
f 390/4/5 381/4/5 380/4/5
f 390/3/5 385/3/5 389/3/5
f 390/3/5 380/3/5 385/3/5
f 391/3/5 377/3/5 381/3/5
f 391/4/5 381/4/5 390/4/5
f 392/3/5 377/3/5 391/3/5
f 393/3/5 377/3/5 392/3/5
f 394/4/5 389/4/5 388/4/5
f 394/3/5 388/3/5 387/3/5
f 395/3/5 390/3/5 389/3/5
f 395/4/5 389/4/5 394/4/5
f 395/3/5 392/3/5 391/3/5
f 395/3/5 391/3/5 390/3/5
f 396/3/5 392/3/5 395/3/5
f 397/3/5 392/3/5 396/3/5
f 398/3/5 394/3/5 387/3/5
f 398/3/5 395/3/5 394/3/5
f 398/3/5 396/3/5 395/3/5
f 399/3/5 396/3/5 398/3/5
f 400/3/5 392/3/5 397/3/5
f 401/3/5 392/3/5 400/3/5
f 402/3/5 396/3/5 399/3/5
f 402/4/5 397/4/5 396/4/5
f 403/3/5 400/3/5 397/3/5
f 403/4/5 397/4/5 402/4/5
f 404/3/5 402/3/5 399/3/5
f 404/3/5 403/3/5 402/3/5
f 405/3/5 400/3/5 403/3/5
f 405/3/5 403/3/5 404/3/5
f 406/3/6 407/3/6 409/3/6
f 408/3/6 409/3/6 412/3/6
f 412/3/6 409/3/6 413/3/6
f 409/3/6 407/3/6 414/3/6
f 413/3/6 409/3/6 414/3/6
f 410/3/6 411/3/6 417/3/6
f 412/4/6 413/4/6 418/4/6
f 417/3/6 411/3/6 418/3/6
f 411/4/6 412/4/6 418/4/6
f 418/4/6 413/4/6 419/4/6
f 415/3/6 416/3/6 420/3/6
f 420/3/6 416/3/6 421/3/6
f 419/4/6 413/4/6 422/4/6
f 422/4/6 413/4/6 423/4/6
f 420/4/6 421/4/6 425/4/6
f 421/3/6 416/3/6 426/3/6
f 425/4/6 421/4/6 426/4/6
f 426/3/6 416/3/6 427/3/6
f 410/3/6 417/3/6 429/3/6
f 423/3/6 424/3/6 430/3/6
f 422/3/6 423/3/6 430/3/6
f 420/4/6 425/4/6 431/4/6
f 428/3/6 429/3/6 434/3/6
f 429/3/6 417/3/6 435/3/6
f 434/3/6 429/3/6 435/3/6
f 422/3/6 430/3/6 437/3/6
f 437/3/6 430/3/6 438/3/6
f 438/3/6 430/3/6 439/3/6
f 431/4/6 425/4/6 440/4/6
f 440/4/6 425/4/6 441/4/6
f 440/3/6 441/3/6 442/3/6
f 442/3/6 441/3/6 443/3/6
f 435/3/6 436/3/6 444/3/6
f 444/3/6 436/3/6 445/3/6
f 442/4/6 443/4/6 447/4/6
f 446/4/6 447/4/6 448/4/6
f 447/4/6 443/4/6 449/4/6
f 448/4/6 447/4/6 449/4/6
f 444/4/6 445/4/6 451/4/6
f 451/4/6 445/4/6 452/4/6
f 450/3/6 451/3/6 453/3/6
f 451/3/6 452/3/6 453/3/6
f 453/3/6 452/3/6 454/3/6
f 446/4/6 448/4/6 457/4/6
f 457/4/6 448/4/6 458/4/6
f 449/4/6 443/4/6 459/4/6
f 432/3/6 433/3/6 461/3/6
f 450/3/6 453/3/6 462/3/6
f 462/3/6 453/3/6 463/3/6
f 455/3/6 456/3/6 464/3/6
f 464/3/6 456/3/6 465/3/6
f 449/4/6 459/4/6 466/4/6
f 459/4/6 460/4/6 466/4/6
f 460/3/6 461/3/6 467/3/6
f 466/4/6 460/4/6 467/4/6
f 467/3/6 461/3/6 468/3/6
f 461/3/6 433/3/6 469/3/6
f 468/3/6 461/3/6 469/3/6
f 467/3/6 468/3/6 471/3/6
f 466/3/6 467/3/6 471/3/6
f 464/4/6 465/4/6 472/4/6
f 472/4/6 465/4/6 473/4/6
f 470/3/6 471/3/6 474/3/6
f 471/3/6 468/3/6 475/3/6
f 474/3/6 471/3/6 475/3/6
f 472/3/6 473/3/6 476/3/6
f 472/3/6 476/3/6 478/3/6
f 476/3/6 477/3/6 478/3/6
f 478/3/6 477/3/6 479/3/6
f 479/3/6 477/3/6 483/3/6
f 480/4/6 481/4/6 484/4/6
f 481/3/6 482/3/6 485/3/6
f 484/4/6 481/4/6 485/4/6
f 483/3/6 484/3/6 486/3/6
f 479/3/6 483/3/6 486/3/6
f 484/3/6 485/3/6 486/3/6
f 485/3/6 482/3/6 487/3/6
f 486/3/6 485/3/6 487/3/6
f 488/5/6 489/5/6 490/5/6
f 490/5/6 489/5/6 491/5/6
f 492/2/6 493/2/6 497/2/6
f 497/2/6 493/2/6 498/2/6
f 495/5/6 496/5/6 499/5/6
f 494/5/6 495/5/6 499/5/6
f 499/5/6 496/5/6 500/5/6
f 501/5/6 502/5/6 504/5/6
f 502/5/6 503/5/6 504/5/6
f 501/5/6 504/5/6 505/5/6
f 501/5/6 505/5/6 507/5/6
f 505/5/6 506/5/6 507/5/6
f 507/5/6 506/5/6 508/5/6
f 508/5/6 506/5/6 509/5/6
f 509/5/6 506/5/6 510/5/6
f 510/5/6 506/5/6 511/5/6
f 512/5/6 513/5/6 516/5/6
f 516/5/6 513/5/6 517/5/6
f 514/5/6 515/5/6 518/5/6
f 518/5/6 515/5/6 519/5/6
f 520/5/6 521/5/6 523/5/6
f 523/5/6 521/5/6 524/5/6
f 522/5/6 523/5/6 525/5/6
f 525/5/6 523/5/6 526/5/6
f 527/5/6 528/5/6 529/5/6
f 529/5/6 528/5/6 530/5/6
f 531/5/6 532/5/6 533/5/6
f 533/5/6 532/5/6 534/5/6
f 534/5/6 532/5/6 535/5/6
f 535/5/6 532/5/6 536/5/6
f 537/5/6 538/5/6 541/5/6
f 541/5/6 538/5/6 542/5/6
f 539/5/6 540/5/6 546/5/6
f 546/5/6 540/5/6 547/5/6
f 544/5/6 545/5/6 548/5/6
f 543/5/6 544/5/6 548/5/6
f 548/5/6 545/5/6 549/5/6
f 550/5/6 551/5/6 552/5/6
f 552/5/6 551/5/6 553/5/6
f 554/5/6 555/5/6 556/5/6
f 556/5/6 555/5/6 557/5/6
f 558/5/6 559/5/6 560/5/6
f 560/5/6 559/5/6 561/5/6
