# MagicaVoxel @ Ephtracy

# group
o trash-can

# material
mtllib furniture.vox-0-trash-can.mtl
usemtl palette

# normals
vn -1 0 0
vn 1 0 0
vn 0 0 1
vn 0 0 -1
vn 0 -1 0
vn 0 1 0

# texcoords
vt 0.474609 0.5
vt 0.482422 0.5
vt 0.740234 0.5
vt 0.994141 0.5

# verts
v 1.8 1.5 1.2
v 1.8 1.5 -1.2
v 1.8 1.7 1.2
v 1.8 1.7 -1.2
v 1.9 0.1 1.1
v 1.9 0.1 -1.1
v 1.9 1.5 1.1
v 1.9 1.5 -1.1
v 2.3 1 -0.2
v 2.3 1 -0.6
v 2.3 1.2 -0.2
v 2.3 1.2 -0.6
v 2.4 1 -0.0999999
v 2.4 1 -0.2
v 2.4 1.2 -0.0999999
v 2.4 1.2 -0.2
v 2.6 1 0.4
v 2.6 1 0.1
v 2.6 1.1 0.4
v 2.6 1.1 0.1
v 2.8 1 0.5
v 2.8 1 0.4
v 2.8 1 0.1
v 2.8 1 0
v 2.8 1 -0.4
v 2.8 1 -0.6
v 2.8 1.1 0.4
v 2.8 1.1 0.1
v 2.8 1.2 0.5
v 2.8 1.2 0
v 2.8 1.3 -0.4
v 2.8 1.3 -0.6
v 2.9 1 -0.6
v 2.9 1 -0.7
v 2.9 1.3 -0.6
v 2.9 1.3 -0.7
v 3 1 0.1
v 3 1 -0.0999999
v 3 1.1 0.1
v 3 1.1 -0.0999999
v 3.1 1 -0.4
v 3.1 1 -0.6
v 3.1 1.1 -0.4
v 3.1 1.1 -0.6
v 3.3 1 -0.0999999
v 3.3 1 -0.4
v 3.3 1.1 -0.4
v 3.3 1.3 -0.0999999
v 3.3 1.3 -0.4
v 3.4 1 -0.4
v 3.4 1 -0.6
v 3.4 1.3 -0.4
v 3.4 1.3 -0.6
v 3.5 1 0
v 3.5 1 -0.0999999
v 3.5 1.1 0
v 3.5 1.1 -0.0999999
v 3.8 1 0.8
v 3.8 1 -0.8
v 3.8 1.7 0.8
v 3.8 1.7 -0.8
v 2.2 1 0.8
v 2.2 1 -0.8
v 2.2 1.7 0.8
v 2.2 1.7 -0.8
v 2.6 1 -0.0999999
v 2.6 1 -0.6
v 2.6 1.2 -0.0999999
v 2.6 1.2 -0.6
v 2.9 1 0.1
v 2.9 1 0
v 2.9 1.2 0.1
v 2.9 1.2 0
v 3 1 0.2
v 3 1 0.1
v 3 1 -0.4
v 3 1 -0.7
v 3 1.1 0.1
v 3 1.2 0.2
v 3 1.2 0.1
v 3 1.3 -0.4
v 3 1.3 -0.7
v 3.1 1 0.5
v 3.1 1 0.2
v 3.1 1.2 0.5
v 3.1 1.2 0.2
v 3.2 1 0.1
v 3.2 1 -0.0999999
v 3.2 1.1 0.1
v 3.2 1.1 -0.0999999
v 3.3 1 -0.4
v 3.3 1 -0.6
v 3.3 1.1 -0.4
v 3.3 1.1 -0.6
v 3.5 1 -0.5
v 3.5 1 -0.6
v 3.5 1.3 -0.5
v 3.5 1.3 -0.6
v 3.6 1 -0.2
v 3.6 1 -0.5
v 3.6 1.1 -0.0999999
v 3.6 1.1 -0.2
v 3.6 1.3 -0.0999999
v 3.6 1.3 -0.5
v 3.7 1 0
v 3.7 1 -0.2
v 3.7 1.1 0
v 3.7 1.1 -0.2
v 4.1 0.1 1.1
v 4.1 0.1 -1.1
v 4.1 1.5 1.1
v 4.1 1.5 -1.1
v 4.2 1.5 1.2
v 4.2 1.5 -1.2
v 4.2 1.7 1.2
v 4.2 1.7 -1.2
v 1.8 1.5 1.2
v 1.8 1.7 1.2
v 4.2 1.5 1.2
v 4.2 1.7 1.2
v 1.9 0.1 1.1
v 1.9 1.5 1.1
v 4.1 0.1 1.1
v 4.1 1.5 1.1
v 2.8 1 0.5
v 2.8 1.2 0.5
v 3.1 1 0.5
v 3.1 1.2 0.5
v 2.6 1 0.4
v 2.6 1.1 0.4
v 2.8 1 0.4
v 2.8 1.1 0.4
v 3 1 0.1
v 3 1.1 0.1
v 3.2 1 0.1
v 3.2 1.1 0.1
v 3.5 1 0
v 3.5 1.1 0
v 3.7 1 0
v 3.7 1.1 0
v 2.4 1 -0.0999999
v 2.4 1.2 -0.0999999
v 2.6 1 -0.0999999
v 2.6 1.2 -0.0999999
v 3.3 1 -0.0999999
v 3.3 1.3 -0.0999999
v 3.5 1 -0.0999999
v 3.5 1.1 -0.0999999
v 3.6 1.1 -0.0999999
v 3.6 1.3 -0.0999999
v 2.3 1 -0.2
v 2.3 1.2 -0.2
v 2.4 1 -0.2
v 2.4 1.2 -0.2
v 2.8 1 -0.4
v 2.8 1.3 -0.4
v 3 1 -0.4
v 3 1.3 -0.4
v 3.1 1 -0.4
v 3.1 1.1 -0.4
v 3.3 1 -0.4
v 3.3 1.1 -0.4
v 2.2 1 -0.8
v 2.2 1.7 -0.8
v 3.8 1 -0.8
v 3.8 1.7 -0.8
v 2.2 1 0.8
v 2.2 1.7 0.8
v 3.8 1 0.8
v 3.8 1.7 0.8
v 3 1 0.2
v 3 1.2 0.2
v 3.1 1 0.2
v 3.1 1.2 0.2
v 2.6 1 0.1
v 2.6 1.1 0.1
v 2.8 1 0.1
v 2.8 1.1 0.1
v 2.9 1 0.1
v 2.9 1.2 0.1
v 3 1 0.1
v 3 1.1 0.1
v 3 1.2 0.1
v 2.8 1 0
v 2.8 1.2 0
v 2.9 1 0
v 2.9 1.2 0
v 3 1 -0.0999999
v 3 1.1 -0.0999999
v 3.2 1 -0.0999999
v 3.2 1.1 -0.0999999
v 3.6 1 -0.2
v 3.6 1.1 -0.2
v 3.7 1 -0.2
v 3.7 1.1 -0.2
v 3.3 1 -0.4
v 3.3 1.1 -0.4
v 3.3 1.3 -0.4
v 3.4 1 -0.4
v 3.4 1.3 -0.4
v 3.5 1 -0.5
v 3.5 1.3 -0.5
v 3.6 1 -0.5
v 3.6 1.3 -0.5
v 2.3 1 -0.6
v 2.3 1.2 -0.6
v 2.6 1 -0.6
v 2.6 1.2 -0.6
v 2.8 1 -0.6
v 2.8 1.3 -0.6
v 2.9 1 -0.6
v 2.9 1.3 -0.6
v 3.1 1 -0.6
v 3.1 1.1 -0.6
v 3.3 1 -0.6
v 3.3 1.1 -0.6
v 3.4 1 -0.6
v 3.4 1.3 -0.6
v 3.5 1 -0.6
v 3.5 1.3 -0.6
v 2.9 1 -0.7
v 2.9 1.3 -0.7
v 3 1 -0.7
v 3 1.3 -0.7
v 1.9 0.1 -1.1
v 1.9 1.5 -1.1
v 4.1 0.1 -1.1
v 4.1 1.5 -1.1
v 1.8 1.5 -1.2
v 1.8 1.7 -1.2
v 4.2 1.5 -1.2
v 4.2 1.7 -1.2
v 1.9 0.1 1.1
v 4.1 0.1 1.1
v 1.9 0.1 -1.1
v 4.1 0.1 -1.1
v 1.8 1.5 1.2
v 4.2 1.5 1.2
v 1.9 1.5 1.1
v 4.1 1.5 1.1
v 1.9 1.5 -1.1
v 4.1 1.5 -1.1
v 1.8 1.5 -1.2
v 4.2 1.5 -1.2
v 2.2 1 0.8
v 3.8 1 0.8
v 2.8 1 0.5
v 3.1 1 0.5
v 2.6 1 0.4
v 2.8 1 0.4
v 3 1 0.2
v 3.1 1 0.2
v 2.6 1 0.1
v 2.8 1 0.1
v 2.9 1 0.1
v 3 1 0.1
v 3.2 1 0.1
v 2.8 1 0
v 2.9 1 0
v 3.5 1 0
v 3.7 1 0
v 2.4 1 -0.0999999
v 2.6 1 -0.0999999
v 3 1 -0.0999999
v 3.2 1 -0.0999999
v 3.3 1 -0.0999999
v 3.5 1 -0.0999999
v 2.3 1 -0.2
v 2.4 1 -0.2
v 3.6 1 -0.2
v 3.7 1 -0.2
v 2.8 1 -0.4
v 3 1 -0.4
v 3.1 1 -0.4
v 3.3 1 -0.4
v 3.4 1 -0.4
v 3.5 1 -0.5
v 3.6 1 -0.5
v 2.3 1 -0.6
v 2.6 1 -0.6
v 2.8 1 -0.6
v 2.9 1 -0.6
v 3.1 1 -0.6
v 3.3 1 -0.6
v 3.4 1 -0.6
v 3.5 1 -0.6
v 2.9 1 -0.7
v 3 1 -0.7
v 2.2 1 -0.8
v 3.8 1 -0.8
v 2.6 1.1 0.4
v 2.8 1.1 0.4
v 2.6 1.1 0.1
v 2.8 1.1 0.1
v 3 1.1 0.1
v 3.2 1.1 0.1
v 3.5 1.1 0
v 3.7 1.1 0
v 3 1.1 -0.0999999
v 3.2 1.1 -0.0999999
v 3.5 1.1 -0.0999999
v 3.6 1.1 -0.0999999
v 3.6 1.1 -0.2
v 3.7 1.1 -0.2
v 3.1 1.1 -0.4
v 3.3 1.1 -0.4
v 3.1 1.1 -0.6
v 3.3 1.1 -0.6
v 2.8 1.2 0.5
v 3.1 1.2 0.5
v 3 1.2 0.2
v 3.1 1.2 0.2
v 2.9 1.2 0.1
v 3 1.2 0.1
v 2.8 1.2 0
v 2.9 1.2 0
v 2.4 1.2 -0.0999999
v 2.6 1.2 -0.0999999
v 2.3 1.2 -0.2
v 2.4 1.2 -0.2
v 2.3 1.2 -0.6
v 2.6 1.2 -0.6
v 3.3 1.3 -0.0999999
v 3.6 1.3 -0.0999999
v 2.8 1.3 -0.4
v 3 1.3 -0.4
v 3.3 1.3 -0.4
v 3.4 1.3 -0.4
v 3.5 1.3 -0.5
v 3.6 1.3 -0.5
v 2.8 1.3 -0.6
v 2.9 1.3 -0.6
v 3.4 1.3 -0.6
v 3.5 1.3 -0.6
v 2.9 1.3 -0.7
v 3 1.3 -0.7
v 1.8 1.7 1.2
v 4.2 1.7 1.2
v 2.2 1.7 0.8
v 3.8 1.7 0.8
v 2.2 1.7 -0.8
v 3.8 1.7 -0.8
v 1.8 1.7 -1.2
v 4.2 1.7 -1.2

# faces
f 3/3/1 2/3/1 1/3/1
f 4/3/1 2/3/1 3/3/1
f 7/3/1 6/3/1 5/3/1
f 8/3/1 6/3/1 7/3/1
f 11/1/1 10/1/1 9/1/1
f 12/1/1 10/1/1 11/1/1
f 15/1/1 14/1/1 13/1/1
f 16/1/1 14/1/1 15/1/1
f 19/2/1 18/2/1 17/2/1
f 20/2/1 18/2/1 19/2/1
f 27/1/1 22/1/1 21/1/1
f 28/1/1 24/1/1 23/1/1
f 29/1/1 27/1/1 21/1/1
f 29/1/1 28/1/1 27/1/1
f 30/1/1 24/1/1 28/1/1
f 30/1/1 28/1/1 29/1/1
f 31/1/1 26/1/1 25/1/1
f 32/1/1 26/1/1 31/1/1
f 35/1/1 34/1/1 33/1/1
f 36/1/1 34/1/1 35/1/1
f 39/2/1 38/2/1 37/2/1
f 40/2/1 38/2/1 39/2/1
f 43/2/1 42/2/1 41/2/1
f 44/2/1 42/2/1 43/2/1
f 47/1/1 46/1/1 45/1/1
f 48/1/1 47/1/1 45/1/1
f 49/1/1 47/1/1 48/1/1
f 52/1/1 51/1/1 50/1/1
f 53/1/1 51/1/1 52/1/1
f 56/2/1 55/2/1 54/2/1
f 57/2/1 55/2/1 56/2/1
f 60/3/1 59/3/1 58/3/1
f 61/3/1 59/3/1 60/3/1
f 62/3/2 63/3/2 64/3/2
f 64/3/2 63/3/2 65/3/2
f 66/1/2 67/1/2 68/1/2
f 68/1/2 67/1/2 69/1/2
f 70/1/2 71/1/2 72/1/2
f 72/1/2 71/1/2 73/1/2
f 74/1/2 75/1/2 78/1/2
f 74/1/2 78/1/2 79/1/2
f 79/1/2 78/1/2 80/1/2
f 76/1/2 77/1/2 81/1/2
f 81/1/2 77/1/2 82/1/2
f 83/1/2 84/1/2 85/1/2
f 85/1/2 84/1/2 86/1/2
f 87/2/2 88/2/2 89/2/2
f 89/2/2 88/2/2 90/2/2
f 91/2/2 92/2/2 93/2/2
f 93/2/2 92/2/2 94/2/2
f 95/1/2 96/1/2 97/1/2
f 97/1/2 96/1/2 98/1/2
f 99/1/2 100/1/2 102/1/2
f 101/1/2 102/1/2 103/1/2
f 102/1/2 100/1/2 104/1/2
f 103/1/2 102/1/2 104/1/2
f 105/2/2 106/2/2 107/2/2
f 107/2/2 106/2/2 108/2/2
f 109/3/2 110/3/2 111/3/2
f 111/3/2 110/3/2 112/3/2
f 113/3/2 114/3/2 115/3/2
f 115/3/2 114/3/2 116/3/2
f 119/3/3 118/3/3 117/3/3
f 120/3/3 118/3/3 119/3/3
f 123/3/3 122/3/3 121/3/3
f 124/3/3 122/3/3 123/3/3
f 127/1/3 126/1/3 125/1/3
f 128/1/3 126/1/3 127/1/3
f 131/2/3 130/2/3 129/2/3
f 132/2/3 130/2/3 131/2/3
f 135/2/3 134/2/3 133/2/3
f 136/2/3 134/2/3 135/2/3
f 139/2/3 138/2/3 137/2/3
f 140/2/3 138/2/3 139/2/3
f 143/1/3 142/1/3 141/1/3
f 144/1/3 142/1/3 143/1/3
f 147/1/3 146/1/3 145/1/3
f 148/1/3 146/1/3 147/1/3
f 149/1/3 146/1/3 148/1/3
f 150/1/3 146/1/3 149/1/3
f 153/1/3 152/1/3 151/1/3
f 154/1/3 152/1/3 153/1/3
f 157/1/3 156/1/3 155/1/3
f 158/1/3 156/1/3 157/1/3
f 161/2/3 160/2/3 159/2/3
f 162/2/3 160/2/3 161/2/3
f 165/3/3 164/3/3 163/3/3
f 166/3/3 164/3/3 165/3/3
f 167/3/4 168/3/4 169/3/4
f 169/3/4 168/3/4 170/3/4
f 171/1/4 172/1/4 173/1/4
f 173/1/4 172/1/4 174/1/4
f 175/2/4 176/2/4 177/2/4
f 177/2/4 176/2/4 178/2/4
f 179/1/4 180/1/4 181/1/4
f 181/1/4 180/1/4 182/1/4
f 182/1/4 180/1/4 183/1/4
f 184/1/4 185/1/4 186/1/4
f 186/1/4 185/1/4 187/1/4
f 188/2/4 189/2/4 190/2/4
f 190/2/4 189/2/4 191/2/4
f 192/2/4 193/2/4 194/2/4
f 194/2/4 193/2/4 195/2/4
f 196/1/4 197/1/4 199/1/4
f 197/1/4 198/1/4 199/1/4
f 199/1/4 198/1/4 200/1/4
f 201/1/4 202/1/4 203/1/4
f 203/1/4 202/1/4 204/1/4
f 205/1/4 206/1/4 207/1/4
f 207/1/4 206/1/4 208/1/4
f 209/1/4 210/1/4 211/1/4
f 211/1/4 210/1/4 212/1/4
f 213/2/4 214/2/4 215/2/4
f 215/2/4 214/2/4 216/2/4
f 217/1/4 218/1/4 219/1/4
f 219/1/4 218/1/4 220/1/4
f 221/1/4 222/1/4 223/1/4
f 223/1/4 222/1/4 224/1/4
f 225/3/4 226/3/4 227/3/4
f 227/3/4 226/3/4 228/3/4
f 229/3/4 230/3/4 231/3/4
f 231/3/4 230/3/4 232/3/4
f 235/3/5 234/3/5 233/3/5
f 236/3/5 234/3/5 235/3/5
f 239/3/5 238/3/5 237/3/5
f 240/3/5 238/3/5 239/3/5
f 241/3/5 239/3/5 237/3/5
f 242/3/5 238/3/5 240/3/5
f 243/3/5 241/3/5 237/3/5
f 243/3/5 242/3/5 241/3/5
f 244/3/5 238/3/5 242/3/5
f 244/3/5 242/3/5 243/3/5
f 245/4/6 246/4/6 247/4/6
f 247/4/6 246/4/6 248/4/6
f 245/4/6 247/4/6 249/4/6
f 249/4/6 247/4/6 250/4/6
f 248/4/6 246/4/6 252/4/6
f 245/4/6 249/4/6 253/4/6
f 251/4/6 252/4/6 256/4/6
f 252/4/6 246/4/6 257/4/6
f 256/4/6 252/4/6 257/4/6
f 253/4/6 254/4/6 258/4/6
f 255/4/6 256/4/6 259/4/6
f 257/4/6 246/4/6 260/4/6
f 260/4/6 246/4/6 261/4/6
f 258/4/6 259/4/6 262/4/6
f 253/4/6 258/4/6 262/4/6
f 245/4/6 253/4/6 262/4/6
f 262/4/6 259/4/6 263/4/6
f 259/4/6 256/4/6 264/4/6
f 263/4/6 259/4/6 264/4/6
f 257/4/6 260/4/6 265/4/6
f 265/4/6 260/4/6 266/4/6
f 266/4/6 260/4/6 267/4/6
f 245/4/6 262/4/6 268/4/6
f 268/4/6 262/4/6 269/4/6
f 261/4/6 246/4/6 271/4/6
f 263/4/6 264/4/6 272/4/6
f 265/4/6 266/4/6 272/4/6
f 264/4/6 265/4/6 272/4/6
f 272/4/6 266/4/6 273/4/6
f 273/4/6 266/4/6 274/4/6
f 274/4/6 266/4/6 275/4/6
f 270/4/6 271/4/6 278/4/6
f 245/4/6 268/4/6 279/4/6
f 263/4/6 272/4/6 280/4/6
f 280/4/6 272/4/6 281/4/6
f 273/4/6 274/4/6 283/4/6
f 275/4/6 276/4/6 284/4/6
f 284/4/6 276/4/6 285/4/6
f 277/4/6 278/4/6 286/4/6
f 281/4/6 282/4/6 287/4/6
f 279/4/6 280/4/6 287/4/6
f 280/4/6 281/4/6 287/4/6
f 284/4/6 285/4/6 288/4/6
f 285/4/6 286/4/6 288/4/6
f 283/4/6 284/4/6 288/4/6
f 273/4/6 283/4/6 288/4/6
f 279/4/6 287/4/6 289/4/6
f 287/4/6 288/4/6 289/4/6
f 245/4/6 279/4/6 289/4/6
f 288/4/6 286/4/6 290/4/6
f 289/4/6 288/4/6 290/4/6
f 271/4/6 246/4/6 290/4/6
f 286/4/6 278/4/6 290/4/6
f 278/4/6 271/4/6 290/4/6
f 291/2/6 292/2/6 293/2/6
f 293/2/6 292/2/6 294/2/6
f 295/2/6 296/2/6 299/2/6
f 299/2/6 296/2/6 300/2/6
f 297/2/6 298/2/6 301/2/6
f 301/2/6 298/2/6 302/2/6
f 302/2/6 298/2/6 303/2/6
f 303/2/6 298/2/6 304/2/6
f 305/2/6 306/2/6 307/2/6
f 307/2/6 306/2/6 308/2/6
f 309/1/6 310/1/6 311/1/6
f 311/1/6 310/1/6 312/1/6
f 309/1/6 311/1/6 313/1/6
f 313/1/6 311/1/6 314/1/6
f 309/1/6 313/1/6 315/1/6
f 315/1/6 313/1/6 316/1/6
f 317/1/6 318/1/6 320/1/6
f 319/1/6 320/1/6 321/1/6
f 320/1/6 318/1/6 322/1/6
f 321/1/6 320/1/6 322/1/6
f 323/1/6 324/1/6 327/1/6
f 327/1/6 324/1/6 328/1/6
f 328/1/6 324/1/6 329/1/6
f 329/1/6 324/1/6 330/1/6
f 325/1/6 326/1/6 331/1/6
f 331/1/6 326/1/6 332/1/6
f 328/1/6 329/1/6 333/1/6
f 333/1/6 329/1/6 334/1/6
f 332/1/6 326/1/6 335/1/6
f 335/1/6 326/1/6 336/1/6
f 337/3/6 338/3/6 339/3/6
f 339/3/6 338/3/6 340/3/6
f 337/3/6 339/3/6 341/3/6
f 340/3/6 338/3/6 342/3/6
f 337/3/6 341/3/6 343/3/6
f 341/3/6 342/3/6 343/3/6
f 342/3/6 338/3/6 344/3/6
f 343/3/6 342/3/6 344/3/6
