# MagicaVoxel @ Ephtracy

# group
o floor_kitchen

# material
mtllib tutorial.vox-28-floor_kitchen.mtl
usemtl palette

# normals
vn -1 0 0
vn 1 0 0
vn 0 0 1
vn 0 0 -1
vn 0 -1 0
vn 0 1 0

# texcoords
vt 0.228516 0.5
vt 0.232422 0.5

# verts
v 2.6 0 14.7
v 2.6 0 14.1
v 2.6 0 14
v 2.6 0 13.4
v 2.6 0 13.3
v 2.6 0 12.7
v 2.6 0 12.6
v 2.6 0 12
v 2.6 0 11.9
v 2.6 0 11.3
v 2.6 0 11.2
v 2.6 0 10.6
v 2.6 0 10.5
v 2.6 0 9.9
v 2.6 0 9.8
v 2.6 0 9.2
v 2.6 0 9.1
v 2.6 0 8.5
v 2.6 0 8.4
v 2.6 0 7.8
v 2.6 0 7.7
v 2.6 0 7.1
v 2.6 0 7
v 2.6 0.1 14.7
v 2.6 0.1 14.1
v 2.6 0.1 14
v 2.6 0.1 13.4
v 2.6 0.1 13.3
v 2.6 0.1 12.7
v 2.6 0.1 12.6
v 2.6 0.1 12
v 2.6 0.1 11.9
v 2.6 0.1 11.3
v 2.6 0.1 11.2
v 2.6 0.1 10.6
v 2.6 0.1 10.5
v 2.6 0.1 9.9
v 2.6 0.1 9.8
v 2.6 0.1 9.2
v 2.6 0.1 9.1
v 2.6 0.1 8.5
v 2.6 0.1 8.4
v 2.6 0.1 7.8
v 2.6 0.1 7.7
v 2.6 0.1 7.1
v 2.6 0.1 7
v 9.8 0 14.7
v 9.8 0 7
v 9.8 0.1 14.7
v 9.8 0.1 7
v 2.6 0 14.7
v 2.6 0.1 14.7
v 9.7 0 14.7
v 9.7 0.1 14.7
v 9.8 0 14.7
v 9.8 0.1 14.7
v 2.6 0 7
v 2.6 0.1 7
v 9.8 0 7
v 9.8 0.1 7
v 2.6 0 14.7
v 9.7 0 14.7
v 9.8 0 14.7
v 2.6 0 14.1
v 9.7 0 14.1
v 2.6 0 14
v 9.7 0 14
v 2.6 0 13.4
v 9.7 0 13.4
v 2.6 0 13.3
v 9.7 0 13.3
v 2.6 0 12.7
v 9.7 0 12.7
v 2.6 0 12.6
v 9.7 0 12.6
v 2.6 0 12
v 9.7 0 12
v 2.6 0 11.9
v 9.7 0 11.9
v 2.6 0 11.3
v 9.7 0 11.3
v 2.6 0 11.2
v 9.7 0 11.2
v 2.6 0 10.6
v 9.7 0 10.6
v 2.6 0 10.5
v 9.7 0 10.5
v 2.6 0 9.9
v 9.7 0 9.9
v 2.6 0 9.8
v 9.7 0 9.8
v 2.6 0 9.2
v 9.7 0 9.2
v 2.6 0 9.1
v 9.7 0 9.1
v 2.6 0 8.5
v 9.7 0 8.5
v 2.6 0 8.4
v 9.7 0 8.4
v 2.6 0 7.8
v 9.7 0 7.8
v 2.6 0 7.7
v 9.7 0 7.7
v 2.6 0 7.1
v 9.7 0 7.1
v 2.6 0 7
v 9.8 0 7
v 2.6 0.1 14.7
v 9.7 0.1 14.7
v 9.8 0.1 14.7
v 2.6 0.1 14.1
v 9.7 0.1 14.1
v 2.6 0.1 14
v 9.7 0.1 14
v 2.6 0.1 13.4
v 9.7 0.1 13.4
v 2.6 0.1 13.3
v 9.7 0.1 13.3
v 2.6 0.1 12.7
v 9.7 0.1 12.7
v 2.6 0.1 12.6
v 9.7 0.1 12.6
v 2.6 0.1 12
v 9.7 0.1 12
v 2.6 0.1 11.9
v 9.7 0.1 11.9
v 2.6 0.1 11.3
v 9.7 0.1 11.3
v 2.6 0.1 11.2
v 9.7 0.1 11.2
v 2.6 0.1 10.6
v 9.7 0.1 10.6
v 2.6 0.1 10.5
v 9.7 0.1 10.5
v 2.6 0.1 9.9
v 9.7 0.1 9.9
v 2.6 0.1 9.8
v 9.7 0.1 9.8
v 2.6 0.1 9.2
v 9.7 0.1 9.2
v 2.6 0.1 9.1
v 9.7 0.1 9.1
v 2.6 0.1 8.5
v 9.7 0.1 8.5
v 2.6 0.1 8.4
v 9.7 0.1 8.4
v 2.6 0.1 7.8
v 9.7 0.1 7.8
v 2.6 0.1 7.7
v 9.7 0.1 7.7
v 2.6 0.1 7.1
v 9.7 0.1 7.1
v 2.6 0.1 7
v 9.8 0.1 7

# faces
f 24/1/1 2/1/1 1/1/1
f 25/2/1 3/2/1 2/2/1
f 25/1/1 2/1/1 24/1/1
f 26/1/1 4/1/1 3/1/1
f 26/2/1 3/2/1 25/2/1
f 27/2/1 5/2/1 4/2/1
f 27/1/1 4/1/1 26/1/1
f 28/1/1 6/1/1 5/1/1
f 28/2/1 5/2/1 27/2/1
f 29/2/1 7/2/1 6/2/1
f 29/1/1 6/1/1 28/1/1
f 30/1/1 8/1/1 7/1/1
f 30/2/1 7/2/1 29/2/1
f 31/2/1 9/2/1 8/2/1
f 31/1/1 8/1/1 30/1/1
f 32/1/1 10/1/1 9/1/1
f 32/2/1 9/2/1 31/2/1
f 33/2/1 11/2/1 10/2/1
f 33/1/1 10/1/1 32/1/1
f 34/1/1 12/1/1 11/1/1
f 34/2/1 11/2/1 33/2/1
f 35/2/1 13/2/1 12/2/1
f 35/1/1 12/1/1 34/1/1
f 36/1/1 14/1/1 13/1/1
f 36/2/1 13/2/1 35/2/1
f 37/2/1 15/2/1 14/2/1
f 37/1/1 14/1/1 36/1/1
f 38/1/1 16/1/1 15/1/1
f 38/2/1 15/2/1 37/2/1
f 39/2/1 17/2/1 16/2/1
f 39/1/1 16/1/1 38/1/1
f 40/1/1 18/1/1 17/1/1
f 40/2/1 17/2/1 39/2/1
f 41/2/1 19/2/1 18/2/1
f 41/1/1 18/1/1 40/1/1
f 42/1/1 20/1/1 19/1/1
f 42/2/1 19/2/1 41/2/1
f 43/2/1 21/2/1 20/2/1
f 43/1/1 20/1/1 42/1/1
f 44/1/1 22/1/1 21/1/1
f 44/2/1 21/2/1 43/2/1
f 45/2/1 23/2/1 22/2/1
f 45/1/1 22/1/1 44/1/1
f 46/2/1 23/2/1 45/2/1
f 47/2/2 48/2/2 49/2/2
f 49/2/2 48/2/2 50/2/2
f 53/1/3 52/1/3 51/1/3
f 54/1/3 52/1/3 53/1/3
f 55/2/3 54/2/3 53/2/3
f 56/2/3 54/2/3 55/2/3
f 57/2/4 58/2/4 59/2/4
f 59/2/4 58/2/4 60/2/4
f 64/1/5 62/1/5 61/1/5
f 65/2/5 63/2/5 62/2/5
f 65/1/5 62/1/5 64/1/5
f 66/2/5 65/2/5 64/2/5
f 67/2/5 63/2/5 65/2/5
f 67/2/5 65/2/5 66/2/5
f 68/1/5 67/1/5 66/1/5
f 69/2/5 63/2/5 67/2/5
f 69/1/5 67/1/5 68/1/5
f 70/2/5 69/2/5 68/2/5
f 71/2/5 63/2/5 69/2/5
f 71/2/5 69/2/5 70/2/5
f 72/1/5 71/1/5 70/1/5
f 73/2/5 63/2/5 71/2/5
f 73/1/5 71/1/5 72/1/5
f 74/2/5 73/2/5 72/2/5
f 75/2/5 63/2/5 73/2/5
f 75/2/5 73/2/5 74/2/5
f 76/1/5 75/1/5 74/1/5
f 77/2/5 63/2/5 75/2/5
f 77/1/5 75/1/5 76/1/5
f 78/2/5 77/2/5 76/2/5
f 79/2/5 63/2/5 77/2/5
f 79/2/5 77/2/5 78/2/5
f 80/1/5 79/1/5 78/1/5
f 81/2/5 63/2/5 79/2/5
f 81/1/5 79/1/5 80/1/5
f 82/2/5 81/2/5 80/2/5
f 83/2/5 63/2/5 81/2/5
f 83/2/5 81/2/5 82/2/5
f 84/1/5 83/1/5 82/1/5
f 85/2/5 63/2/5 83/2/5
f 85/1/5 83/1/5 84/1/5
f 86/2/5 85/2/5 84/2/5
f 87/2/5 63/2/5 85/2/5
f 87/2/5 85/2/5 86/2/5
f 88/1/5 87/1/5 86/1/5
f 89/2/5 63/2/5 87/2/5
f 89/1/5 87/1/5 88/1/5
f 90/2/5 89/2/5 88/2/5
f 91/2/5 63/2/5 89/2/5
f 91/2/5 89/2/5 90/2/5
f 92/1/5 91/1/5 90/1/5
f 93/2/5 63/2/5 91/2/5
f 93/1/5 91/1/5 92/1/5
f 94/2/5 93/2/5 92/2/5
f 95/2/5 63/2/5 93/2/5
f 95/2/5 93/2/5 94/2/5
f 96/1/5 95/1/5 94/1/5
f 97/2/5 63/2/5 95/2/5
f 97/1/5 95/1/5 96/1/5
f 98/2/5 97/2/5 96/2/5
f 99/2/5 63/2/5 97/2/5
f 99/2/5 97/2/5 98/2/5
f 100/1/5 99/1/5 98/1/5
f 101/2/5 63/2/5 99/2/5
f 101/1/5 99/1/5 100/1/5
f 102/2/5 101/2/5 100/2/5
f 103/2/5 63/2/5 101/2/5
f 103/2/5 101/2/5 102/2/5
f 104/1/5 103/1/5 102/1/5
f 105/2/5 63/2/5 103/2/5
f 105/1/5 103/1/5 104/1/5
f 106/2/5 105/2/5 104/2/5
f 107/2/5 63/2/5 105/2/5
f 107/2/5 105/2/5 106/2/5
f 108/1/6 109/1/6 111/1/6
f 109/2/6 110/2/6 112/2/6
f 111/1/6 109/1/6 112/1/6
f 111/2/6 112/2/6 113/2/6
f 112/2/6 110/2/6 114/2/6
f 113/2/6 112/2/6 114/2/6
f 113/1/6 114/1/6 115/1/6
f 114/2/6 110/2/6 116/2/6
f 115/1/6 114/1/6 116/1/6
f 115/2/6 116/2/6 117/2/6
f 116/2/6 110/2/6 118/2/6
f 117/2/6 116/2/6 118/2/6
f 117/1/6 118/1/6 119/1/6
f 118/2/6 110/2/6 120/2/6
f 119/1/6 118/1/6 120/1/6
f 119/2/6 120/2/6 121/2/6
f 120/2/6 110/2/6 122/2/6
f 121/2/6 120/2/6 122/2/6
f 121/1/6 122/1/6 123/1/6
f 122/2/6 110/2/6 124/2/6
f 123/1/6 122/1/6 124/1/6
f 123/2/6 124/2/6 125/2/6
f 124/2/6 110/2/6 126/2/6
f 125/2/6 124/2/6 126/2/6
f 125/1/6 126/1/6 127/1/6
f 126/2/6 110/2/6 128/2/6
f 127/1/6 126/1/6 128/1/6
f 127/2/6 128/2/6 129/2/6
f 128/2/6 110/2/6 130/2/6
f 129/2/6 128/2/6 130/2/6
f 129/1/6 130/1/6 131/1/6
f 130/2/6 110/2/6 132/2/6
f 131/1/6 130/1/6 132/1/6
f 131/2/6 132/2/6 133/2/6
f 132/2/6 110/2/6 134/2/6
f 133/2/6 132/2/6 134/2/6
f 133/1/6 134/1/6 135/1/6
f 134/2/6 110/2/6 136/2/6
f 135/1/6 134/1/6 136/1/6
f 135/2/6 136/2/6 137/2/6
f 136/2/6 110/2/6 138/2/6
f 137/2/6 136/2/6 138/2/6
f 137/1/6 138/1/6 139/1/6
f 138/2/6 110/2/6 140/2/6
f 139/1/6 138/1/6 140/1/6
f 139/2/6 140/2/6 141/2/6
f 140/2/6 110/2/6 142/2/6
f 141/2/6 140/2/6 142/2/6
f 141/1/6 142/1/6 143/1/6
f 142/2/6 110/2/6 144/2/6
f 143/1/6 142/1/6 144/1/6
f 143/2/6 144/2/6 145/2/6
f 144/2/6 110/2/6 146/2/6
f 145/2/6 144/2/6 146/2/6
f 145/1/6 146/1/6 147/1/6
f 146/2/6 110/2/6 148/2/6
f 147/1/6 146/1/6 148/1/6
f 147/2/6 148/2/6 149/2/6
f 148/2/6 110/2/6 150/2/6
f 149/2/6 148/2/6 150/2/6
f 149/1/6 150/1/6 151/1/6
f 150/2/6 110/2/6 152/2/6
f 151/1/6 150/1/6 152/1/6
f 151/2/6 152/2/6 153/2/6
f 152/2/6 110/2/6 154/2/6
f 153/2/6 152/2/6 154/2/6
