# MagicaVoxel @ Ephtracy

# group
o meat

# material
mtllib memorial-table.vox-0-meat.mtl
usemtl palette

# normals
vn -1 0 0
vn 1 0 0
vn 0 0 1
vn 0 0 -1
vn 0 -1 0
vn 0 1 0

# texcoords
vt 0.439453 0.5
vt 0.443359 0.5
vt 0.447266 0.5

# verts
v 23.4 1.8 0.6
v 23.4 1.8 -1.19209e-07
v 23.4 2.5 0.6
v 23.4 2.5 -1.19209e-07
v 23.6 1.8 0.8
v 23.6 1.8 0.6
v 23.6 1.8 -1.19209e-07
v 23.6 1.8 -0.4
v 23.6 2.5 0.8
v 23.6 2.5 0.6
v 23.6 2.5 -1.19209e-07
v 23.6 2.5 -0.4
v 23.8 1.8 -0.4
v 23.8 1.8 -0.6
v 23.8 2.5 -0.4
v 23.8 2.5 -0.6
v 23.9 1.8 1
v 23.9 1.8 0.8
v 23.9 2.5 1
v 23.9 2.5 0.8
v 24.2 1.8 -0.6
v 24.2 1.8 -0.7
v 24.2 1.8 -0.9
v 24.2 2.4 -0.6
v 24.2 2.4 -0.7
v 24.2 2.5 -0.6
v 24.2 2.5 -0.7
v 24.2 2.5 -0.9
v 24.5 1.8 -0.9
v 24.5 1.8 -1.1
v 24.5 2.5 -0.9
v 24.5 2.5 -1.1
v 24.7 1.8 -1.1
v 24.7 1.8 -1.3
v 24.7 2.5 -1.1
v 24.7 2.5 -1.3
v 25.1 1.8 0.7
v 25.1 1.8 0.5
v 25.1 2.5 0.7
v 25.1 2.5 0.5
v 25.5 1.8 0.9
v 25.5 1.8 0.7
v 25.5 2.5 0.9
v 25.5 2.5 0.7
v 25.8 1.8 1.1
v 25.8 1.8 0.9
v 25.8 2.5 1.1
v 25.8 2.5 0.9
v 26.1 1.8 1.2
v 26.1 1.8 1.1
v 26.1 2.5 1.2
v 26.1 2.5 1.1
v 24.4 1.8 1
v 24.4 1.8 0.8
v 24.4 2.5 1
v 24.4 2.5 0.8
v 24.6 1.8 0.8
v 24.6 1.8 0.6
v 24.6 2.5 0.8
v 24.6 2.5 0.6
v 24.8 1.8 0.6
v 24.8 1.8 0.5
v 24.8 2.5 0.6
v 24.8 2.5 0.5
v 25.6 1.8 -1.2
v 25.6 1.8 -1.3
v 25.6 2.5 -1.2
v 25.6 2.5 -1.3
v 26.1 1.8 -0.9
v 26.1 1.8 -1
v 26.1 1.8 -1.2
v 26.1 2.4 -0.9
v 26.1 2.4 -1
v 26.1 2.5 -0.9
v 26.1 2.5 -1
v 26.1 2.5 -1.2
v 26.3 1.8 -0.7
v 26.3 1.8 -0.9
v 26.3 2.5 -0.7
v 26.3 2.5 -0.9
v 26.5 1.8 1.2
v 26.5 1.8 1.1
v 26.5 1.8 -0.5
v 26.5 1.8 -0.7
v 26.5 2.5 1.2
v 26.5 2.5 1.1
v 26.5 2.5 -0.5
v 26.5 2.5 -0.7
v 26.7 1.8 1.1
v 26.7 1.8 0.9
v 26.7 1.8 -0.3
v 26.7 1.8 -0.5
v 26.7 2.5 1.1
v 26.7 2.5 0.9
v 26.7 2.5 -0.3
v 26.7 2.5 -0.5
v 26.9 1.8 0.9
v 26.9 1.8 0.7
v 26.9 1.8 -0.2
v 26.9 1.8 -0.3
v 26.9 2.5 0.9
v 26.9 2.5 0.7
v 26.9 2.5 -0.2
v 26.9 2.5 -0.3
v 27 1.8 0.7
v 27 1.8 0.6
v 27 1.8 0.0999999
v 27 1.8 -0.2
v 27 2.5 0.7
v 27 2.5 0.6
v 27 2.5 0.0999999
v 27 2.5 -0.2
v 27.1 1.8 0.6
v 27.1 1.8 0.0999999
v 27.1 2.5 0.6
v 27.1 2.5 0.0999999
v 26.1 1.8 1.2
v 26.1 2.5 1.2
v 26.5 1.8 1.2
v 26.5 2.5 1.2
v 25.8 1.8 1.1
v 25.8 2.5 1.1
v 26.1 1.8 1.1
v 26.1 2.5 1.1
v 26.5 1.8 1.1
v 26.5 2.5 1.1
v 26.7 1.8 1.1
v 26.7 2.5 1.1
v 23.9 1.8 1
v 23.9 2.5 1
v 24.4 1.8 1
v 24.4 2.5 1
v 25.5 1.8 0.9
v 25.5 2.5 0.9
v 25.8 1.8 0.9
v 25.8 2.5 0.9
v 26.7 1.8 0.9
v 26.7 2.5 0.9
v 26.9 1.8 0.9
v 26.9 2.5 0.9
v 23.6 1.8 0.8
v 23.6 2.5 0.8
v 23.9 1.8 0.8
v 23.9 2.5 0.8
v 24.4 1.8 0.8
v 24.4 2.5 0.8
v 24.6 1.8 0.8
v 24.6 2.5 0.8
v 25.1 1.8 0.7
v 25.1 2.5 0.7
v 25.5 1.8 0.7
v 25.5 2.5 0.7
v 26.9 1.8 0.7
v 26.9 2.5 0.7
v 27 1.8 0.7
v 27 2.5 0.7
v 23.4 1.8 0.6
v 23.4 2.5 0.6
v 23.6 1.8 0.6
v 23.6 2.5 0.6
v 24.6 1.8 0.6
v 24.6 2.5 0.6
v 24.8 1.8 0.6
v 24.8 2.5 0.6
v 27 1.8 0.6
v 27 2.5 0.6
v 27.1 1.8 0.6
v 27.1 2.5 0.6
v 24.8 1.8 0.5
v 24.8 2.5 0.5
v 25.1 1.8 0.5
v 25.1 2.5 0.5
v 27 1.8 0.0999999
v 27 2.5 0.0999999
v 27.1 1.8 0.0999999
v 27.1 2.5 0.0999999
v 23.4 1.8 -1.19209e-07
v 23.4 2.5 -1.19209e-07
v 23.6 1.8 -1.19209e-07
v 23.6 2.5 -1.19209e-07
v 26.9 1.8 -0.2
v 26.9 2.5 -0.2
v 27 1.8 -0.2
v 27 2.5 -0.2
v 26.7 1.8 -0.3
v 26.7 2.5 -0.3
v 26.9 1.8 -0.3
v 26.9 2.5 -0.3
v 23.6 1.8 -0.4
v 23.6 2.5 -0.4
v 23.8 1.8 -0.4
v 23.8 2.5 -0.4
v 26.5 1.8 -0.5
v 26.5 2.5 -0.5
v 26.7 1.8 -0.5
v 26.7 2.5 -0.5
v 23.8 1.8 -0.6
v 23.8 2.5 -0.6
v 24.2 1.8 -0.6
v 24.2 2.4 -0.6
v 24.2 2.5 -0.6
v 26.3 1.8 -0.7
v 26.3 2.5 -0.7
v 26.5 1.8 -0.7
v 26.5 2.5 -0.7
v 24.2 1.8 -0.9
v 24.2 2.5 -0.9
v 24.5 1.8 -0.9
v 24.5 2.5 -0.9
v 26.1 1.8 -0.9
v 26.1 2.4 -0.9
v 26.1 2.5 -0.9
v 26.3 1.8 -0.9
v 26.3 2.5 -0.9
v 24.5 1.8 -1.1
v 24.5 2.5 -1.1
v 24.7 1.8 -1.1
v 24.7 2.5 -1.1
v 25.6 1.8 -1.2
v 25.6 2.5 -1.2
v 26.1 1.8 -1.2
v 26.1 2.5 -1.2
v 24.7 1.8 -1.3
v 24.7 2.5 -1.3
v 25.6 1.8 -1.3
v 25.6 2.5 -1.3
v 26.1 1.8 1.2
v 26.5 1.8 1.2
v 25.8 1.8 1.1
v 26.1 1.8 1.1
v 26.5 1.8 1.1
v 26.7 1.8 1.1
v 23.9 1.8 1
v 24.4 1.8 1
v 26.1 1.8 1
v 26.5 1.8 1
v 25.5 1.8 0.9
v 25.8 1.8 0.9
v 26.1 1.8 0.9
v 26.5 1.8 0.9
v 26.7 1.8 0.9
v 26.9 1.8 0.9
v 23.6 1.8 0.8
v 23.9 1.8 0.8
v 24.4 1.8 0.8
v 24.6 1.8 0.8
v 25.1 1.8 0.7
v 25.5 1.8 0.7
v 25.8 1.8 0.7
v 26.7 1.8 0.7
v 26.8 1.8 0.7
v 26.9 1.8 0.7
v 27 1.8 0.7
v 23.4 1.8 0.6
v 23.6 1.8 0.6
v 23.9 1.8 0.6
v 24.4 1.8 0.6
v 24.6 1.8 0.6
v 24.8 1.8 0.6
v 27 1.8 0.6
v 27.1 1.8 0.6
v 24.8 1.8 0.5
v 25.1 1.8 0.5
v 25.5 1.8 0.5
v 26.8 1.8 0.5
v 26.9 1.8 0.5
v 24.6 1.8 0.4
v 24.8 1.8 0.4
v 24.8 1.8 0.3
v 25.1 1.8 0.3
v 26.8 1.8 0.0999999
v 26.9 1.8 0.0999999
v 27 1.8 0.0999999
v 27.1 1.8 0.0999999
v 23.4 1.8 -1.19209e-07
v 23.6 1.8 -1.19209e-07
v 23.8 1.8 -1.19209e-07
v 26.7 1.8 -0.1
v 26.8 1.8 -0.1
v 26.9 1.8 -0.2
v 27 1.8 -0.2
v 26.5 1.8 -0.3
v 26.7 1.8 -0.3
v 26.9 1.8 -0.3
v 23.6 1.8 -0.4
v 23.8 1.8 -0.4
v 24.2 1.8 -0.4
v 26.3 1.8 -0.5
v 26.5 1.8 -0.5
v 26.7 1.8 -0.5
v 23.8 1.8 -0.6
v 24.2 1.8 -0.6
v 24.2 1.8 -0.7
v 24.5 1.8 -0.7
v 26.1 1.8 -0.7
v 26.3 1.8 -0.7
v 26.5 1.8 -0.7
v 24.2 1.8 -0.9
v 24.5 1.8 -0.9
v 24.7 1.8 -0.9
v 26.1 1.8 -0.9
v 26.3 1.8 -0.9
v 25.6 1.8 -1
v 26.1 1.8 -1
v 24.5 1.8 -1.1
v 24.7 1.8 -1.1
v 25.6 1.8 -1.1
v 25.6 1.8 -1.2
v 26.1 1.8 -1.2
v 24.7 1.8 -1.3
v 25.6 1.8 -1.3
v 26.1 2.5 1.2
v 26.5 2.5 1.2
v 25.8 2.5 1.1
v 26.1 2.5 1.1
v 26.5 2.5 1.1
v 26.7 2.5 1.1
v 23.9 2.5 1
v 24.4 2.5 1
v 26.1 2.5 1
v 26.5 2.5 1
v 25.5 2.5 0.9
v 25.8 2.5 0.9
v 26.1 2.5 0.9
v 26.5 2.5 0.9
v 26.7 2.5 0.9
v 26.9 2.5 0.9
v 23.6 2.5 0.8
v 23.9 2.5 0.8
v 24.4 2.5 0.8
v 24.6 2.5 0.8
v 25.1 2.5 0.7
v 25.5 2.5 0.7
v 25.8 2.5 0.7
v 26.7 2.5 0.7
v 26.8 2.5 0.7
v 26.9 2.5 0.7
v 27 2.5 0.7
v 23.4 2.5 0.6
v 23.6 2.5 0.6
v 23.9 2.5 0.6
v 24.4 2.5 0.6
v 24.6 2.5 0.6
v 24.8 2.5 0.6
v 26.1 2.5 0.6
v 26.5 2.5 0.6
v 27 2.5 0.6
v 27.1 2.5 0.6
v 24.8 2.5 0.5
v 25.1 2.5 0.5
v 25.5 2.5 0.5
v 26 2.5 0.5
v 26.1 2.5 0.5
v 26.2 2.5 0.5
v 26.4 2.5 0.5
v 26.5 2.5 0.5
v 26.6 2.5 0.5
v 26.8 2.5 0.5
v 26.9 2.5 0.5
v 24.6 2.5 0.4
v 24.8 2.5 0.4
v 26.1 2.5 0.4
v 26.2 2.5 0.4
v 26.4 2.5 0.4
v 26.5 2.5 0.4
v 24.8 2.5 0.3
v 25.1 2.5 0.3
v 26.2 2.5 0.3
v 26.4 2.5 0.3
v 23.6 2.5 0.2
v 23.8 2.5 0.2
v 26.1 2.5 0.2
v 26.2 2.5 0.2
v 26.4 2.5 0.2
v 26.5 2.5 0.2
v 26 2.5 0.0999999
v 26.1 2.5 0.0999999
v 26.2 2.5 0.0999999
v 26.4 2.5 0.0999999
v 26.5 2.5 0.0999999
v 26.6 2.5 0.0999999
v 26.7 2.5 0.0999999
v 26.8 2.5 0.0999999
v 26.9 2.5 0.0999999
v 27 2.5 0.0999999
v 27.1 2.5 0.0999999
v 23.4 2.5 -1.19209e-07
v 23.6 2.5 -1.19209e-07
v 23.8 2.5 -1.19209e-07
v 26.1 2.5 -1.19209e-07
v 26.5 2.5 -1.19209e-07
v 26.5 2.5 -0.1
v 26.7 2.5 -0.1
v 26.8 2.5 -0.1
v 23.8 2.5 -0.2
v 24.2 2.5 -0.2
v 26.9 2.5 -0.2
v 27 2.5 -0.2
v 26.3 2.5 -0.3
v 26.5 2.5 -0.3
v 26.7 2.5 -0.3
v 26.9 2.5 -0.3
v 23.6 2.5 -0.4
v 23.8 2.5 -0.4
v 24.2 2.5 -0.4
v 24.2 2.5 -0.5
v 24.5 2.5 -0.5
v 26.1 2.5 -0.5
v 26.3 2.5 -0.5
v 26.5 2.5 -0.5
v 26.7 2.5 -0.5
v 23.8 2.5 -0.6
v 24.2 2.5 -0.6
v 24.2 2.5 -0.7
v 24.5 2.5 -0.7
v 24.7 2.5 -0.7
v 26.1 2.5 -0.7
v 26.3 2.5 -0.7
v 26.5 2.5 -0.7
v 25.6 2.5 -0.8
v 26.1 2.5 -0.8
v 24.2 2.5 -0.9
v 24.5 2.5 -0.9
v 24.7 2.5 -0.9
v 25.6 2.5 -0.9
v 26.1 2.5 -0.9
v 26.3 2.5 -0.9
v 25.6 2.5 -1
v 26.1 2.5 -1
v 24.5 2.5 -1.1
v 24.7 2.5 -1.1
v 25.6 2.5 -1.1
v 25.6 2.5 -1.2
v 26.1 2.5 -1.2
v 24.7 2.5 -1.3
v 25.6 2.5 -1.3

# faces
f 3/2/1 2/2/1 1/2/1
f 4/2/1 2/2/1 3/2/1
f 9/2/1 6/2/1 5/2/1
f 10/2/1 6/2/1 9/2/1
f 11/2/1 8/2/1 7/2/1
f 12/2/1 8/2/1 11/2/1
f 15/2/1 14/2/1 13/2/1
f 16/2/1 14/2/1 15/2/1
f 19/2/1 18/2/1 17/2/1
f 20/2/1 18/2/1 19/2/1
f 24/1/1 22/1/1 21/1/1
f 25/2/1 23/2/1 22/2/1
f 25/1/1 22/1/1 24/1/1
f 26/3/1 25/3/1 24/3/1
f 27/2/1 23/2/1 25/2/1
f 27/3/1 25/3/1 26/3/1
f 28/2/1 23/2/1 27/2/1
f 31/2/1 30/2/1 29/2/1
f 32/2/1 30/2/1 31/2/1
f 35/2/1 34/2/1 33/2/1
f 36/2/1 34/2/1 35/2/1
f 39/2/1 38/2/1 37/2/1
f 40/2/1 38/2/1 39/2/1
f 43/2/1 42/2/1 41/2/1
f 44/2/1 42/2/1 43/2/1
f 47/2/1 46/2/1 45/2/1
f 48/2/1 46/2/1 47/2/1
f 51/2/1 50/2/1 49/2/1
f 52/2/1 50/2/1 51/2/1
f 53/2/2 54/2/2 55/2/2
f 55/2/2 54/2/2 56/2/2
f 57/2/2 58/2/2 59/2/2
f 59/2/2 58/2/2 60/2/2
f 61/2/2 62/2/2 63/2/2
f 63/2/2 62/2/2 64/2/2
f 65/2/2 66/2/2 67/2/2
f 67/2/2 66/2/2 68/2/2
f 69/1/2 70/1/2 72/1/2
f 70/2/2 71/2/2 73/2/2
f 72/1/2 70/1/2 73/1/2
f 72/3/2 73/3/2 74/3/2
f 73/2/2 71/2/2 75/2/2
f 74/3/2 73/3/2 75/3/2
f 75/2/2 71/2/2 76/2/2
f 77/2/2 78/2/2 79/2/2
f 79/2/2 78/2/2 80/2/2
f 81/2/2 82/2/2 85/2/2
f 85/2/2 82/2/2 86/2/2
f 83/2/2 84/2/2 87/2/2
f 87/2/2 84/2/2 88/2/2
f 89/2/2 90/2/2 93/2/2
f 93/2/2 90/2/2 94/2/2
f 91/2/2 92/2/2 95/2/2
f 95/2/2 92/2/2 96/2/2
f 97/2/2 98/2/2 101/2/2
f 101/2/2 98/2/2 102/2/2
f 99/2/2 100/2/2 103/2/2
f 103/2/2 100/2/2 104/2/2
f 105/2/2 106/2/2 109/2/2
f 109/2/2 106/2/2 110/2/2
f 107/2/2 108/2/2 111/2/2
f 111/2/2 108/2/2 112/2/2
f 113/2/2 114/2/2 115/2/2
f 115/2/2 114/2/2 116/2/2
f 119/2/3 118/2/3 117/2/3
f 120/2/3 118/2/3 119/2/3
f 123/2/3 122/2/3 121/2/3
f 124/2/3 122/2/3 123/2/3
f 127/2/3 126/2/3 125/2/3
f 128/2/3 126/2/3 127/2/3
f 131/2/3 130/2/3 129/2/3
f 132/2/3 130/2/3 131/2/3
f 135/2/3 134/2/3 133/2/3
f 136/2/3 134/2/3 135/2/3
f 139/2/3 138/2/3 137/2/3
f 140/2/3 138/2/3 139/2/3
f 143/2/3 142/2/3 141/2/3
f 144/2/3 142/2/3 143/2/3
f 147/2/3 146/2/3 145/2/3
f 148/2/3 146/2/3 147/2/3
f 151/2/3 150/2/3 149/2/3
f 152/2/3 150/2/3 151/2/3
f 155/2/3 154/2/3 153/2/3
f 156/2/3 154/2/3 155/2/3
f 159/2/3 158/2/3 157/2/3
f 160/2/3 158/2/3 159/2/3
f 163/2/3 162/2/3 161/2/3
f 164/2/3 162/2/3 163/2/3
f 167/2/3 166/2/3 165/2/3
f 168/2/3 166/2/3 167/2/3
f 171/2/3 170/2/3 169/2/3
f 172/2/3 170/2/3 171/2/3
f 173/2/4 174/2/4 175/2/4
f 175/2/4 174/2/4 176/2/4
f 177/2/4 178/2/4 179/2/4
f 179/2/4 178/2/4 180/2/4
f 181/2/4 182/2/4 183/2/4
f 183/2/4 182/2/4 184/2/4
f 185/2/4 186/2/4 187/2/4
f 187/2/4 186/2/4 188/2/4
f 189/2/4 190/2/4 191/2/4
f 191/2/4 190/2/4 192/2/4
f 193/2/4 194/2/4 195/2/4
f 195/2/4 194/2/4 196/2/4
f 197/2/4 198/2/4 199/2/4
f 199/2/4 198/2/4 200/2/4
f 200/2/4 198/2/4 201/2/4
f 202/2/4 203/2/4 204/2/4
f 204/2/4 203/2/4 205/2/4
f 206/2/4 207/2/4 208/2/4
f 208/2/4 207/2/4 209/2/4
f 210/2/4 211/2/4 213/2/4
f 211/2/4 212/2/4 213/2/4
f 213/2/4 212/2/4 214/2/4
f 215/2/4 216/2/4 217/2/4
f 217/2/4 216/2/4 218/2/4
f 219/2/4 220/2/4 221/2/4
f 221/2/4 220/2/4 222/2/4
f 223/2/4 224/2/4 225/2/4
f 225/2/4 224/2/4 226/2/4
f 230/2/5 228/2/5 227/2/5
f 231/2/5 228/2/5 230/2/5
f 235/2/5 230/2/5 229/2/5
f 235/2/5 231/2/5 230/2/5
f 235/2/5 232/2/5 231/2/5
f 236/2/5 232/2/5 235/2/5
f 238/2/5 235/2/5 229/2/5
f 239/1/5 236/1/5 235/1/5
f 239/2/5 235/2/5 238/2/5
f 240/2/5 232/2/5 236/2/5
f 240/1/5 236/1/5 239/1/5
f 241/2/5 232/2/5 240/2/5
f 244/2/5 234/2/5 233/2/5
f 245/2/5 234/2/5 244/2/5
f 248/2/5 238/2/5 237/2/5
f 249/1/5 239/1/5 238/1/5
f 249/1/5 240/1/5 239/1/5
f 249/2/5 238/2/5 248/2/5
f 249/1/5 241/1/5 240/1/5
f 250/2/5 242/2/5 241/2/5
f 250/1/5 241/1/5 249/1/5
f 251/2/5 242/2/5 250/2/5
f 252/2/5 242/2/5 251/2/5
f 255/2/5 244/2/5 243/2/5
f 256/1/5 245/1/5 244/1/5
f 256/2/5 244/2/5 255/2/5
f 257/2/5 246/2/5 245/2/5
f 257/1/5 245/1/5 256/1/5
f 258/2/5 246/2/5 257/2/5
f 260/2/5 253/2/5 252/2/5
f 260/2/5 252/2/5 251/2/5
f 262/2/5 259/2/5 258/2/5
f 263/2/5 248/2/5 247/2/5
f 264/1/5 249/1/5 248/1/5
f 264/1/5 250/1/5 249/1/5
f 264/2/5 248/2/5 263/2/5
f 264/1/5 251/1/5 250/1/5
f 265/2/5 261/2/5 260/2/5
f 265/1/5 251/1/5 264/1/5
f 265/2/5 260/2/5 251/2/5
f 266/2/5 261/2/5 265/2/5
f 267/2/5 263/2/5 262/2/5
f 267/2/5 262/2/5 258/2/5
f 267/1/5 256/1/5 255/1/5
f 267/1/5 257/1/5 256/1/5
f 267/1/5 258/1/5 257/1/5
f 268/2/5 263/2/5 267/2/5
f 269/1/5 268/1/5 267/1/5
f 269/2/5 263/2/5 268/2/5
f 270/1/5 266/1/5 265/1/5
f 270/2/5 263/2/5 269/2/5
f 270/1/5 265/1/5 264/1/5
f 270/1/5 264/1/5 263/1/5
f 271/1/5 270/1/5 269/1/5
f 271/1/5 266/1/5 270/1/5
f 272/2/5 261/2/5 266/2/5
f 272/1/5 266/1/5 271/1/5
f 273/2/5 261/2/5 272/2/5
f 274/2/5 261/2/5 273/2/5
f 275/2/5 255/2/5 254/2/5
f 276/1/5 271/1/5 269/1/5
f 276/2/5 255/2/5 275/2/5
f 276/1/5 269/1/5 267/1/5
f 276/1/5 267/1/5 255/1/5
f 277/1/5 271/1/5 276/1/5
f 278/1/5 271/1/5 277/1/5
f 279/2/5 273/2/5 272/2/5
f 279/1/5 271/1/5 278/1/5
f 279/2/5 272/2/5 271/2/5
f 280/2/5 279/2/5 278/2/5
f 280/2/5 273/2/5 279/2/5
f 281/2/5 273/2/5 280/2/5
f 282/1/5 278/1/5 277/1/5
f 283/2/5 280/2/5 278/2/5
f 283/1/5 278/1/5 282/1/5
f 284/2/5 280/2/5 283/2/5
f 285/2/5 277/2/5 276/2/5
f 286/1/5 282/1/5 277/1/5
f 286/2/5 277/2/5 285/2/5
f 287/1/5 282/1/5 286/1/5
f 288/1/5 282/1/5 287/1/5
f 289/2/5 283/2/5 282/2/5
f 289/1/5 282/1/5 288/1/5
f 290/2/5 283/2/5 289/2/5
f 291/2/5 287/2/5 286/2/5
f 292/1/5 288/1/5 287/1/5
f 292/2/5 287/2/5 291/2/5
f 293/1/5 288/1/5 292/1/5
f 294/1/5 288/1/5 293/1/5
f 295/1/5 288/1/5 294/1/5
f 296/2/5 289/2/5 288/2/5
f 296/1/5 288/1/5 295/1/5
f 297/2/5 289/2/5 296/2/5
f 298/2/5 294/2/5 293/2/5
f 299/1/5 295/1/5 294/1/5
f 299/2/5 294/2/5 298/2/5
f 300/1/5 295/1/5 299/1/5
f 301/2/5 296/2/5 295/2/5
f 301/1/5 295/1/5 300/1/5
f 302/2/5 296/2/5 301/2/5
f 303/1/5 301/1/5 300/1/5
f 304/1/5 301/1/5 303/1/5
f 305/2/5 300/2/5 299/2/5
f 306/1/5 303/1/5 300/1/5
f 306/2/5 300/2/5 305/2/5
f 307/2/5 304/2/5 303/2/5
f 307/1/5 303/1/5 306/1/5
f 308/2/5 304/2/5 307/2/5
f 308/2/5 307/2/5 306/2/5
f 309/2/5 304/2/5 308/2/5
f 310/2/5 308/2/5 306/2/5
f 311/2/5 308/2/5 310/2/5
f 312/2/6 313/2/6 315/2/6
f 315/2/6 313/2/6 316/2/6
f 314/2/6 315/2/6 320/2/6
f 315/2/6 316/2/6 320/2/6
f 316/2/6 317/2/6 320/2/6
f 320/2/6 317/2/6 321/2/6
f 314/2/6 320/2/6 323/2/6
f 320/1/6 321/1/6 324/1/6
f 323/2/6 320/2/6 324/2/6
f 321/2/6 317/2/6 325/2/6
f 324/1/6 321/1/6 325/1/6
f 325/2/6 317/2/6 326/2/6
f 318/2/6 319/2/6 329/2/6
f 329/2/6 319/2/6 330/2/6
f 322/2/6 323/2/6 333/2/6
f 323/1/6 324/1/6 334/1/6
f 324/1/6 325/1/6 334/1/6
f 333/2/6 323/2/6 334/2/6
f 325/1/6 326/1/6 334/1/6
f 326/2/6 327/2/6 335/2/6
f 334/1/6 326/1/6 335/1/6
f 335/2/6 327/2/6 336/2/6
f 336/2/6 327/2/6 337/2/6
f 328/2/6 329/2/6 340/2/6
f 329/1/6 330/1/6 341/1/6
f 340/2/6 329/2/6 341/2/6
f 330/2/6 331/2/6 342/2/6
f 341/1/6 330/1/6 342/1/6
f 342/2/6 331/2/6 343/2/6
f 333/1/6 334/1/6 345/1/6
f 334/1/6 335/1/6 345/1/6
f 335/1/6 336/1/6 345/1/6
f 345/1/6 336/1/6 346/1/6
f 337/2/6 338/2/6 347/2/6
f 336/2/6 337/2/6 347/2/6
f 343/2/6 344/2/6 349/2/6
f 332/2/6 333/2/6 350/2/6
f 333/1/6 345/1/6 351/1/6
f 350/2/6 333/2/6 351/2/6
f 351/1/6 345/1/6 352/1/6
f 345/2/6 346/2/6 353/2/6
f 352/1/6 345/1/6 353/1/6
f 353/2/6 346/2/6 354/2/6
f 354/2/6 346/2/6 355/2/6
f 346/1/6 336/1/6 356/1/6
f 355/2/6 346/2/6 356/2/6
f 356/1/6 336/1/6 357/1/6
f 347/2/6 348/2/6 358/2/6
f 357/1/6 336/1/6 358/1/6
f 336/2/6 347/2/6 358/2/6
f 358/2/6 348/2/6 359/2/6
f 343/2/6 349/2/6 360/2/6
f 340/1/6 341/1/6 360/1/6
f 342/1/6 343/1/6 360/1/6
f 341/1/6 342/1/6 360/1/6
f 349/2/6 350/2/6 360/2/6
f 360/2/6 350/2/6 361/2/6
f 353/2/6 354/2/6 362/2/6
f 352/2/6 353/2/6 362/2/6
f 354/1/6 355/1/6 363/1/6
f 362/2/6 354/2/6 363/2/6
f 356/2/6 357/2/6 364/2/6
f 363/1/6 355/1/6 364/1/6
f 355/2/6 356/2/6 364/2/6
f 364/2/6 357/2/6 365/2/6
f 361/2/6 350/2/6 366/2/6
f 360/1/6 361/1/6 366/1/6
f 351/1/6 352/1/6 367/1/6
f 366/2/6 350/2/6 367/2/6
f 350/1/6 351/1/6 367/1/6
f 362/3/6 363/3/6 368/3/6
f 364/1/6 365/1/6 368/1/6
f 363/1/6 364/1/6 368/1/6
f 368/1/6 365/1/6 369/1/6
f 339/2/6 340/2/6 370/2/6
f 360/1/6 366/1/6 370/1/6
f 366/1/6 367/1/6 370/1/6
f 340/1/6 360/1/6 370/1/6
f 370/1/6 367/1/6 371/1/6
f 352/2/6 362/2/6 372/2/6
f 368/3/6 369/3/6 372/3/6
f 362/3/6 368/3/6 372/3/6
f 372/3/6 369/3/6 373/3/6
f 369/1/6 365/1/6 374/1/6
f 373/3/6 369/3/6 374/3/6
f 365/2/6 357/2/6 375/2/6
f 374/1/6 365/1/6 375/1/6
f 367/1/6 352/1/6 376/1/6
f 372/2/6 373/2/6 376/2/6
f 371/1/6 367/1/6 376/1/6
f 352/2/6 372/2/6 376/2/6
f 376/2/6 373/2/6 377/2/6
f 373/3/6 374/3/6 378/3/6
f 377/2/6 373/2/6 378/2/6
f 374/2/6 375/2/6 379/2/6
f 378/3/6 374/3/6 379/3/6
f 375/2/6 357/2/6 380/2/6
f 379/2/6 375/2/6 380/2/6
f 358/1/6 359/1/6 381/1/6
f 380/2/6 357/2/6 381/2/6
f 357/1/6 358/1/6 381/1/6
f 381/1/6 359/1/6 382/1/6
f 382/1/6 359/1/6 383/1/6
f 359/2/6 348/2/6 384/2/6
f 383/1/6 359/1/6 384/1/6
f 384/2/6 348/2/6 385/2/6
f 385/2/6 348/2/6 386/2/6
f 339/2/6 370/2/6 387/2/6
f 370/3/6 371/3/6 388/3/6
f 387/2/6 370/2/6 388/2/6
f 371/1/6 376/1/6 389/1/6
f 388/3/6 371/3/6 389/3/6
f 376/1/6 377/1/6 389/1/6
f 378/2/6 379/2/6 390/2/6
f 389/1/6 377/1/6 390/1/6
f 379/2/6 380/2/6 390/2/6
f 377/2/6 378/2/6 390/2/6
f 381/1/6 382/1/6 391/1/6
f 390/2/6 380/2/6 391/2/6
f 380/1/6 381/1/6 391/1/6
f 389/1/6 390/1/6 392/1/6
f 391/1/6 382/1/6 392/1/6
f 390/1/6 391/1/6 392/1/6
f 382/3/6 383/3/6 393/3/6
f 392/1/6 382/1/6 393/1/6
f 383/2/6 384/2/6 394/2/6
f 393/3/6 383/3/6 394/3/6
f 384/2/6 385/2/6 394/2/6
f 388/2/6 389/2/6 395/2/6
f 389/1/6 392/1/6 395/1/6
f 395/1/6 392/1/6 396/1/6
f 394/2/6 385/2/6 397/2/6
f 393/2/6 394/2/6 397/2/6
f 397/2/6 385/2/6 398/2/6
f 396/1/6 392/1/6 399/1/6
f 392/3/6 393/3/6 400/3/6
f 399/1/6 392/1/6 400/1/6
f 393/2/6 397/2/6 401/2/6
f 400/3/6 393/3/6 401/3/6
f 401/2/6 397/2/6 402/2/6
f 388/2/6 395/2/6 403/2/6
f 395/3/6 396/3/6 404/3/6
f 403/2/6 395/2/6 404/2/6
f 396/1/6 399/1/6 405/1/6
f 404/3/6 396/3/6 405/3/6
f 405/1/6 399/1/6 406/1/6
f 404/2/6 405/2/6 406/2/6
f 406/1/6 399/1/6 407/1/6
f 407/1/6 399/1/6 408/1/6
f 399/3/6 400/3/6 409/3/6
f 408/1/6 399/1/6 409/1/6
f 400/2/6 401/2/6 410/2/6
f 409/3/6 400/3/6 410/3/6
f 410/2/6 401/2/6 411/2/6
f 404/2/6 406/2/6 412/2/6
f 406/3/6 407/3/6 413/3/6
f 412/2/6 406/2/6 413/2/6
f 413/3/6 407/3/6 414/3/6
f 407/1/6 408/1/6 415/1/6
f 414/3/6 407/3/6 415/3/6
f 415/1/6 408/1/6 416/1/6
f 408/3/6 409/3/6 417/3/6
f 416/1/6 408/1/6 417/1/6
f 409/2/6 410/2/6 418/2/6
f 417/3/6 409/3/6 418/3/6
f 418/2/6 410/2/6 419/2/6
f 416/1/6 417/1/6 420/1/6
f 417/2/6 418/2/6 421/2/6
f 420/1/6 417/1/6 421/1/6
f 414/2/6 415/2/6 422/2/6
f 415/3/6 416/3/6 423/3/6
f 422/2/6 415/2/6 423/2/6
f 416/1/6 420/1/6 424/1/6
f 423/3/6 416/3/6 424/3/6
f 420/3/6 421/3/6 425/3/6
f 424/1/6 420/1/6 425/1/6
f 421/2/6 418/2/6 426/2/6
f 425/3/6 421/3/6 426/3/6
f 426/2/6 418/2/6 427/2/6
f 424/3/6 425/3/6 428/3/6
f 425/3/6 426/3/6 428/3/6
f 428/3/6 426/3/6 429/3/6
f 423/2/6 424/2/6 430/2/6
f 424/3/6 428/3/6 431/3/6
f 430/2/6 424/2/6 431/2/6
f 428/2/6 429/2/6 432/2/6
f 431/3/6 428/3/6 432/3/6
f 432/2/6 429/2/6 433/2/6
f 431/2/6 432/2/6 433/2/6
f 433/2/6 429/2/6 434/2/6
f 431/2/6 433/2/6 435/2/6
f 435/2/6 433/2/6 436/2/6
