# MagicaVoxel @ Ephtracy

# group
o z-jangjorim

# material
mtllib food.vox-5-z-jangjorim.mtl
usemtl palette

# normals
vn -1 0 0
vn 1 0 0
vn 0 0 1
vn 0 0 -1
vn 0 -1 0
vn 0 1 0

# texcoords
vt 0.0957031 0.5
vt 0.0996094 0.5
vt 0.103516 0.5
vt 0.107422 0.5

# verts
v -10.5 0.1 -20.6
v -10.5 0.1 -21.4
v -10.5 0.2 -20.6
v -10.5 0.2 -21.4
v -10.3 0.1 -20.2
v -10.3 0.1 -20.6
v -10.3 0.1 -21.4
v -10.3 0.1 -21.8
v -10.3 0.2 -20.2
v -10.3 0.2 -20.6
v -10.3 0.2 -21.4
v -10.3 0.2 -21.8
v -10.2 0.2 -20.2
v -10.2 0.2 -20.5
v -10.2 0.3 -20.2
v -10.2 0.3 -20.5
v -9.9 0.1 -20
v -9.9 0.1 -20.2
v -9.9 0.1 -21.8
v -9.9 0.1 -22
v -9.9 0.2 -20
v -9.9 0.2 -20.2
v -9.9 0.2 -20.9
v -9.9 0.2 -21.5
v -9.9 0.2 -21.8
v -9.9 0.2 -22
v -9.9 0.3 -20.9
v -9.9 0.3 -21.5
v -9.4 0.2 -21.2
v -9.4 0.2 -21.6
v -9.4 0.3 -21.2
v -9.4 0.3 -21.6
v -9.2 0.2 -20.6
v -9.2 0.2 -21
v -9.2 0.3 -20.6
v -9.2 0.3 -21
v -9.6 0.2 -20.2
v -9.6 0.2 -20.5
v -9.6 0.2 -20.9
v -9.6 0.2 -21.5
v -9.6 0.3 -20.2
v -9.6 0.3 -20.5
v -9.6 0.3 -20.9
v -9.6 0.3 -21.5
v -9.1 0.1 -20
v -9.1 0.1 -20.2
v -9.1 0.1 -21.8
v -9.1 0.1 -22
v -9.1 0.2 -20
v -9.1 0.2 -20.2
v -9.1 0.2 -21.8
v -9.1 0.2 -22
v -8.9 0.2 -21.2
v -8.9 0.2 -21.6
v -8.9 0.3 -21.2
v -8.9 0.3 -21.6
v -8.7 0.1 -20.2
v -8.7 0.1 -20.6
v -8.7 0.1 -21.4
v -8.7 0.1 -21.8
v -8.7 0.2 -20.2
v -8.7 0.2 -20.6
v -8.7 0.2 -21
v -8.7 0.2 -21.4
v -8.7 0.2 -21.8
v -8.7 0.3 -20.6
v -8.7 0.3 -21
v -8.5 0.1 -20.6
v -8.5 0.1 -21.4
v -8.5 0.2 -20.6
v -8.5 0.2 -21.4
v -9.9 0.1 -20
v -9.9 0.2 -20
v -9.1 0.1 -20
v -9.1 0.2 -20
v -10.3 0.1 -20.2
v -10.3 0.2 -20.2
v -10.2 0.2 -20.2
v -10.2 0.3 -20.2
v -9.9 0.1 -20.2
v -9.9 0.2 -20.2
v -9.6 0.2 -20.2
v -9.6 0.3 -20.2
v -9.1 0.1 -20.2
v -9.1 0.2 -20.2
v -8.7 0.1 -20.2
v -8.7 0.2 -20.2
v -10.5 0.1 -20.6
v -10.5 0.2 -20.6
v -10.3 0.1 -20.6
v -10.3 0.2 -20.6
v -9.2 0.2 -20.6
v -9.2 0.3 -20.6
v -8.7 0.1 -20.6
v -8.7 0.2 -20.6
v -8.7 0.3 -20.6
v -8.5 0.1 -20.6
v -8.5 0.2 -20.6
v -9.9 0.2 -20.9
v -9.9 0.3 -20.9
v -9.6 0.2 -20.9
v -9.6 0.3 -20.9
v -9.4 0.2 -21.2
v -9.4 0.3 -21.2
v -8.9 0.2 -21.2
v -8.9 0.3 -21.2
v -10.2 0.2 -20.5
v -10.2 0.3 -20.5
v -9.6 0.2 -20.5
v -9.6 0.3 -20.5
v -9.2 0.2 -21
v -9.2 0.3 -21
v -8.7 0.2 -21
v -8.7 0.3 -21
v -10.5 0.1 -21.4
v -10.5 0.2 -21.4
v -10.3 0.1 -21.4
v -10.3 0.2 -21.4
v -8.7 0.1 -21.4
v -8.7 0.2 -21.4
v -8.5 0.1 -21.4
v -8.5 0.2 -21.4
v -9.9 0.2 -21.5
v -9.9 0.3 -21.5
v -9.6 0.2 -21.5
v -9.6 0.3 -21.5
v -9.4 0.2 -21.6
v -9.4 0.3 -21.6
v -9.3 0.2 -21.6
v -8.9 0.2 -21.6
v -8.9 0.3 -21.6
v -10.3 0.1 -21.8
v -10.3 0.2 -21.8
v -9.9 0.1 -21.8
v -9.9 0.2 -21.8
v -9.1 0.1 -21.8
v -9.1 0.2 -21.8
v -8.7 0.1 -21.8
v -8.7 0.2 -21.8
v -9.9 0.1 -22
v -9.9 0.2 -22
v -9.1 0.1 -22
v -9.1 0.2 -22
v -9.9 0.1 -20
v -9.1 0.1 -20
v -10.3 0.1 -20.2
v -9.9 0.1 -20.2
v -9.1 0.1 -20.2
v -8.7 0.1 -20.2
v -9.5 0.1 -20.4
v -9.3 0.1 -20.4
v -10.5 0.1 -20.6
v -10.3 0.1 -20.6
v -8.7 0.1 -20.6
v -8.5 0.1 -20.6
v -10.2 0.1 -20.7
v -10 0.1 -20.7
v -9.5 0.1 -21
v -9.3 0.1 -21
v -10.2 0.1 -21.2
v -10 0.1 -21.2
v -10.5 0.1 -21.4
v -10.3 0.1 -21.4
v -8.7 0.1 -21.4
v -8.5 0.1 -21.4
v -9.8 0.1 -21.6
v -9.3 0.1 -21.6
v -10.3 0.1 -21.8
v -9.9 0.1 -21.8
v -9.8 0.1 -21.8
v -9.3 0.1 -21.8
v -9.1 0.1 -21.8
v -8.7 0.1 -21.8
v -9.9 0.1 -22
v -9.1 0.1 -22
v -9.9 0.2 -20
v -9.1 0.2 -20
v -10.3 0.2 -20.2
v -10.2 0.2 -20.2
v -9.9 0.2 -20.2
v -9.6 0.2 -20.2
v -9.1 0.2 -20.2
v -8.7 0.2 -20.2
v -9.5 0.2 -20.4
v -9.3 0.2 -20.4
v -10.2 0.2 -20.5
v -9.6 0.2 -20.5
v -10.5 0.2 -20.6
v -10.3 0.2 -20.6
v -9.2 0.2 -20.6
v -8.7 0.2 -20.6
v -8.5 0.2 -20.6
v -10.2 0.2 -20.7
v -10 0.2 -20.7
v -9.9 0.2 -20.9
v -9.6 0.2 -20.9
v -9.5 0.2 -21
v -9.3 0.2 -21
v -9.2 0.2 -21
v -8.7 0.2 -21
v -10.2 0.2 -21.2
v -10 0.2 -21.2
v -9.4 0.2 -21.2
v -8.9 0.2 -21.2
v -10.5 0.2 -21.4
v -10.3 0.2 -21.4
v -8.7 0.2 -21.4
v -8.5 0.2 -21.4
v -9.9 0.2 -21.5
v -9.6 0.2 -21.5
v -9.8 0.2 -21.6
v -9.4 0.2 -21.6
v -9.3 0.2 -21.6
v -8.9 0.2 -21.6
v -10.3 0.2 -21.8
v -9.9 0.2 -21.8
v -9.8 0.2 -21.8
v -9.3 0.2 -21.8
v -9.1 0.2 -21.8
v -8.7 0.2 -21.8
v -9.9 0.2 -22
v -9.1 0.2 -22
v -10.2 0.3 -20.2
v -9.6 0.3 -20.2
v -10.2 0.3 -20.5
v -9.6 0.3 -20.5
v -9.2 0.3 -20.6
v -8.7 0.3 -20.6
v -9.1 0.3 -20.7
v -8.9 0.3 -20.7
v -9.9 0.3 -20.9
v -9.6 0.3 -20.9
v -9.1 0.3 -20.9
v -8.9 0.3 -20.9
v -9.2 0.3 -21
v -8.7 0.3 -21
v -9.4 0.3 -21.2
v -8.9 0.3 -21.2
v -9.3 0.3 -21.3
v -9.1 0.3 -21.3
v -9.9 0.3 -21.5
v -9.6 0.3 -21.5
v -9.3 0.3 -21.5
v -9.1 0.3 -21.5
v -9.4 0.3 -21.6
v -8.9 0.3 -21.6

# faces
f 3/1/1 2/1/1 1/1/1
f 4/1/1 2/1/1 3/1/1
f 9/1/1 6/1/1 5/1/1
f 10/1/1 6/1/1 9/1/1
f 11/1/1 8/1/1 7/1/1
f 12/1/1 8/1/1 11/1/1
f 15/4/1 14/4/1 13/4/1
f 16/4/1 14/4/1 15/4/1
f 21/1/1 18/1/1 17/1/1
f 22/1/1 18/1/1 21/1/1
f 25/1/1 20/1/1 19/1/1
f 26/1/1 20/1/1 25/1/1
f 27/4/1 24/4/1 23/4/1
f 28/4/1 24/4/1 27/4/1
f 31/2/1 30/2/1 29/2/1
f 32/2/1 30/2/1 31/2/1
f 35/2/1 34/2/1 33/2/1
f 36/2/1 34/2/1 35/2/1
f 37/4/2 38/4/2 41/4/2
f 41/4/2 38/4/2 42/4/2
f 39/4/2 40/4/2 43/4/2
f 43/4/2 40/4/2 44/4/2
f 45/1/2 46/1/2 49/1/2
f 49/1/2 46/1/2 50/1/2
f 47/1/2 48/1/2 51/1/2
f 51/1/2 48/1/2 52/1/2
f 53/2/2 54/2/2 55/2/2
f 55/2/2 54/2/2 56/2/2
f 57/1/2 58/1/2 61/1/2
f 61/1/2 58/1/2 62/1/2
f 59/1/2 60/1/2 64/1/2
f 64/1/2 60/1/2 65/1/2
f 62/2/2 63/2/2 66/2/2
f 66/2/2 63/2/2 67/2/2
f 68/1/2 69/1/2 70/1/2
f 70/1/2 69/1/2 71/1/2
f 74/1/3 73/1/3 72/1/3
f 75/1/3 73/1/3 74/1/3
f 78/1/3 77/1/3 76/1/3
f 80/1/3 78/1/3 76/1/3
f 81/4/3 79/4/3 78/4/3
f 81/1/3 78/1/3 80/1/3
f 82/4/3 79/4/3 81/4/3
f 83/4/3 79/4/3 82/4/3
f 86/1/3 85/1/3 84/1/3
f 87/1/3 85/1/3 86/1/3
f 90/1/3 89/1/3 88/1/3
f 91/1/3 89/1/3 90/1/3
f 95/2/3 93/2/3 92/2/3
f 96/2/3 93/2/3 95/2/3
f 97/1/3 95/1/3 94/1/3
f 98/1/3 95/1/3 97/1/3
f 101/4/3 100/4/3 99/4/3
f 102/4/3 100/4/3 101/4/3
f 105/2/3 104/2/3 103/2/3
f 106/2/3 104/2/3 105/2/3
f 107/4/4 108/4/4 109/4/4
f 109/4/4 108/4/4 110/4/4
f 111/2/4 112/2/4 113/2/4
f 113/2/4 112/2/4 114/2/4
f 115/1/4 116/1/4 117/1/4
f 117/1/4 116/1/4 118/1/4
f 119/1/4 120/1/4 121/1/4
f 121/1/4 120/1/4 122/1/4
f 123/4/4 124/4/4 125/4/4
f 125/4/4 124/4/4 126/4/4
f 127/2/4 128/2/4 129/2/4
f 129/2/4 128/2/4 130/2/4
f 130/2/4 128/2/4 131/2/4
f 132/1/4 133/1/4 134/1/4
f 134/1/4 133/1/4 135/1/4
f 136/1/4 137/1/4 138/1/4
f 138/1/4 137/1/4 139/1/4
f 140/1/4 141/1/4 142/1/4
f 142/1/4 141/1/4 143/1/4
f 147/1/5 145/1/5 144/1/5
f 148/1/5 145/1/5 147/1/5
f 150/1/5 147/1/5 146/1/5
f 150/1/5 149/1/5 148/1/5
f 150/1/5 148/1/5 147/1/5
f 151/1/5 149/1/5 150/1/5
f 153/1/5 150/1/5 146/1/5
f 154/1/5 149/1/5 151/1/5
f 156/1/5 153/1/5 152/1/5
f 156/1/5 150/1/5 153/1/5
f 157/1/5 150/1/5 156/1/5
f 158/4/5 151/4/5 150/4/5
f 158/1/5 150/1/5 157/1/5
f 159/1/5 155/1/5 154/1/5
f 159/4/5 151/4/5 158/4/5
f 159/1/5 154/1/5 151/1/5
f 160/4/5 157/4/5 156/4/5
f 160/1/5 156/1/5 152/1/5
f 161/1/5 158/1/5 157/1/5
f 161/4/5 157/4/5 160/4/5
f 161/1/5 159/1/5 158/1/5
f 162/1/5 160/1/5 152/1/5
f 162/1/5 161/1/5 160/1/5
f 163/1/5 161/1/5 162/1/5
f 164/1/5 159/1/5 161/1/5
f 164/1/5 161/1/5 163/1/5
f 164/1/5 155/1/5 159/1/5
f 165/1/5 155/1/5 164/1/5
f 166/1/5 164/1/5 163/1/5
f 167/1/5 164/1/5 166/1/5
f 168/1/5 166/1/5 163/1/5
f 169/1/5 166/1/5 168/1/5
f 170/4/5 167/4/5 166/4/5
f 170/1/5 166/1/5 169/1/5
f 171/1/5 164/1/5 167/1/5
f 171/4/5 167/4/5 170/4/5
f 172/1/5 164/1/5 171/1/5
f 173/1/5 164/1/5 172/1/5
f 174/1/5 170/1/5 169/1/5
f 174/1/5 172/1/5 171/1/5
f 174/1/5 171/1/5 170/1/5
f 175/1/5 172/1/5 174/1/5
f 176/1/6 177/1/6 180/1/6
f 180/1/6 177/1/6 181/1/6
f 181/1/6 177/1/6 182/1/6
f 182/1/6 183/1/6 184/1/6
f 181/1/6 182/1/6 184/1/6
f 184/1/6 183/1/6 185/1/6
f 178/1/6 179/1/6 186/1/6
f 181/1/6 184/1/6 187/1/6
f 178/1/6 186/1/6 189/1/6
f 186/1/6 187/1/6 189/1/6
f 185/1/6 183/1/6 190/1/6
f 190/1/6 183/1/6 191/1/6
f 188/1/6 189/1/6 193/1/6
f 189/1/6 187/1/6 193/1/6
f 193/1/6 187/1/6 194/1/6
f 194/1/6 187/1/6 195/1/6
f 187/1/6 184/1/6 196/1/6
f 195/1/6 187/1/6 196/1/6
f 184/4/6 185/4/6 197/4/6
f 196/1/6 184/1/6 197/1/6
f 185/1/6 190/1/6 198/1/6
f 197/4/6 185/4/6 198/4/6
f 198/1/6 190/1/6 199/1/6
f 191/1/6 192/1/6 200/1/6
f 193/4/6 194/4/6 201/4/6
f 188/1/6 193/1/6 201/1/6
f 194/1/6 195/1/6 202/1/6
f 201/4/6 194/4/6 202/4/6
f 198/1/6 199/1/6 203/1/6
f 199/1/6 200/1/6 203/1/6
f 197/1/6 198/1/6 203/1/6
f 203/1/6 200/1/6 204/1/6
f 188/1/6 201/1/6 205/1/6
f 201/1/6 202/1/6 205/1/6
f 205/1/6 202/1/6 206/1/6
f 204/1/6 200/1/6 207/1/6
f 200/1/6 192/1/6 207/1/6
f 207/1/6 192/1/6 208/1/6
f 202/1/6 195/1/6 209/1/6
f 206/1/6 202/1/6 209/1/6
f 197/1/6 203/1/6 210/1/6
f 196/1/6 197/1/6 210/1/6
f 209/1/6 210/1/6 211/1/6
f 210/1/6 203/1/6 212/1/6
f 211/1/6 210/1/6 212/1/6
f 204/1/6 207/1/6 214/1/6
f 206/1/6 209/1/6 215/1/6
f 209/1/6 211/1/6 215/1/6
f 215/1/6 211/1/6 216/1/6
f 212/4/6 213/4/6 217/4/6
f 216/1/6 211/1/6 217/1/6
f 211/4/6 212/4/6 217/4/6
f 213/1/6 214/1/6 218/1/6
f 217/4/6 213/4/6 218/4/6
f 218/1/6 214/1/6 219/1/6
f 214/1/6 207/1/6 220/1/6
f 219/1/6 214/1/6 220/1/6
f 216/1/6 217/1/6 221/1/6
f 217/1/6 218/1/6 221/1/6
f 218/1/6 219/1/6 221/1/6
f 221/1/6 219/1/6 222/1/6
f 223/4/6 224/4/6 225/4/6
f 225/4/6 224/4/6 226/4/6
f 227/2/6 228/2/6 229/2/6
f 229/2/6 228/2/6 230/2/6
f 227/2/6 229/2/6 233/2/6
f 229/3/6 230/3/6 233/3/6
f 230/2/6 228/2/6 234/2/6
f 233/3/6 230/3/6 234/3/6
f 227/2/6 233/2/6 235/2/6
f 233/2/6 234/2/6 235/2/6
f 234/2/6 228/2/6 236/2/6
f 235/2/6 234/2/6 236/2/6
f 237/2/6 238/2/6 239/2/6
f 239/2/6 238/2/6 240/2/6
f 231/4/6 232/4/6 241/4/6
f 241/4/6 232/4/6 242/4/6
f 237/2/6 239/2/6 243/2/6
f 239/3/6 240/3/6 243/3/6
f 240/2/6 238/2/6 244/2/6
f 243/3/6 240/3/6 244/3/6
f 237/2/6 243/2/6 245/2/6
f 243/2/6 244/2/6 245/2/6
f 244/2/6 238/2/6 246/2/6
f 245/2/6 244/2/6 246/2/6
