# MagicaVoxel @ Ephtracy

# group
o sink_plate

# material
mtllib memorial-table.vox-0-sink_plate.mtl
usemtl palette

# normals
vn -1 0 0
vn 1 0 0
vn 0 0 1
vn 0 0 -1
vn 0 -1 0
vn 0 1 0

# texcoords
vt 0.751953 0.5
vt 0.755859 0.5
vt 0.775391 0.5
vt 0.779297 0.5
vt 0.783203 0.5

# verts
v 10.6 0.1 0.8
v 10.6 0.1 -1.2
v 10.6 1.2 0.8
v 10.6 1.2 0.7
v 10.6 1.5 1.2
v 10.6 1.5 0.8
v 10.6 1.5 0.7
v 10.6 1.7 1.2
v 10.6 1.7 1
v 10.6 1.7 -1
v 10.6 1.7 -1.2
v 10.6 1.8 1
v 10.6 1.8 -1
v 10.8 0.5 0.9
v 10.8 0.5 0.8
v 10.8 1.1 0.9
v 10.8 1.1 0.8
v 12.8 0.5 0.9
v 12.8 0.5 0.8
v 12.8 1.1 0.9
v 12.8 1.1 0.8
v 13 0.1 0.8
v 13 0.1 -1.2
v 13 1.2 0.8
v 13 1.2 0.7
v 13 1.5 1.2
v 13 1.5 0.8
v 13 1.5 0.7
v 13 1.7 1.2
v 13 1.7 1
v 13 1.7 -1
v 13 1.7 -1.2
v 13 1.8 1
v 13 1.8 -1
v 10.6 1.5 1.2
v 10.6 1.7 1.2
v 13 1.5 1.2
v 13 1.7 1.2
v 10.6 1.7 1
v 10.6 1.8 1
v 13 1.7 1
v 13 1.8 1
v 10.8 0.5 0.9
v 10.8 1.1 0.9
v 12.8 0.5 0.9
v 12.8 1.1 0.9
v 10.6 0.1 0.8
v 10.6 1.2 0.8
v 10.6 1.5 0.8
v 10.8 0.4 0.8
v 10.8 0.5 0.8
v 10.8 1.1 0.8
v 12.8 0.4 0.8
v 12.8 0.5 0.8
v 12.8 1.1 0.8
v 13 0.1 0.8
v 13 1.2 0.8
v 13 1.5 0.8
v 10.6 1.7 -1
v 10.6 1.8 -1
v 13 1.7 -1
v 13 1.8 -1
v 10.6 0.1 -1.2
v 10.6 1.7 -1.2
v 13 0.1 -1.2
v 13 1.7 -1.2
v 10.6 0.1 0.8
v 13 0.1 0.8
v 10.6 0.1 -1.2
v 13 0.1 -1.2
v 10.8 0.5 0.9
v 12.8 0.5 0.9
v 10.8 0.5 0.8
v 12.8 0.5 0.8
v 10.6 1.5 1.2
v 13 1.5 1.2
v 10.6 1.5 0.8
v 13 1.5 0.8
v 10.8 1.1 0.9
v 12.8 1.1 0.9
v 10.8 1.1 0.8
v 12.8 1.1 0.8
v 10.6 1.7 1.2
v 13 1.7 1.2
v 10.6 1.7 1
v 13 1.7 1
v 10.6 1.7 -1
v 13 1.7 -1
v 10.6 1.7 -1.2
v 13 1.7 -1.2
v 10.6 1.8 1
v 13 1.8 1
v 10.8 1.8 0.8
v 12.8 1.8 0.8
v 10.8 1.8 -0.8
v 12.8 1.8 -0.8
v 10.6 1.8 -1
v 13 1.8 -1

# faces
f 3/1/1 2/1/1 1/1/1
f 4/1/1 2/1/1 3/1/1
f 6/2/1 4/2/1 3/2/1
f 7/1/1 2/1/1 4/1/1
f 7/2/1 4/2/1 6/2/1
f 8/1/1 6/1/1 5/1/1
f 8/1/1 7/1/1 6/1/1
f 9/1/1 7/1/1 8/1/1
f 10/1/1 2/1/1 7/1/1
f 10/1/1 7/1/1 9/1/1
f 11/1/1 2/1/1 10/1/1
f 12/4/1 10/4/1 9/4/1
f 13/4/1 10/4/1 12/4/1
f 16/5/1 15/5/1 14/5/1
f 17/5/1 15/5/1 16/5/1
f 18/5/2 19/5/2 20/5/2
f 20/5/2 19/5/2 21/5/2
f 22/1/2 23/1/2 24/1/2
f 24/1/2 23/1/2 25/1/2
f 24/2/2 25/2/2 27/2/2
f 25/1/2 23/1/2 28/1/2
f 27/2/2 25/2/2 28/2/2
f 26/1/2 27/1/2 29/1/2
f 27/1/2 28/1/2 29/1/2
f 29/1/2 28/1/2 30/1/2
f 28/1/2 23/1/2 31/1/2
f 30/1/2 28/1/2 31/1/2
f 31/1/2 23/1/2 32/1/2
f 30/4/2 31/4/2 33/4/2
f 33/4/2 31/4/2 34/4/2
f 37/1/3 36/1/3 35/1/3
f 38/1/3 36/1/3 37/1/3
f 41/4/3 40/4/3 39/4/3
f 42/4/3 40/4/3 41/4/3
f 45/5/3 44/5/3 43/5/3
f 46/5/3 44/5/3 45/5/3
f 50/1/3 48/1/3 47/1/3
f 51/1/3 48/1/3 50/1/3
f 52/1/3 48/1/3 51/1/3
f 53/1/3 50/1/3 47/1/3
f 53/2/3 51/2/3 50/2/3
f 54/2/3 51/2/3 53/2/3
f 55/1/3 48/1/3 52/1/3
f 56/1/3 54/1/3 53/1/3
f 56/1/3 55/1/3 54/1/3
f 56/1/3 53/1/3 47/1/3
f 57/2/3 49/2/3 48/2/3
f 57/1/3 55/1/3 56/1/3
f 57/1/3 48/1/3 55/1/3
f 58/2/3 49/2/3 57/2/3
f 59/4/4 60/4/4 61/4/4
f 61/4/4 60/4/4 62/4/4
f 63/1/4 64/1/4 65/1/4
f 65/1/4 64/1/4 66/1/4
f 69/1/5 68/1/5 67/1/5
f 70/1/5 68/1/5 69/1/5
f 73/5/5 72/5/5 71/5/5
f 74/5/5 72/5/5 73/5/5
f 77/1/5 76/1/5 75/1/5
f 78/1/5 76/1/5 77/1/5
f 79/5/6 80/5/6 81/5/6
f 81/5/6 80/5/6 82/5/6
f 83/1/6 84/1/6 85/1/6
f 85/1/6 84/1/6 86/1/6
f 87/1/6 88/1/6 89/1/6
f 89/1/6 88/1/6 90/1/6
f 91/4/6 92/4/6 93/4/6
f 93/4/6 92/4/6 94/4/6
f 91/4/6 93/4/6 95/4/6
f 93/3/6 94/3/6 95/3/6
f 94/4/6 92/4/6 96/4/6
f 95/3/6 94/3/6 96/3/6
f 91/4/6 95/4/6 97/4/6
f 95/4/6 96/4/6 97/4/6
f 96/4/6 92/4/6 98/4/6
f 97/4/6 96/4/6 98/4/6
