# MagicaVoxel @ Ephtracy

# group
o player-1-body

# material
mtllib character.vox-8-player-1-body.mtl
usemtl palette

# normals
vn -1 0 0
vn 1 0 0
vn 0 0 1
vn 0 0 -1
vn 0 -1 0
vn 0 1 0

# texcoords
vt 0.263672 0.5
vt 0.267578 0.5

# verts
v -1.3 1.5 3.2
v -1.3 1.5 2.3
v -1.3 3.3 3.2
v -1.3 3.3 2.3
v -0.9 3.3 2.9
v -0.9 3.3 2.7
v -0.9 3.4 2.9
v -0.9 3.4 2.7
v -0.7 3.3 2.9
v -0.7 3.3 2.7
v -0.7 3.4 2.9
v -0.7 3.4 2.7
v -0.3 1.5 3.2
v -0.3 1.5 2.3
v -0.3 3.3 3.2
v -0.3 3.3 2.3
v -1.3 1.5 3.2
v -1.3 3.3 3.2
v -0.3 1.5 3.2
v -0.3 3.3 3.2
v -0.9 3.3 2.9
v -0.9 3.4 2.9
v -0.7 3.3 2.9
v -0.7 3.4 2.9
v -0.9 3.3 2.7
v -0.9 3.4 2.7
v -0.7 3.3 2.7
v -0.7 3.4 2.7
v -1.3 1.5 2.3
v -1.3 3.3 2.3
v -0.3 1.5 2.3
v -0.3 3.3 2.3
v -1.3 1.5 3.2
v -0.3 1.5 3.2
v -1.3 1.5 2.3
v -0.3 1.5 2.3
v -1.3 3.3 3.2
v -0.3 3.3 3.2
v -1.1 3.3 3
v -0.5 3.3 3
v -0.9 3.3 2.9
v -0.7 3.3 2.9
v -0.9 3.3 2.7
v -0.7 3.3 2.7
v -1.1 3.3 2.5
v -0.5 3.3 2.5
v -1.3 3.3 2.3
v -0.3 3.3 2.3
v -0.9 3.4 2.9
v -0.7 3.4 2.9
v -0.9 3.4 2.7
v -0.7 3.4 2.7

# faces
f 3/1/1 2/1/1 1/1/1
f 4/1/1 2/1/1 3/1/1
f 7/2/1 6/2/1 5/2/1
f 8/2/1 6/2/1 7/2/1
f 9/2/2 10/2/2 11/2/2
f 11/2/2 10/2/2 12/2/2
f 13/1/2 14/1/2 15/1/2
f 15/1/2 14/1/2 16/1/2
f 19/1/3 18/1/3 17/1/3
f 20/1/3 18/1/3 19/1/3
f 23/2/3 22/2/3 21/2/3
f 24/2/3 22/2/3 23/2/3
f 25/2/4 26/2/4 27/2/4
f 27/2/4 26/2/4 28/2/4
f 29/1/4 30/1/4 31/1/4
f 31/1/4 30/1/4 32/1/4
f 35/1/5 34/1/5 33/1/5
f 36/1/5 34/1/5 35/1/5
f 37/1/6 38/1/6 39/1/6
f 39/1/6 38/1/6 40/1/6
f 39/2/6 40/2/6 41/2/6
f 41/2/6 40/2/6 42/2/6
f 39/2/6 41/2/6 43/2/6
f 42/2/6 40/2/6 44/2/6
f 37/1/6 39/1/6 45/1/6
f 43/2/6 44/2/6 45/2/6
f 39/2/6 43/2/6 45/2/6
f 44/2/6 40/2/6 46/2/6
f 45/2/6 44/2/6 46/2/6
f 40/1/6 38/1/6 46/1/6
f 37/1/6 45/1/6 47/1/6
f 45/1/6 46/1/6 47/1/6
f 46/1/6 38/1/6 48/1/6
f 47/1/6 46/1/6 48/1/6
f 49/2/6 50/2/6 51/2/6
f 51/2/6 50/2/6 52/2/6
