# MagicaVoxel @ Ephtracy

# group
o player-2-head

# material
mtllib character.vox-0-player-2-head.mtl
usemtl palette

# normals
vn -1 0 0
vn 1 0 0
vn 0 0 1
vn 0 0 -1
vn 0 -1 0
vn 0 1 0

# texcoords
vt 0.267578 0.5
vt 0.294922 0.5

# verts
v -4.8 3.6 3.2
v -4.8 3.6 2.3
v -4.8 4.1 3.2
v -4.8 4.1 2.3
v -4.8 4.2 3.1
v -4.8 4.2 2.4
v -4.8 4.5 3.1
v -4.8 4.5 2.4
v -4.7 4.1 3.1
v -4.7 4.1 2.4
v -4.7 4.2 3.2
v -4.7 4.2 3.1
v -4.7 4.2 2.4
v -4.7 4.2 2.3
v -4.7 4.5 3.2
v -4.7 4.5 3.1
v -4.7 4.5 2.4
v -4.7 4.5 2.3
v -4.6 4.5 3
v -4.6 4.5 2.5
v -4.6 4.7 3
v -4.6 4.7 2.5
v -4.5 4.7 2.9
v -4.5 4.7 2.6
v -4.5 4.8 2.9
v -4.5 4.8 2.6
v -4.4 4.8 2.8
v -4.4 4.8 2.7
v -4.4 4.9 2.8
v -4.4 4.9 2.7
v -4.2 4.8 2.8
v -4.2 4.8 2.7
v -4.2 4.9 2.8
v -4.2 4.9 2.7
v -4.1 4.7 2.9
v -4.1 4.7 2.6
v -4.1 4.8 2.9
v -4.1 4.8 2.6
v -4 4.5 3
v -4 4.5 2.5
v -4 4.7 3
v -4 4.7 2.5
v -3.9 4.1 3.1
v -3.9 4.1 2.4
v -3.9 4.2 3.2
v -3.9 4.2 3.1
v -3.9 4.2 2.4
v -3.9 4.2 2.3
v -3.9 4.5 3.2
v -3.9 4.5 3.1
v -3.9 4.5 2.4
v -3.9 4.5 2.3
v -3.8 3.6 3.2
v -3.8 3.6 2.3
v -3.8 4.1 3.2
v -3.8 4.1 2.3
v -3.8 4.2 3.1
v -3.8 4.2 2.4
v -3.8 4.5 3.1
v -3.8 4.5 2.4
v -4.8 3.6 3.2
v -4.8 4.1 3.2
v -4.7 4.2 3.2
v -4.7 4.5 3.2
v -3.9 4.2 3.2
v -3.9 4.5 3.2
v -3.8 3.6 3.2
v -3.8 4.1 3.2
v -4.8 4.2 3.1
v -4.8 4.5 3.1
v -4.7 4.1 3.1
v -4.7 4.2 3.1
v -4.7 4.5 3.1
v -3.9 4.1 3.1
v -3.9 4.2 3.1
v -3.9 4.5 3.1
v -3.8 4.2 3.1
v -3.8 4.5 3.1
v -4.6 4.5 3
v -4.6 4.7 3
v -4 4.5 3
v -4 4.7 3
v -4.5 4.7 2.9
v -4.5 4.8 2.9
v -4.1 4.7 2.9
v -4.1 4.8 2.9
v -4.4 4.8 2.8
v -4.4 4.9 2.8
v -4.2 4.8 2.8
v -4.2 4.9 2.8
v -4.4 4.8 2.7
v -4.4 4.9 2.7
v -4.2 4.8 2.7
v -4.2 4.9 2.7
v -4.5 4.7 2.6
v -4.5 4.8 2.6
v -4.1 4.7 2.6
v -4.1 4.8 2.6
v -4.6 4.5 2.5
v -4.6 4.7 2.5
v -4 4.5 2.5
v -4 4.7 2.5
v -4.8 4.2 2.4
v -4.8 4.5 2.4
v -4.7 4.1 2.4
v -4.7 4.2 2.4
v -4.7 4.5 2.4
v -3.9 4.1 2.4
v -3.9 4.2 2.4
v -3.9 4.5 2.4
v -3.8 4.2 2.4
v -3.8 4.5 2.4
v -4.8 3.6 2.3
v -4.8 4.1 2.3
v -4.7 4.2 2.3
v -4.7 4.5 2.3
v -3.9 4.2 2.3
v -3.9 4.5 2.3
v -3.8 3.6 2.3
v -3.8 4.1 2.3
v -4.8 3.6 3.2
v -3.8 3.6 3.2
v -4.8 3.6 2.3
v -3.8 3.6 2.3
v -4.7 4.2 3.2
v -3.9 4.2 3.2
v -4.8 4.2 3.1
v -4.7 4.2 3.1
v -3.9 4.2 3.1
v -3.8 4.2 3.1
v -4.8 4.2 2.4
v -4.7 4.2 2.4
v -3.9 4.2 2.4
v -3.8 4.2 2.4
v -4.7 4.2 2.3
v -3.9 4.2 2.3
v -4.8 4.1 3.2
v -3.8 4.1 3.2
v -4.7 4.1 3.1
v -3.9 4.1 3.1
v -4.7 4.1 2.4
v -3.9 4.1 2.4
v -4.8 4.1 2.3
v -3.8 4.1 2.3
v -4.7 4.5 3.2
v -3.9 4.5 3.2
v -4.8 4.5 3.1
v -4.7 4.5 3.1
v -3.9 4.5 3.1
v -3.8 4.5 3.1
v -4.6 4.5 3
v -4 4.5 3
v -4.6 4.5 2.5
v -4 4.5 2.5
v -4.8 4.5 2.4
v -4.7 4.5 2.4
v -3.9 4.5 2.4
v -3.8 4.5 2.4
v -4.7 4.5 2.3
v -3.9 4.5 2.3
v -4.6 4.7 3
v -4 4.7 3
v -4.5 4.7 2.9
v -4.1 4.7 2.9
v -4.5 4.7 2.6
v -4.1 4.7 2.6
v -4.6 4.7 2.5
v -4 4.7 2.5
v -4.5 4.8 2.9
v -4.1 4.8 2.9
v -4.4 4.8 2.8
v -4.2 4.8 2.8
v -4.4 4.8 2.7
v -4.2 4.8 2.7
v -4.5 4.8 2.6
v -4.1 4.8 2.6
v -4.4 4.9 2.8
v -4.2 4.9 2.8
v -4.4 4.9 2.7
v -4.2 4.9 2.7

# faces
f 3/2/1 2/2/1 1/2/1
f 4/2/1 2/2/1 3/2/1
f 7/1/1 6/1/1 5/1/1
f 8/1/1 6/1/1 7/1/1
f 12/1/1 10/1/1 9/1/1
f 13/1/1 10/1/1 12/1/1
f 15/1/1 12/1/1 11/1/1
f 16/1/1 12/1/1 15/1/1
f 17/1/1 14/1/1 13/1/1
f 18/1/1 14/1/1 17/1/1
f 21/1/1 20/1/1 19/1/1
f 22/1/1 20/1/1 21/1/1
f 25/1/1 24/1/1 23/1/1
f 26/1/1 24/1/1 25/1/1
f 29/1/1 28/1/1 27/1/1
f 30/1/1 28/1/1 29/1/1
f 31/1/2 32/1/2 33/1/2
f 33/1/2 32/1/2 34/1/2
f 35/1/2 36/1/2 37/1/2
f 37/1/2 36/1/2 38/1/2
f 39/1/2 40/1/2 41/1/2
f 41/1/2 40/1/2 42/1/2
f 43/1/2 44/1/2 46/1/2
f 46/1/2 44/1/2 47/1/2
f 45/1/2 46/1/2 49/1/2
f 49/1/2 46/1/2 50/1/2
f 47/1/2 48/1/2 51/1/2
f 51/1/2 48/1/2 52/1/2
f 53/2/2 54/2/2 55/2/2
f 55/2/2 54/2/2 56/2/2
f 57/1/2 58/1/2 59/1/2
f 59/1/2 58/1/2 60/1/2
f 65/1/3 64/1/3 63/1/3
f 66/1/3 64/1/3 65/1/3
f 67/2/3 62/2/3 61/2/3
f 68/2/3 62/2/3 67/2/3
f 72/1/3 70/1/3 69/1/3
f 73/1/3 70/1/3 72/1/3
f 74/1/3 72/1/3 71/1/3
f 75/1/3 72/1/3 74/1/3
f 77/1/3 76/1/3 75/1/3
f 78/1/3 76/1/3 77/1/3
f 81/1/3 80/1/3 79/1/3
f 82/1/3 80/1/3 81/1/3
f 85/1/3 84/1/3 83/1/3
f 86/1/3 84/1/3 85/1/3
f 89/1/3 88/1/3 87/1/3
f 90/1/3 88/1/3 89/1/3
f 91/1/4 92/1/4 93/1/4
f 93/1/4 92/1/4 94/1/4
f 95/1/4 96/1/4 97/1/4
f 97/1/4 96/1/4 98/1/4
f 99/1/4 100/1/4 101/1/4
f 101/1/4 100/1/4 102/1/4
f 103/1/4 104/1/4 106/1/4
f 106/1/4 104/1/4 107/1/4
f 105/1/4 106/1/4 108/1/4
f 108/1/4 106/1/4 109/1/4
f 109/1/4 110/1/4 111/1/4
f 111/1/4 110/1/4 112/1/4
f 115/1/4 116/1/4 117/1/4
f 117/1/4 116/1/4 118/1/4
f 113/2/4 114/2/4 119/2/4
f 119/2/4 114/2/4 120/2/4
f 123/2/5 122/2/5 121/2/5
f 124/2/5 122/2/5 123/2/5
f 128/1/5 126/1/5 125/1/5
f 129/1/5 126/1/5 128/1/5
f 131/1/5 128/1/5 127/1/5
f 132/1/5 128/1/5 131/1/5
f 133/1/5 130/1/5 129/1/5
f 134/1/5 130/1/5 133/1/5
f 135/1/5 133/1/5 132/1/5
f 136/1/5 133/1/5 135/1/5
f 137/2/6 138/2/6 139/2/6
f 139/2/6 138/2/6 140/2/6
f 137/2/6 139/2/6 141/2/6
f 140/2/6 138/2/6 142/2/6
f 137/2/6 141/2/6 143/2/6
f 141/2/6 142/2/6 143/2/6
f 142/2/6 138/2/6 144/2/6
f 143/2/6 142/2/6 144/2/6
f 145/1/6 146/1/6 148/1/6
f 148/1/6 146/1/6 149/1/6
f 147/1/6 148/1/6 151/1/6
f 149/1/6 150/1/6 151/1/6
f 148/1/6 149/1/6 151/1/6
f 151/1/6 150/1/6 152/1/6
f 147/1/6 151/1/6 153/1/6
f 152/1/6 150/1/6 154/1/6
f 147/1/6 153/1/6 155/1/6
f 153/1/6 154/1/6 155/1/6
f 155/1/6 154/1/6 156/1/6
f 154/1/6 150/1/6 157/1/6
f 156/1/6 154/1/6 157/1/6
f 157/1/6 150/1/6 158/1/6
f 156/1/6 157/1/6 159/1/6
f 159/1/6 157/1/6 160/1/6
f 161/1/6 162/1/6 163/1/6
f 163/1/6 162/1/6 164/1/6
f 161/1/6 163/1/6 165/1/6
f 164/1/6 162/1/6 166/1/6
f 161/1/6 165/1/6 167/1/6
f 165/1/6 166/1/6 167/1/6
f 166/1/6 162/1/6 168/1/6
f 167/1/6 166/1/6 168/1/6
f 169/1/6 170/1/6 171/1/6
f 171/1/6 170/1/6 172/1/6
f 169/1/6 171/1/6 173/1/6
f 172/1/6 170/1/6 174/1/6
f 169/1/6 173/1/6 175/1/6
f 173/1/6 174/1/6 175/1/6
f 174/1/6 170/1/6 176/1/6
f 175/1/6 174/1/6 176/1/6
f 177/1/6 178/1/6 179/1/6
f 179/1/6 178/1/6 180/1/6
