# MagicaVoxel @ Ephtracy

# group
o player-knife

# material
mtllib character.vox-4-player-knife.mtl
usemtl palette

# normals
vn -1 0 0
vn 1 0 0
vn 0 0 1
vn 0 0 -1
vn 0 -1 0
vn 0 1 0

# texcoords
vt 0.201172 0.5
vt 0.205078 0.5

# verts
v 0.4 2.1 1.9
v 0.4 2.1 0.9
v 0.4 2.3 2.3
v 0.4 2.3 1.9
v 0.4 2.5 2.3
v 0.4 2.5 1.9
v 0.4 2.5 0.9
v 0.5 2.1 1.9
v 0.5 2.1 0.9
v 0.5 2.3 2.3
v 0.5 2.3 1.9
v 0.5 2.5 2.3
v 0.5 2.5 1.9
v 0.5 2.5 0.9
v 0.4 2.3 2.3
v 0.4 2.5 2.3
v 0.5 2.3 2.3
v 0.5 2.5 2.3
v 0.4 2.1 1.9
v 0.4 2.3 1.9
v 0.5 2.1 1.9
v 0.5 2.3 1.9
v 0.4 2.1 0.9
v 0.4 2.5 0.9
v 0.5 2.1 0.9
v 0.5 2.5 0.9
v 0.4 2.1 1.9
v 0.5 2.1 1.9
v 0.4 2.1 0.9
v 0.5 2.1 0.9
v 0.4 2.3 2.3
v 0.5 2.3 2.3
v 0.4 2.3 1.9
v 0.5 2.3 1.9
v 0.4 2.5 2.3
v 0.5 2.5 2.3
v 0.4 2.5 1.9
v 0.5 2.5 1.9
v 0.4 2.5 0.9
v 0.5 2.5 0.9

# faces
f 4/2/1 2/2/1 1/2/1
f 5/1/1 4/1/1 3/1/1
f 6/2/1 2/2/1 4/2/1
f 6/1/1 4/1/1 5/1/1
f 7/2/1 2/2/1 6/2/1
f 8/2/2 9/2/2 11/2/2
f 10/1/2 11/1/2 12/1/2
f 11/2/2 9/2/2 13/2/2
f 12/1/2 11/1/2 13/1/2
f 13/2/2 9/2/2 14/2/2
f 17/1/3 16/1/3 15/1/3
f 18/1/3 16/1/3 17/1/3
f 21/2/3 20/2/3 19/2/3
f 22/2/3 20/2/3 21/2/3
f 23/2/4 24/2/4 25/2/4
f 25/2/4 24/2/4 26/2/4
f 29/2/5 28/2/5 27/2/5
f 30/2/5 28/2/5 29/2/5
f 33/1/5 32/1/5 31/1/5
f 34/1/5 32/1/5 33/1/5
f 35/1/6 36/1/6 37/1/6
f 37/1/6 36/1/6 38/1/6
f 37/2/6 38/2/6 39/2/6
f 39/2/6 38/2/6 40/2/6
