# MagicaVoxel @ Ephtracy

# group
o z-pan-fried-tofu

# material
mtllib food.vox-0-z-pan-fried-tofu.mtl
usemtl palette

# normals
vn -1 0 0
vn 1 0 0
vn 0 0 1
vn 0 0 -1
vn 0 -1 0
vn 0 1 0

# texcoords
vt 0.00195312 0.5
vt 0.00585938 0.5
vt 0.00976562 0.5
vt 0.0136719 0.5

# verts
v -10.2 0.1 -3.5
v -10.2 0.1 -4
v -10.2 0.1 -4.1
v -10.2 0.1 -4.6
v -10.2 0.2 -3.6
v -10.2 0.2 -3.9
v -10.2 0.2 -4.2
v -10.2 0.2 -4.5
v -10.2 0.3 -3.5
v -10.2 0.3 -3.6
v -10.2 0.3 -3.7
v -10.2 0.3 -3.8
v -10.2 0.3 -3.9
v -10.2 0.3 -4
v -10.2 0.3 -4.1
v -10.2 0.3 -4.2
v -10.2 0.3 -4.3
v -10.2 0.3 -4.4
v -10.2 0.3 -4.5
v -10.2 0.3 -4.6
v -10.2 0.4 -3.6
v -10.2 0.4 -3.7
v -10.2 0.4 -3.8
v -10.2 0.4 -4.2
v -10.2 0.4 -4.3
v -10.2 0.4 -4.4
v -10.1 0.3 -3.5
v -10.1 0.3 -3.6
v -10.1 0.3 -3.8
v -10.1 0.3 -3.9
v -10.1 0.3 -4
v -10.1 0.3 -4.1
v -10.1 0.3 -4.2
v -10.1 0.3 -4.4
v -10.1 0.3 -4.5
v -10.1 0.3 -4.6
v -10.1 0.4 -3.6
v -10.1 0.4 -3.7
v -10.1 0.4 -3.8
v -10.1 0.4 -3.9
v -10.1 0.4 -4.2
v -10.1 0.4 -4.3
v -10.1 0.4 -4.4
v -10.1 0.4 -4.5
v -10.1 0.5 -3.5
v -10.1 0.5 -4
v -10.1 0.5 -4.1
v -10.1 0.5 -4.6
v -9.8 0.1 -3.5
v -9.8 0.1 -4
v -9.8 0.1 -4.1
v -9.8 0.1 -4.6
v -9.8 0.2 -3.6
v -9.8 0.2 -3.9
v -9.8 0.2 -4.2
v -9.8 0.2 -4.5
v -9.8 0.3 -3.5
v -9.8 0.3 -3.6
v -9.8 0.3 -3.7
v -9.8 0.3 -3.8
v -9.8 0.3 -3.9
v -9.8 0.3 -4
v -9.8 0.3 -4.1
v -9.8 0.3 -4.2
v -9.8 0.3 -4.3
v -9.8 0.3 -4.4
v -9.8 0.3 -4.5
v -9.8 0.3 -4.6
v -9.8 0.4 -3.6
v -9.8 0.4 -3.7
v -9.8 0.4 -3.8
v -9.8 0.4 -4.2
v -9.8 0.4 -4.3
v -9.8 0.4 -4.4
v -9.7 0.3 -3.5
v -9.7 0.3 -3.6
v -9.7 0.3 -3.8
v -9.7 0.3 -3.9
v -9.7 0.3 -4
v -9.7 0.3 -4.1
v -9.7 0.3 -4.2
v -9.7 0.3 -4.4
v -9.7 0.3 -4.5
v -9.7 0.3 -4.6
v -9.7 0.4 -3.6
v -9.7 0.4 -3.7
v -9.7 0.4 -3.8
v -9.7 0.4 -3.9
v -9.7 0.4 -4.2
v -9.7 0.4 -4.3
v -9.7 0.4 -4.4
v -9.7 0.4 -4.5
v -9.7 0.5 -3.5
v -9.7 0.5 -4
v -9.7 0.5 -4.1
v -9.7 0.5 -4.6
v -9.4 0.1 -3.5
v -9.4 0.1 -4
v -9.4 0.1 -4.1
v -9.4 0.1 -4.6
v -9.4 0.2 -3.6
v -9.4 0.2 -3.9
v -9.4 0.2 -4.2
v -9.4 0.2 -4.5
v -9.4 0.3 -3.5
v -9.4 0.3 -3.6
v -9.4 0.3 -3.7
v -9.4 0.3 -3.8
v -9.4 0.3 -3.9
v -9.4 0.3 -4
v -9.4 0.3 -4.1
v -9.4 0.3 -4.2
v -9.4 0.3 -4.3
v -9.4 0.3 -4.4
v -9.4 0.3 -4.5
v -9.4 0.3 -4.6
v -9.4 0.4 -3.6
v -9.4 0.4 -3.7
v -9.4 0.4 -3.8
v -9.4 0.4 -4.2
v -9.4 0.4 -4.3
v -9.4 0.4 -4.4
v -9.3 0.3 -3.5
v -9.3 0.3 -3.6
v -9.3 0.3 -3.8
v -9.3 0.3 -3.9
v -9.3 0.3 -4
v -9.3 0.3 -4.1
v -9.3 0.3 -4.2
v -9.3 0.3 -4.4
v -9.3 0.3 -4.5
v -9.3 0.3 -4.6
v -9.3 0.4 -3.6
v -9.3 0.4 -3.7
v -9.3 0.4 -3.8
v -9.3 0.4 -3.9
v -9.3 0.4 -4.2
v -9.3 0.4 -4.3
v -9.3 0.4 -4.4
v -9.3 0.4 -4.5
v -9.3 0.5 -3.5
v -9.3 0.5 -4
v -9.3 0.5 -4.1
v -9.3 0.5 -4.6
v -9 0.1 -3.5
v -9 0.1 -4
v -9 0.1 -4.1
v -9 0.1 -4.6
v -9 0.2 -3.6
v -9 0.2 -3.9
v -9 0.2 -4.2
v -9 0.2 -4.5
v -9 0.3 -3.5
v -9 0.3 -3.6
v -9 0.3 -3.7
v -9 0.3 -3.8
v -9 0.3 -3.9
v -9 0.3 -4
v -9 0.3 -4.1
v -9 0.3 -4.2
v -9 0.3 -4.3
v -9 0.3 -4.4
v -9 0.3 -4.5
v -9 0.3 -4.6
v -9 0.4 -3.6
v -9 0.4 -3.7
v -9 0.4 -3.8
v -9 0.4 -4.2
v -9 0.4 -4.3
v -9 0.4 -4.4
v -8.9 0.3 -3.5
v -8.9 0.3 -3.6
v -8.9 0.3 -3.8
v -8.9 0.3 -3.9
v -8.9 0.3 -4
v -8.9 0.3 -4.1
v -8.9 0.3 -4.2
v -8.9 0.3 -4.4
v -8.9 0.3 -4.5
v -8.9 0.3 -4.6
v -8.9 0.4 -3.6
v -8.9 0.4 -3.7
v -8.9 0.4 -3.8
v -8.9 0.4 -3.9
v -8.9 0.4 -4.2
v -8.9 0.4 -4.3
v -8.9 0.4 -4.4
v -8.9 0.4 -4.5
v -8.9 0.5 -3.5
v -8.9 0.5 -4
v -8.9 0.5 -4.1
v -8.9 0.5 -4.6
v -10 0.1 -3.5
v -10 0.1 -4
v -10 0.1 -4.1
v -10 0.1 -4.6
v -10 0.3 -3.6
v -10 0.3 -3.9
v -10 0.3 -4.2
v -10 0.3 -4.5
v -10 0.4 -3.6
v -10 0.4 -3.9
v -10 0.4 -4.2
v -10 0.4 -4.5
v -10 0.5 -3.5
v -10 0.5 -4
v -10 0.5 -4.1
v -10 0.5 -4.6
v -9.6 0.1 -3.5
v -9.6 0.1 -4
v -9.6 0.1 -4.1
v -9.6 0.1 -4.6
v -9.6 0.3 -3.6
v -9.6 0.3 -3.9
v -9.6 0.3 -4.2
v -9.6 0.3 -4.5
v -9.6 0.4 -3.6
v -9.6 0.4 -3.9
v -9.6 0.4 -4.2
v -9.6 0.4 -4.5
v -9.6 0.5 -3.5
v -9.6 0.5 -4
v -9.6 0.5 -4.1
v -9.6 0.5 -4.6
v -9.2 0.1 -3.5
v -9.2 0.1 -4
v -9.2 0.1 -4.1
v -9.2 0.1 -4.6
v -9.2 0.3 -3.6
v -9.2 0.3 -3.9
v -9.2 0.3 -4.2
v -9.2 0.3 -4.5
v -9.2 0.4 -3.6
v -9.2 0.4 -3.9
v -9.2 0.4 -4.2
v -9.2 0.4 -4.5
v -9.2 0.5 -3.5
v -9.2 0.5 -4
v -9.2 0.5 -4.1
v -9.2 0.5 -4.6
v -8.8 0.1 -3.5
v -8.8 0.1 -4
v -8.8 0.1 -4.1
v -8.8 0.1 -4.6
v -8.8 0.3 -3.6
v -8.8 0.3 -3.9
v -8.8 0.3 -4.2
v -8.8 0.3 -4.5
v -8.8 0.4 -3.6
v -8.8 0.4 -3.9
v -8.8 0.4 -4.2
v -8.8 0.4 -4.5
v -8.8 0.5 -3.5
v -8.8 0.5 -4
v -8.8 0.5 -4.1
v -8.8 0.5 -4.6
v -10.2 0.1 -3.5
v -10.2 0.3 -3.5
v -10.1 0.3 -3.5
v -10.1 0.5 -3.5
v -10 0.1 -3.5
v -10 0.5 -3.5
v -9.8 0.1 -3.5
v -9.8 0.3 -3.5
v -9.7 0.3 -3.5
v -9.7 0.5 -3.5
v -9.6 0.1 -3.5
v -9.6 0.5 -3.5
v -9.4 0.1 -3.5
v -9.4 0.3 -3.5
v -9.3 0.3 -3.5
v -9.3 0.5 -3.5
v -9.2 0.1 -3.5
v -9.2 0.5 -3.5
v -9 0.1 -3.5
v -9 0.3 -3.5
v -8.9 0.3 -3.5
v -8.9 0.5 -3.5
v -8.8 0.1 -3.5
v -8.8 0.5 -3.5
v -10.2 0.3 -3.6
v -10.2 0.4 -3.6
v -10.1 0.3 -3.6
v -10.1 0.4 -3.6
v -9.8 0.3 -3.6
v -9.8 0.4 -3.6
v -9.7 0.3 -3.6
v -9.7 0.4 -3.6
v -9.4 0.3 -3.6
v -9.4 0.4 -3.6
v -9.3 0.3 -3.6
v -9.3 0.4 -3.6
v -9 0.3 -3.6
v -9 0.4 -3.6
v -8.9 0.3 -3.6
v -8.9 0.4 -3.6
v -10.2 0.1 -4.1
v -10.2 0.3 -4.1
v -10.1 0.3 -4.1
v -10.1 0.5 -4.1
v -10 0.1 -4.1
v -10 0.5 -4.1
v -9.8 0.1 -4.1
v -9.8 0.3 -4.1
v -9.7 0.3 -4.1
v -9.7 0.5 -4.1
v -9.6 0.1 -4.1
v -9.6 0.5 -4.1
v -9.4 0.1 -4.1
v -9.4 0.3 -4.1
v -9.3 0.3 -4.1
v -9.3 0.5 -4.1
v -9.2 0.1 -4.1
v -9.2 0.5 -4.1
v -9 0.1 -4.1
v -9 0.3 -4.1
v -8.9 0.3 -4.1
v -8.9 0.5 -4.1
v -8.8 0.1 -4.1
v -8.8 0.5 -4.1
v -10.2 0.3 -4.2
v -10.2 0.4 -4.2
v -10.1 0.3 -4.2
v -10.1 0.4 -4.2
v -9.8 0.3 -4.2
v -9.8 0.4 -4.2
v -9.7 0.3 -4.2
v -9.7 0.4 -4.2
v -9.4 0.3 -4.2
v -9.4 0.4 -4.2
v -9.3 0.3 -4.2
v -9.3 0.4 -4.2
v -9 0.3 -4.2
v -9 0.4 -4.2
v -8.9 0.3 -4.2
v -8.9 0.4 -4.2
v -10.2 0.3 -3.8
v -10.2 0.4 -3.8
v -10.1 0.3 -3.8
v -10.1 0.4 -3.8
v -9.8 0.3 -3.8
v -9.8 0.4 -3.8
v -9.7 0.3 -3.8
v -9.7 0.4 -3.8
v -9.4 0.3 -3.8
v -9.4 0.4 -3.8
v -9.3 0.3 -3.8
v -9.3 0.4 -3.8
v -9 0.3 -3.8
v -9 0.4 -3.8
v -8.9 0.3 -3.8
v -8.9 0.4 -3.8
v -10.2 0.1 -4
v -10.2 0.3 -4
v -10.1 0.3 -4
v -10.1 0.5 -4
v -10 0.1 -4
v -10 0.5 -4
v -9.8 0.1 -4
v -9.8 0.3 -4
v -9.7 0.3 -4
v -9.7 0.5 -4
v -9.6 0.1 -4
v -9.6 0.5 -4
v -9.4 0.1 -4
v -9.4 0.3 -4
v -9.3 0.3 -4
v -9.3 0.5 -4
v -9.2 0.1 -4
v -9.2 0.5 -4
v -9 0.1 -4
v -9 0.3 -4
v -8.9 0.3 -4
v -8.9 0.5 -4
v -8.8 0.1 -4
v -8.8 0.5 -4
v -10.2 0.3 -4.4
v -10.2 0.4 -4.4
v -10.1 0.3 -4.4
v -10.1 0.4 -4.4
v -9.8 0.3 -4.4
v -9.8 0.4 -4.4
v -9.7 0.3 -4.4
v -9.7 0.4 -4.4
v -9.4 0.3 -4.4
v -9.4 0.4 -4.4
v -9.3 0.3 -4.4
v -9.3 0.4 -4.4
v -9 0.3 -4.4
v -9 0.4 -4.4
v -8.9 0.3 -4.4
v -8.9 0.4 -4.4
v -10.2 0.1 -4.6
v -10.2 0.3 -4.6
v -10.1 0.3 -4.6
v -10.1 0.5 -4.6
v -10 0.1 -4.6
v -10 0.5 -4.6
v -9.8 0.1 -4.6
v -9.8 0.3 -4.6
v -9.7 0.3 -4.6
v -9.7 0.5 -4.6
v -9.6 0.1 -4.6
v -9.6 0.5 -4.6
v -9.4 0.1 -4.6
v -9.4 0.3 -4.6
v -9.3 0.3 -4.6
v -9.3 0.5 -4.6
v -9.2 0.1 -4.6
v -9.2 0.5 -4.6
v -9 0.1 -4.6
v -9 0.3 -4.6
v -8.9 0.3 -4.6
v -8.9 0.5 -4.6
v -8.8 0.1 -4.6
v -8.8 0.5 -4.6
v -10.2 0.1 -3.5
v -10 0.1 -3.5
v -9.8 0.1 -3.5
v -9.6 0.1 -3.5
v -9.4 0.1 -3.5
v -9.2 0.1 -3.5
v -9 0.1 -3.5
v -8.8 0.1 -3.5
v -10.2 0.1 -4
v -10 0.1 -4
v -9.8 0.1 -4
v -9.6 0.1 -4
v -9.4 0.1 -4
v -9.2 0.1 -4
v -9 0.1 -4
v -8.8 0.1 -4
v -10.2 0.1 -4.1
v -10 0.1 -4.1
v -9.8 0.1 -4.1
v -9.6 0.1 -4.1
v -9.4 0.1 -4.1
v -9.2 0.1 -4.1
v -9 0.1 -4.1
v -8.8 0.1 -4.1
v -10.2 0.1 -4.6
v -10 0.1 -4.6
v -9.8 0.1 -4.6
v -9.6 0.1 -4.6
v -9.4 0.1 -4.6
v -9.2 0.1 -4.6
v -9 0.1 -4.6
v -8.8 0.1 -4.6
v -10.2 0.3 -3.5
v -10.1 0.3 -3.5
v -9.8 0.3 -3.5
v -9.7 0.3 -3.5
v -9.4 0.3 -3.5
v -9.3 0.3 -3.5
v -9 0.3 -3.5
v -8.9 0.3 -3.5
v -10.2 0.3 -3.6
v -10.1 0.3 -3.6
v -9.8 0.3 -3.6
v -9.7 0.3 -3.6
v -9.4 0.3 -3.6
v -9.3 0.3 -3.6
v -9 0.3 -3.6
v -8.9 0.3 -3.6
v -10.2 0.3 -3.8
v -10.1 0.3 -3.8
v -9.8 0.3 -3.8
v -9.7 0.3 -3.8
v -9.4 0.3 -3.8
v -9.3 0.3 -3.8
v -9 0.3 -3.8
v -8.9 0.3 -3.8
v -10.2 0.3 -3.9
v -10.1 0.3 -3.9
v -9.8 0.3 -3.9
v -9.7 0.3 -3.9
v -9.4 0.3 -3.9
v -9.3 0.3 -3.9
v -9 0.3 -3.9
v -8.9 0.3 -3.9
v -10.2 0.3 -4
v -10.1 0.3 -4
v -9.8 0.3 -4
v -9.7 0.3 -4
v -9.4 0.3 -4
v -9.3 0.3 -4
v -9 0.3 -4
v -8.9 0.3 -4
v -10.2 0.3 -4.1
v -10.1 0.3 -4.1
v -9.8 0.3 -4.1
v -9.7 0.3 -4.1
v -9.4 0.3 -4.1
v -9.3 0.3 -4.1
v -9 0.3 -4.1
v -8.9 0.3 -4.1
v -10.2 0.3 -4.2
v -10.1 0.3 -4.2
v -9.8 0.3 -4.2
v -9.7 0.3 -4.2
v -9.4 0.3 -4.2
v -9.3 0.3 -4.2
v -9 0.3 -4.2
v -8.9 0.3 -4.2
v -10.2 0.3 -4.4
v -10.1 0.3 -4.4
v -9.8 0.3 -4.4
v -9.7 0.3 -4.4
v -9.4 0.3 -4.4
v -9.3 0.3 -4.4
v -9 0.3 -4.4
v -8.9 0.3 -4.4
v -10.2 0.3 -4.5
v -10.1 0.3 -4.5
v -9.8 0.3 -4.5
v -9.7 0.3 -4.5
v -9.4 0.3 -4.5
v -9.3 0.3 -4.5
v -9 0.3 -4.5
v -8.9 0.3 -4.5
v -10.2 0.3 -4.6
v -10.1 0.3 -4.6
v -9.8 0.3 -4.6
v -9.7 0.3 -4.6
v -9.4 0.3 -4.6
v -9.3 0.3 -4.6
v -9 0.3 -4.6
v -8.9 0.3 -4.6
v -10.2 0.4 -3.6
v -10.1 0.4 -3.6
v -9.8 0.4 -3.6
v -9.7 0.4 -3.6
v -9.4 0.4 -3.6
v -9.3 0.4 -3.6
v -9 0.4 -3.6
v -8.9 0.4 -3.6
v -10.2 0.4 -3.7
v -10.1 0.4 -3.7
v -9.8 0.4 -3.7
v -9.7 0.4 -3.7
v -9.4 0.4 -3.7
v -9.3 0.4 -3.7
v -9 0.4 -3.7
v -8.9 0.4 -3.7
v -10.2 0.4 -3.8
v -10.1 0.4 -3.8
v -9.8 0.4 -3.8
v -9.7 0.4 -3.8
v -9.4 0.4 -3.8
v -9.3 0.4 -3.8
v -9 0.4 -3.8
v -8.9 0.4 -3.8
v -10.2 0.4 -4.2
v -10.1 0.4 -4.2
v -9.8 0.4 -4.2
v -9.7 0.4 -4.2
v -9.4 0.4 -4.2
v -9.3 0.4 -4.2
v -9 0.4 -4.2
v -8.9 0.4 -4.2
v -10.2 0.4 -4.3
v -10.1 0.4 -4.3
v -9.8 0.4 -4.3
v -9.7 0.4 -4.3
v -9.4 0.4 -4.3
v -9.3 0.4 -4.3
v -9 0.4 -4.3
v -8.9 0.4 -4.3
v -10.2 0.4 -4.4
v -10.1 0.4 -4.4
v -9.8 0.4 -4.4
v -9.7 0.4 -4.4
v -9.4 0.4 -4.4
v -9.3 0.4 -4.4
v -9 0.4 -4.4
v -8.9 0.4 -4.4
v -10.1 0.5 -3.5
v -10 0.5 -3.5
v -9.7 0.5 -3.5
v -9.6 0.5 -3.5
v -9.3 0.5 -3.5
v -9.2 0.5 -3.5
v -8.9 0.5 -3.5
v -8.8 0.5 -3.5
v -10.1 0.5 -4
v -10 0.5 -4
v -9.7 0.5 -4
v -9.6 0.5 -4
v -9.3 0.5 -4
v -9.2 0.5 -4
v -8.9 0.5 -4
v -8.8 0.5 -4
v -10.1 0.5 -4.1
v -10 0.5 -4.1
v -9.7 0.5 -4.1
v -9.6 0.5 -4.1
v -9.3 0.5 -4.1
v -9.2 0.5 -4.1
v -8.9 0.5 -4.1
v -8.8 0.5 -4.1
v -10.1 0.5 -4.6
v -10 0.5 -4.6
v -9.7 0.5 -4.6
v -9.6 0.5 -4.6
v -9.3 0.5 -4.6
v -9.2 0.5 -4.6
v -8.9 0.5 -4.6
v -8.8 0.5 -4.6

# faces
f 5/1/1 2/1/1 1/1/1
f 6/1/1 2/1/1 5/1/1
f 7/1/1 4/1/1 3/1/1
f 8/1/1 4/1/1 7/1/1
f 9/1/1 5/1/1 1/1/1
f 10/2/1 6/2/1 5/2/1
f 10/1/1 5/1/1 9/1/1
f 11/2/1 6/2/1 10/2/1
f 12/2/1 6/2/1 11/2/1
f 13/1/1 2/1/1 6/1/1
f 13/2/1 6/2/1 12/2/1
f 14/1/1 2/1/1 13/1/1
f 15/1/1 7/1/1 3/1/1
f 16/2/1 8/2/1 7/2/1
f 16/1/1 7/1/1 15/1/1
f 17/2/1 8/2/1 16/2/1
f 18/2/1 8/2/1 17/2/1
f 19/1/1 4/1/1 8/1/1
f 19/2/1 8/2/1 18/2/1
f 20/1/1 4/1/1 19/1/1
f 21/4/1 11/4/1 10/4/1
f 22/3/1 12/3/1 11/3/1
f 22/4/1 11/4/1 21/4/1
f 23/3/1 12/3/1 22/3/1
f 24/4/1 17/4/1 16/4/1
f 25/3/1 18/3/1 17/3/1
f 25/4/1 17/4/1 24/4/1
f 26/3/1 18/3/1 25/3/1
f 37/1/1 28/1/1 27/1/1
f 39/2/1 30/2/1 29/2/1
f 40/1/1 31/1/1 30/1/1
f 40/2/1 30/2/1 39/2/1
f 41/1/1 33/1/1 32/1/1
f 43/2/1 35/2/1 34/2/1
f 44/1/1 36/1/1 35/1/1
f 44/2/1 35/2/1 43/2/1
f 45/1/1 38/1/1 37/1/1
f 45/1/1 39/1/1 38/1/1
f 45/1/1 37/1/1 27/1/1
f 45/1/1 40/1/1 39/1/1
f 46/1/1 31/1/1 40/1/1
f 46/1/1 40/1/1 45/1/1
f 47/1/1 43/1/1 42/1/1
f 47/1/1 44/1/1 43/1/1
f 47/1/1 41/1/1 32/1/1
f 47/1/1 42/1/1 41/1/1
f 48/1/1 36/1/1 44/1/1
f 48/1/1 44/1/1 47/1/1
f 53/1/1 50/1/1 49/1/1
f 54/1/1 50/1/1 53/1/1
f 55/1/1 52/1/1 51/1/1
f 56/1/1 52/1/1 55/1/1
f 57/1/1 53/1/1 49/1/1
f 58/2/1 54/2/1 53/2/1
f 58/1/1 53/1/1 57/1/1
f 59/2/1 54/2/1 58/2/1
f 60/2/1 54/2/1 59/2/1
f 61/1/1 50/1/1 54/1/1
f 61/2/1 54/2/1 60/2/1
f 62/1/1 50/1/1 61/1/1
f 63/1/1 55/1/1 51/1/1
f 64/2/1 56/2/1 55/2/1
f 64/1/1 55/1/1 63/1/1
f 65/2/1 56/2/1 64/2/1
f 66/2/1 56/2/1 65/2/1
f 67/1/1 52/1/1 56/1/1
f 67/2/1 56/2/1 66/2/1
f 68/1/1 52/1/1 67/1/1
f 69/3/1 59/3/1 58/3/1
f 70/4/1 60/4/1 59/4/1
f 70/3/1 59/3/1 69/3/1
f 71/4/1 60/4/1 70/4/1
f 72/3/1 65/3/1 64/3/1
f 73/4/1 66/4/1 65/4/1
f 73/3/1 65/3/1 72/3/1
f 74/4/1 66/4/1 73/4/1
f 85/1/1 76/1/1 75/1/1
f 87/2/1 78/2/1 77/2/1
f 88/1/1 79/1/1 78/1/1
f 88/2/1 78/2/1 87/2/1
f 89/1/1 81/1/1 80/1/1
f 91/2/1 83/2/1 82/2/1
f 92/1/1 84/1/1 83/1/1
f 92/2/1 83/2/1 91/2/1
f 93/1/1 86/1/1 85/1/1
f 93/1/1 87/1/1 86/1/1
f 93/1/1 85/1/1 75/1/1
f 93/1/1 88/1/1 87/1/1
f 94/1/1 79/1/1 88/1/1
f 94/1/1 88/1/1 93/1/1
f 95/1/1 91/1/1 90/1/1
f 95/1/1 92/1/1 91/1/1
f 95/1/1 89/1/1 80/1/1
f 95/1/1 90/1/1 89/1/1
f 96/1/1 84/1/1 92/1/1
f 96/1/1 92/1/1 95/1/1
f 101/1/1 98/1/1 97/1/1
f 102/1/1 98/1/1 101/1/1
f 103/1/1 100/1/1 99/1/1
f 104/1/1 100/1/1 103/1/1
f 105/1/1 101/1/1 97/1/1
f 106/2/1 102/2/1 101/2/1
f 106/1/1 101/1/1 105/1/1
f 107/2/1 102/2/1 106/2/1
f 108/2/1 102/2/1 107/2/1
f 109/1/1 98/1/1 102/1/1
f 109/2/1 102/2/1 108/2/1
f 110/1/1 98/1/1 109/1/1
f 111/1/1 103/1/1 99/1/1
f 112/2/1 104/2/1 103/2/1
f 112/1/1 103/1/1 111/1/1
f 113/2/1 104/2/1 112/2/1
f 114/2/1 104/2/1 113/2/1
f 115/1/1 100/1/1 104/1/1
f 115/2/1 104/2/1 114/2/1
f 116/1/1 100/1/1 115/1/1
f 117/4/1 107/4/1 106/4/1
f 118/3/1 108/3/1 107/3/1
f 118/4/1 107/4/1 117/4/1
f 119/3/1 108/3/1 118/3/1
f 120/3/1 113/3/1 112/3/1
f 121/4/1 114/4/1 113/4/1
f 121/3/1 113/3/1 120/3/1
f 122/4/1 114/4/1 121/4/1
f 133/1/1 124/1/1 123/1/1
f 135/2/1 126/2/1 125/2/1
f 136/1/1 127/1/1 126/1/1
f 136/2/1 126/2/1 135/2/1
f 137/1/1 129/1/1 128/1/1
f 139/2/1 131/2/1 130/2/1
f 140/1/1 132/1/1 131/1/1
f 140/2/1 131/2/1 139/2/1
f 141/1/1 134/1/1 133/1/1
f 141/1/1 135/1/1 134/1/1
f 141/1/1 133/1/1 123/1/1
f 141/1/1 136/1/1 135/1/1
f 142/1/1 127/1/1 136/1/1
f 142/1/1 136/1/1 141/1/1
f 143/1/1 139/1/1 138/1/1
f 143/1/1 140/1/1 139/1/1
f 143/1/1 137/1/1 128/1/1
f 143/1/1 138/1/1 137/1/1
f 144/1/1 132/1/1 140/1/1
f 144/1/1 140/1/1 143/1/1
f 149/1/1 146/1/1 145/1/1
f 150/1/1 146/1/1 149/1/1
f 151/1/1 148/1/1 147/1/1
f 152/1/1 148/1/1 151/1/1
f 153/1/1 149/1/1 145/1/1
f 154/2/1 150/2/1 149/2/1
f 154/1/1 149/1/1 153/1/1
f 155/2/1 150/2/1 154/2/1
f 156/2/1 150/2/1 155/2/1
f 157/1/1 146/1/1 150/1/1
f 157/2/1 150/2/1 156/2/1
f 158/1/1 146/1/1 157/1/1
f 159/1/1 151/1/1 147/1/1
f 160/2/1 152/2/1 151/2/1
f 160/1/1 151/1/1 159/1/1
f 161/2/1 152/2/1 160/2/1
f 162/2/1 152/2/1 161/2/1
f 163/1/1 148/1/1 152/1/1
f 163/2/1 152/2/1 162/2/1
f 164/1/1 148/1/1 163/1/1
f 165/3/1 155/3/1 154/3/1
f 166/4/1 156/4/1 155/4/1
f 166/3/1 155/3/1 165/3/1
f 167/4/1 156/4/1 166/4/1
f 168/4/1 161/4/1 160/4/1
f 169/3/1 162/3/1 161/3/1
f 169/4/1 161/4/1 168/4/1
f 170/3/1 162/3/1 169/3/1
f 181/1/1 172/1/1 171/1/1
f 183/2/1 174/2/1 173/2/1
f 184/1/1 175/1/1 174/1/1
f 184/2/1 174/2/1 183/2/1
f 185/1/1 177/1/1 176/1/1
f 187/2/1 179/2/1 178/2/1
f 188/1/1 180/1/1 179/1/1
f 188/2/1 179/2/1 187/2/1
f 189/1/1 182/1/1 181/1/1
f 189/1/1 183/1/1 182/1/1
f 189/1/1 181/1/1 171/1/1
f 189/1/1 184/1/1 183/1/1
f 190/1/1 175/1/1 184/1/1
f 190/1/1 184/1/1 189/1/1
f 191/1/1 187/1/1 186/1/1
f 191/1/1 188/1/1 187/1/1
f 191/1/1 185/1/1 176/1/1
f 191/1/1 186/1/1 185/1/1
f 192/1/1 180/1/1 188/1/1
f 192/1/1 188/1/1 191/1/1
f 193/1/2 194/1/2 197/1/2
f 197/1/2 194/1/2 198/1/2
f 195/1/2 196/1/2 199/1/2
f 199/1/2 196/1/2 200/1/2
f 193/1/2 197/1/2 201/1/2
f 197/2/2 198/2/2 201/2/2
f 198/1/2 194/1/2 202/1/2
f 201/2/2 198/2/2 202/2/2
f 199/2/2 200/2/2 203/2/2
f 195/1/2 199/1/2 203/1/2
f 200/1/2 196/1/2 204/1/2
f 203/2/2 200/2/2 204/2/2
f 193/1/2 201/1/2 205/1/2
f 201/1/2 202/1/2 205/1/2
f 202/1/2 194/1/2 206/1/2
f 205/1/2 202/1/2 206/1/2
f 195/1/2 203/1/2 207/1/2
f 203/1/2 204/1/2 207/1/2
f 204/1/2 196/1/2 208/1/2
f 207/1/2 204/1/2 208/1/2
f 209/1/2 210/1/2 213/1/2
f 213/1/2 210/1/2 214/1/2
f 211/1/2 212/1/2 215/1/2
f 215/1/2 212/1/2 216/1/2
f 209/1/2 213/1/2 217/1/2
f 213/2/2 214/2/2 217/2/2
f 214/1/2 210/1/2 218/1/2
f 217/2/2 214/2/2 218/2/2
f 215/2/2 216/2/2 219/2/2
f 211/1/2 215/1/2 219/1/2
f 216/1/2 212/1/2 220/1/2
f 219/2/2 216/2/2 220/2/2
f 209/1/2 217/1/2 221/1/2
f 217/1/2 218/1/2 221/1/2
f 218/1/2 210/1/2 222/1/2
f 221/1/2 218/1/2 222/1/2
f 211/1/2 219/1/2 223/1/2
f 219/1/2 220/1/2 223/1/2
f 220/1/2 212/1/2 224/1/2
f 223/1/2 220/1/2 224/1/2
f 225/1/2 226/1/2 229/1/2
f 229/1/2 226/1/2 230/1/2
f 227/1/2 228/1/2 231/1/2
f 231/1/2 228/1/2 232/1/2
f 225/1/2 229/1/2 233/1/2
f 229/2/2 230/2/2 233/2/2
f 230/1/2 226/1/2 234/1/2
f 233/2/2 230/2/2 234/2/2
f 231/2/2 232/2/2 235/2/2
f 227/1/2 231/1/2 235/1/2
f 232/1/2 228/1/2 236/1/2
f 235/2/2 232/2/2 236/2/2
f 225/1/2 233/1/2 237/1/2
f 233/1/2 234/1/2 237/1/2
f 234/1/2 226/1/2 238/1/2
f 237/1/2 234/1/2 238/1/2
f 227/1/2 235/1/2 239/1/2
f 235/1/2 236/1/2 239/1/2
f 236/1/2 228/1/2 240/1/2
f 239/1/2 236/1/2 240/1/2
f 241/1/2 242/1/2 245/1/2
f 245/1/2 242/1/2 246/1/2
f 243/1/2 244/1/2 247/1/2
f 247/1/2 244/1/2 248/1/2
f 241/1/2 245/1/2 249/1/2
f 245/2/2 246/2/2 249/2/2
f 246/1/2 242/1/2 250/1/2
f 249/2/2 246/2/2 250/2/2
f 247/2/2 248/2/2 251/2/2
f 243/1/2 247/1/2 251/1/2
f 248/1/2 244/1/2 252/1/2
f 251/2/2 248/2/2 252/2/2
f 241/1/2 249/1/2 253/1/2
f 249/1/2 250/1/2 253/1/2
f 250/1/2 242/1/2 254/1/2
f 253/1/2 250/1/2 254/1/2
f 243/1/2 251/1/2 255/1/2
f 251/1/2 252/1/2 255/1/2
f 252/1/2 244/1/2 256/1/2
f 255/1/2 252/1/2 256/1/2
f 259/1/3 258/1/3 257/1/3
f 261/1/3 259/1/3 257/1/3
f 261/1/3 260/1/3 259/1/3
f 262/1/3 260/1/3 261/1/3
f 265/1/3 264/1/3 263/1/3
f 267/1/3 265/1/3 263/1/3
f 267/1/3 266/1/3 265/1/3
f 268/1/3 266/1/3 267/1/3
f 271/1/3 270/1/3 269/1/3
f 273/1/3 271/1/3 269/1/3
f 273/1/3 272/1/3 271/1/3
f 274/1/3 272/1/3 273/1/3
f 277/1/3 276/1/3 275/1/3
f 279/1/3 277/1/3 275/1/3
f 279/1/3 278/1/3 277/1/3
f 280/1/3 278/1/3 279/1/3
f 283/4/3 282/4/3 281/4/3
f 284/4/3 282/4/3 283/4/3
f 287/3/3 286/3/3 285/3/3
f 288/3/3 286/3/3 287/3/3
f 291/4/3 290/4/3 289/4/3
f 292/4/3 290/4/3 291/4/3
f 295/3/3 294/3/3 293/3/3
f 296/3/3 294/3/3 295/3/3
f 299/1/3 298/1/3 297/1/3
f 301/1/3 299/1/3 297/1/3
f 301/1/3 300/1/3 299/1/3
f 302/1/3 300/1/3 301/1/3
f 305/1/3 304/1/3 303/1/3
f 307/1/3 305/1/3 303/1/3
f 307/1/3 306/1/3 305/1/3
f 308/1/3 306/1/3 307/1/3
f 311/1/3 310/1/3 309/1/3
f 313/1/3 311/1/3 309/1/3
f 313/1/3 312/1/3 311/1/3
f 314/1/3 312/1/3 313/1/3
f 317/1/3 316/1/3 315/1/3
f 319/1/3 317/1/3 315/1/3
f 319/1/3 318/1/3 317/1/3
f 320/1/3 318/1/3 319/1/3
f 323/4/3 322/4/3 321/4/3
f 324/4/3 322/4/3 323/4/3
f 327/3/3 326/3/3 325/3/3
f 328/3/3 326/3/3 327/3/3
f 331/3/3 330/3/3 329/3/3
f 332/3/3 330/3/3 331/3/3
f 335/4/3 334/4/3 333/4/3
f 336/4/3 334/4/3 335/4/3
f 337/3/4 338/3/4 339/3/4
f 339/3/4 338/3/4 340/3/4
f 341/4/4 342/4/4 343/4/4
f 343/4/4 342/4/4 344/4/4
f 345/3/4 346/3/4 347/3/4
f 347/3/4 346/3/4 348/3/4
f 349/4/4 350/4/4 351/4/4
f 351/4/4 350/4/4 352/4/4
f 353/1/4 354/1/4 355/1/4
f 353/1/4 355/1/4 357/1/4
f 355/1/4 356/1/4 357/1/4
f 357/1/4 356/1/4 358/1/4
f 359/1/4 360/1/4 361/1/4
f 359/1/4 361/1/4 363/1/4
f 361/1/4 362/1/4 363/1/4
f 363/1/4 362/1/4 364/1/4
f 365/1/4 366/1/4 367/1/4
f 365/1/4 367/1/4 369/1/4
f 367/1/4 368/1/4 369/1/4
f 369/1/4 368/1/4 370/1/4
f 371/1/4 372/1/4 373/1/4
f 371/1/4 373/1/4 375/1/4
f 373/1/4 374/1/4 375/1/4
f 375/1/4 374/1/4 376/1/4
f 377/3/4 378/3/4 379/3/4
f 379/3/4 378/3/4 380/3/4
f 381/4/4 382/4/4 383/4/4
f 383/4/4 382/4/4 384/4/4
f 385/4/4 386/4/4 387/4/4
f 387/4/4 386/4/4 388/4/4
f 389/3/4 390/3/4 391/3/4
f 391/3/4 390/3/4 392/3/4
f 393/1/4 394/1/4 395/1/4
f 393/1/4 395/1/4 397/1/4
f 395/1/4 396/1/4 397/1/4
f 397/1/4 396/1/4 398/1/4
f 399/1/4 400/1/4 401/1/4
f 399/1/4 401/1/4 403/1/4
f 401/1/4 402/1/4 403/1/4
f 403/1/4 402/1/4 404/1/4
f 405/1/4 406/1/4 407/1/4
f 405/1/4 407/1/4 409/1/4
f 407/1/4 408/1/4 409/1/4
f 409/1/4 408/1/4 410/1/4
f 411/1/4 412/1/4 413/1/4
f 411/1/4 413/1/4 415/1/4
f 413/1/4 414/1/4 415/1/4
f 415/1/4 414/1/4 416/1/4
f 425/1/5 418/1/5 417/1/5
f 426/1/5 418/1/5 425/1/5
f 427/1/5 420/1/5 419/1/5
f 428/1/5 420/1/5 427/1/5
f 429/1/5 422/1/5 421/1/5
f 430/1/5 422/1/5 429/1/5
f 431/1/5 424/1/5 423/1/5
f 432/1/5 424/1/5 431/1/5
f 441/1/5 434/1/5 433/1/5
f 442/1/5 434/1/5 441/1/5
f 443/1/5 436/1/5 435/1/5
f 444/1/5 436/1/5 443/1/5
f 445/1/5 438/1/5 437/1/5
f 446/1/5 438/1/5 445/1/5
f 447/1/5 440/1/5 439/1/5
f 448/1/5 440/1/5 447/1/5
f 449/1/6 450/1/6 457/1/6
f 457/1/6 450/1/6 458/1/6
f 451/1/6 452/1/6 459/1/6
f 459/1/6 452/1/6 460/1/6
f 453/1/6 454/1/6 461/1/6
f 461/1/6 454/1/6 462/1/6
f 455/1/6 456/1/6 463/1/6
f 463/1/6 456/1/6 464/1/6
f 465/2/6 466/2/6 473/2/6
f 473/2/6 466/2/6 474/2/6
f 467/2/6 468/2/6 475/2/6
f 475/2/6 468/2/6 476/2/6
f 469/2/6 470/2/6 477/2/6
f 477/2/6 470/2/6 478/2/6
f 471/2/6 472/2/6 479/2/6
f 479/2/6 472/2/6 480/2/6
f 473/1/6 474/1/6 481/1/6
f 481/1/6 474/1/6 482/1/6
f 475/1/6 476/1/6 483/1/6
f 483/1/6 476/1/6 484/1/6
f 477/1/6 478/1/6 485/1/6
f 485/1/6 478/1/6 486/1/6
f 479/1/6 480/1/6 487/1/6
f 487/1/6 480/1/6 488/1/6
f 489/1/6 490/1/6 497/1/6
f 497/1/6 490/1/6 498/1/6
f 491/1/6 492/1/6 499/1/6
f 499/1/6 492/1/6 500/1/6
f 493/1/6 494/1/6 501/1/6
f 501/1/6 494/1/6 502/1/6
f 495/1/6 496/1/6 503/1/6
f 503/1/6 496/1/6 504/1/6
f 505/2/6 506/2/6 513/2/6
f 513/2/6 506/2/6 514/2/6
f 507/2/6 508/2/6 515/2/6
f 515/2/6 508/2/6 516/2/6
f 509/2/6 510/2/6 517/2/6
f 517/2/6 510/2/6 518/2/6
f 511/2/6 512/2/6 519/2/6
f 519/2/6 512/2/6 520/2/6
f 513/1/6 514/1/6 521/1/6
f 521/1/6 514/1/6 522/1/6
f 515/1/6 516/1/6 523/1/6
f 523/1/6 516/1/6 524/1/6
f 517/1/6 518/1/6 525/1/6
f 525/1/6 518/1/6 526/1/6
f 519/1/6 520/1/6 527/1/6
f 527/1/6 520/1/6 528/1/6
f 529/4/6 530/4/6 537/4/6
f 537/4/6 530/4/6 538/4/6
f 531/3/6 532/3/6 539/3/6
f 539/3/6 532/3/6 540/3/6
f 533/4/6 534/4/6 541/4/6
f 541/4/6 534/4/6 542/4/6
f 535/3/6 536/3/6 543/3/6
f 543/3/6 536/3/6 544/3/6
f 537/3/6 538/3/6 545/3/6
f 545/3/6 538/3/6 546/3/6
f 539/4/6 540/4/6 547/4/6
f 547/4/6 540/4/6 548/4/6
f 541/3/6 542/3/6 549/3/6
f 549/3/6 542/3/6 550/3/6
f 543/4/6 544/4/6 551/4/6
f 551/4/6 544/4/6 552/4/6
f 553/4/6 554/4/6 561/4/6
f 561/4/6 554/4/6 562/4/6
f 555/3/6 556/3/6 563/3/6
f 563/3/6 556/3/6 564/3/6
f 557/3/6 558/3/6 565/3/6
f 565/3/6 558/3/6 566/3/6
f 559/4/6 560/4/6 567/4/6
f 567/4/6 560/4/6 568/4/6
f 561/3/6 562/3/6 569/3/6
f 569/3/6 562/3/6 570/3/6
f 563/4/6 564/4/6 571/4/6
f 571/4/6 564/4/6 572/4/6
f 565/4/6 566/4/6 573/4/6
f 573/4/6 566/4/6 574/4/6
f 567/3/6 568/3/6 575/3/6
f 575/3/6 568/3/6 576/3/6
f 577/1/6 578/1/6 585/1/6
f 585/1/6 578/1/6 586/1/6
f 579/1/6 580/1/6 587/1/6
f 587/1/6 580/1/6 588/1/6
f 581/1/6 582/1/6 589/1/6
f 589/1/6 582/1/6 590/1/6
f 583/1/6 584/1/6 591/1/6
f 591/1/6 584/1/6 592/1/6
f 593/1/6 594/1/6 601/1/6
f 601/1/6 594/1/6 602/1/6
f 595/1/6 596/1/6 603/1/6
f 603/1/6 596/1/6 604/1/6
f 597/1/6 598/1/6 605/1/6
f 605/1/6 598/1/6 606/1/6
f 599/1/6 600/1/6 607/1/6
f 607/1/6 600/1/6 608/1/6
